<?xml version="1.0" standalone="no"?>
<!DOCTYPE svg PUBLIC "-//W3C//DTD SVG 20010904//EN"
 "http://www.w3.org/TR/2001/REC-SVG-20010904/DTD/svg10.dtd">
<svg version="1.0" xmlns="http://www.w3.org/2000/svg"
 width="512.000000pt" height="512.000000pt" viewBox="0 0 512.000000 512.000000"
 preserveAspectRatio="xMidYMid meet">
<metadata>
Created by potrace 1.11, written by Peter Selinger 2001-2013
</metadata>
<g transform="translate(0.000000,512.000000) scale(0.100000,-0.100000)"
fill="#000000" stroke="none">
<path d="M2295 5003 c-372 -44 -644 -136 -895 -302 -171 -113 -364 -331 -458
-516 -103 -205 -161 -495 -149 -745 16 -335 112 -589 327 -865 117 -150 170
-237 170 -279 0 -52 -42 -108 -225 -299 -350 -366 -423 -479 -433 -672 -10
-213 86 -383 365 -640 248 -229 478 -367 773 -464 595 -194 1342 -144 1871
125 334 170 546 378 689 678 85 179 143 390 160 577 28 329 -94 797 -268 1026
-26 34 -86 113 -133 175 -48 62 -96 132 -108 155 -44 88 -23 142 131 338 185
238 273 389 313 541 71 273 -136 536 -673 855 -250 149 -587 261 -915 304
-107 14 -452 19 -542 8z m456 -354 c468 -47 869 -239 1247 -595 l72 -69 -176
-265 c-97 -146 -186 -270 -198 -277 -26 -15 -61 -16 -85 -3 -10 5 -60 40 -111
79 -113 85 -330 206 -467 261 -146 58 -243 82 -348 83 -79 2 -95 -1 -133 -23
-117 -67 -121 -212 -8 -318 72 -69 148 -115 472 -292 412 -225 538 -312 714
-497 248 -259 360 -535 360 -888 0 -297 -72 -501 -257 -725 -351 -427 -1151
-604 -1848 -409 -327 92 -615 291 -874 605 -44 54 -81 101 -81 104 0 10 400
504 432 534 46 42 82 33 169 -47 132 -123 311 -233 508 -312 184 -74 255 -89
411 -90 122 0 140 2 183 24 58 28 87 78 94 162 5 49 2 67 -21 113 -50 103
-175 197 -571 431 -409 242 -582 374 -735 560 -136 166 -213 309 -257 474 -23
85 -26 115 -26 271 0 126 4 195 16 245 45 199 137 365 282 511 187 190 456
311 785 353 96 12 333 13 451 0z"/>
</g>
</svg>
