<?xml version="1.0" standalone="no"?>
<!DOCTYPE svg PUBLIC "-//W3C//DTD SVG 20010904//EN"
 "http://www.w3.org/TR/2001/REC-SVG-20010904/DTD/svg10.dtd">
<svg version="1.0" xmlns="http://www.w3.org/2000/svg"
 width="512.000000pt" height="512.000000pt" viewBox="0 0 512.000000 512.000000"
 preserveAspectRatio="xMidYMid meet">
<metadata>
Created by potrace 1.11, written by Peter Selinger 2001-2013
</metadata>
<g transform="translate(0.000000,512.000000) scale(0.100000,-0.100000)"
fill="#000000" stroke="none">
<path d="M2280 5004 c-438 -52 -765 -185 -1036 -422 -64 -55 -164 -172 -221
-257 -291 -433 -310 -1098 -46 -1550 23 -38 89 -131 147 -205 116 -148 166
-232 166 -277 0 -48 -53 -118 -219 -288 -350 -359 -429 -482 -439 -681 -5
-116 9 -179 64 -285 88 -168 344 -423 583 -582 439 -291 1002 -406 1615 -331
584 72 1083 338 1329 710 145 218 241 495 267 764 31 321 -95 801 -267 1027
-27 34 -87 113 -134 175 -48 62 -96 132 -108 155 -44 88 -23 142 131 338 344
440 401 653 242 903 -81 126 -285 301 -526 449 -281 173 -529 267 -888 335
-84 16 -157 20 -365 23 -143 2 -276 1 -295 -1z m570 -409 c421 -63 784 -249
1158 -592 l62 -58 -178 -271 c-98 -149 -187 -274 -196 -277 -48 -19 -81 -7
-173 63 -279 209 -631 360 -844 360 -116 0 -163 -25 -200 -105 -33 -72 -18
-148 45 -223 41 -47 196 -147 401 -257 431 -231 582 -329 747 -484 196 -184
336 -417 389 -649 29 -127 37 -386 15 -512 -106 -605 -693 -999 -1487 -1000
-566 0 -971 159 -1334 525 -60 61 -136 145 -168 187 l-59 77 202 253 c111 139
213 263 227 275 16 16 37 23 63 23 34 0 48 -9 120 -75 349 -321 970 -507 1136
-341 59 59 71 168 28 254 -48 97 -161 180 -597 441 -345 207 -454 286 -612
445 -268 269 -385 527 -385 846 0 602 432 1031 1116 1110 107 12 395 4 524
-15z"/>
</g>
</svg>
