<svg xmlns="http://www.w3.org/2000/svg" xmlns:xlink="http://www.w3.org/1999/xlink" viewBox="101.833 251.897 451.28 359.997" width="300" height="238.77"><defs><path d="M313.09 253.02c22.09-.47 22.73.42 44.17 2.75s45.96 7.11 57.02 10.44c15.33 4.66 30.53 10.8 44.13 19.46 20.26 12.13 36.65 30.66 45.85 52.52 4.8 12 9.2 24.93 7.47 38.13-1.6 16.66-4 33.32-7.34 49.72-7.73 36.92-28.39 71.85-59.98 92.91-21.73 14.26-46.79 22.26-72.38 26.39-26.26 4.4-53.06 4.53-79.58 2.8-25.33-1.73-50.66-6.13-74.12-16-22.93-9.86-42.92-28.12-51.45-51.98-1.2-2.94-1.34-6.53-4.27-8.4-20.13-17.86-32.79-42.66-38.52-68.65-4.8-23.46-.67-48.52 10.53-69.58 12-22.53 32.52-39.06 54.92-50.52 16.53-8 33.99-14 51.72-18.4-3.26-2.29 49.74-11.12 71.83-11.59z" id="a"/><path d="M336.57 258.34c16.53.27 33.06 2.8 49.32 5.47 27.73 5.07 55.19 14.13 78.11 30.79 22.93 16.53 38.93 42.26 43.73 70.12.13 21.99-3.47 44.52-13.2 64.38-6.8 14.53-17.06 27.33-29.33 37.73-16.66 13.59-36.25 23.32-56.78 29.59-21.06 6.93-43.19 10.13-65.19 12.4-25.86 2.53-51.98 2.4-77.71-.67-25.59-3.07-51.05-9.2-73.72-21.46-18.79-10-35.45-24.4-46.65-42.66-6.4-10.26-11.07-21.46-14.66-33.06-2.14-8.53-4.94-17.33-4.14-26.39-.26-16.66 4-33.06 11.47-47.99 13.06-24.66 36.39-41.99 61.32-53.45 31.45-13.6 65.45-20.66 99.3-24.26 12.67-1.6 25.47-1.47 38.13-.54z" id="b"/><path d="M383.36 282.34c22.93 4.13 46.39 11.6 63.72 27.86 11.06 10.26 18.66 23.99 22.26 38.52 1.46 7.73 4.4 15.87 1.46 23.73-4.8 21.86-16.53 42.26-33.32 57.05-17.73 15.33-39.86 24.66-62.52 29.6-14.8 3.73-29.99 5.19-45.19 6.13-9.33.66-18.53-.8-27.73-1.34-30.52-3.33-61.58-7.46-89.84-20.12-16.26-7.2-31.59-18.4-40.12-34.53-7.74-15.33-7.74-33.86-2.14-49.99 5.87-17.19 18.8-30.92 33.86-40.65 21.86-14.8 47.32-22.8 72.65-28.93 17.86-4.27 35.86-7.06 53.99-9.46 17.59-2.14 35.45-.54 52.92 2.13z" id="c"/><path d="M359.23 283.94c25.73 2 52.25 6.8 74.25 21.06 20.39 13.2 33.06 36.52 34.26 60.65-1.87 9.2-4.14 18.66-8.27 27.33-.4.26-1.2.93-1.6 1.33-.13-17.06-12.53-30.52-25.32-40.12-23.6-15.87-52.13-21.33-79.85-24.26-28.66-1.87-57.72.93-85.45 8.39-22.13 5.74-43.99 16-59.72 33.2-7.19 7.33-11.86 16.66-15.46 26.12-3.07 8-4 17.2-.53 25.33-.14.8-.4 2.27-.4 2.93-9.6-8.26-17.33-19.19-19.6-31.72-3.73-17.73.94-36.53 11.73-50.92 7.47-8.8 15.73-17.47 26-23.06 11.99-8.14 25.59-13.33 38.92-18.67 24.79-7.33 50.25-13.19 75.98-16.13 11.47-2.79 23.33-1.6 35.06-1.46z" id="d"/><path d="M352.7 329.93c27.72 2.93 56.25 8.39 79.85 24.26 12.79 9.6 25.19 23.06 25.32 40.12-.13 1.47-.53 2.8-.93 4.13-12.66 22.53-33.59 40.26-57.99 48.53-8.93 4.66-18.93 5.99-28.26 8.79-12.93 3.6-26.26 4.14-39.45 5.87-6.67-.54-13.47.8-20-1.07-25.19-1.2-50.12-6.13-74.65-12.26-7.86-1.73-14.79-6.27-22.52-8.13-6.54-3.47-12.8-7.33-19.07-11.2-1.33-2-1.86-4.27-3.46-6-3.47-8.13-2.54-17.33.53-25.33 3.6-9.46 8.27-18.79 15.46-26.12 15.73-17.2 37.59-27.46 59.72-33.2 27.73-7.46 56.79-10.26 85.45-8.39z" id="e"/><path d="M510.99 376.32c6 4.93 13.87 10.13 18.67 16.26 13.47 15.99 20.4 36.79 20.4 57.45.53 25.46-2.67 51.85-15.07 74.65-9.59 17.86-24.43 31.97-40.39 44.39-15.95 12.42-88.46 36.54-118.59 37.6-38.8 3.29-52.33 2.62-82.42 0-13.84-1.2-27.3-4.82-58.12-13.74-30.82-8.93-47.72-12.93-69.72-24.26-18.39-9.47-36.12-21.6-48.12-38.66-10.4-14.53-15.73-32.66-14.66-50.65 2.26-26.4 8.26-53.32 22.26-76.25 5.73 25.99 18.39 50.79 38.52 68.65 2.93 1.87 3.07 5.46 4.27 8.4 8.53 23.86 28.52 42.12 51.45 51.98 23.46 9.87 48.79 14.27 74.12 16 26.52 1.73 53.32 1.6 79.58-2.8 25.59-4.13 50.65-13.54 72.38-27.8 31.59-21.06 50.85-54.71 58.58-91.64 3.33-16.39 5.26-32.92 6.86-49.58z" id="f"/></defs><use xlink:href="#a" fill="#016d01"/><use xlink:href="#a" fill-opacity="0" stroke="#016d01" stroke-width=".09"/><use xlink:href="#b" fill="#00cf39"/><use xlink:href="#b" fill-opacity="0" stroke="#00cf39" stroke-width=".09"/><use xlink:href="#c" fill="#016d01"/><use xlink:href="#c" fill-opacity="0" stroke="#016d01" stroke-width=".09"/><g><use xlink:href="#d" fill="#0f3401"/><use xlink:href="#d" fill-opacity="0" stroke="#0f3401" stroke-width=".09"/></g><g><use xlink:href="#e" fill="#008d00"/><use xlink:href="#e" fill-opacity="0" stroke="#008d00" stroke-width=".09"/></g><g><use xlink:href="#f" fill="#680677"/><use xlink:href="#f" fill-opacity="0" stroke="#680677" stroke-width=".09"/></g></svg>