<svg xmlns="http://www.w3.org/2000/svg" viewBox="0 0 88.28 163.77"><defs><style>.cls-1{fill:#292536}.cls-2{fill:#936ba4}.cls-3{fill:#65db32}.cls-5{fill:#e8415a}.cls-9{fill:#9b6baa}.cls-22{fill:#eb3a59}.cls-26{fill:#aeec92}.cls-35{fill:#79954b}</style></defs><g id="Layer_2" data-name="Layer 2"><g id="Layer_1-2" data-name="Layer 1"><g id="_9Stzsu.tif" data-name="9Stzsu.tif"><path class="cls-1" d="M16.83 147c.2-2.07-.18-4.14-.11-6.22a53.3 53.3 0 0 1 .5-6.32 3 3 0 0 0-.38-1.9 28.65 28.65 0 0 1-3-10.56 69.1 69.1 0 0 1 .16-11.39 72.73 72.73 0 0 1 1.35-7.71c.56-2.84 1.19-5.67 1.78-8.5.07-.33.44-.71.1-1s-.66.13-.95.29c-2.21 1.16-4.33 2.45-6.43 3.79a25.57 25.57 0 0 1-6.63 3.1A2.39 2.39 0 0 1 0 98.51a25.24 25.24 0 0 1 2.6-12.45 28.85 28.85 0 0 1 8-10.12 32.42 32.42 0 0 1 9.8-5.85 3.3 3.3 0 0 0 1.95-1.63 57.37 57.37 0 0 0 6-19.12c.27-1.79.62-3.58.92-5.37a6.1 6.1 0 0 0 0-1c-.61.18-.59.77-.88 1.11s-.53.64-1 .49a1.1 1.1 0 0 1-.77-1 3.93 3.93 0 0 1 1.62-3.52 3.76 3.76 0 0 0 1.16-3.5c-.3-3.88-1-7.7-1.5-11.55a71.75 71.75 0 0 1-1.05-12.6c.11-2.74 2-4.21 4.63-3.51a18.15 18.15 0 0 1 8.44 5.28c3.18 3.31 5.41 7.29 7.84 11.13 2.25 3.53 3.63 7.45 5.48 11.15l.67 1.34c.17 0 .28 0 .31-.06.45-.66 1-1.51 1.86-1s.58 1.37.33 2.17-.53 1.66-.72 2.5c-.11.46-.14 1.08.29 1.33s.81-.2 1.12-.46c1.32-1.1 2.28-2.56 3.49-3.74 1.83-1.78 2.3-3.52.81-5.69a4.37 4.37 0 0 1-.35-2c-.07-.6-.19-.83-.88-.67a23 23 0 0 0-3.28 1 1.5 1.5 0 0 1-1.48 0c-.46-.37-.12-.93 0-1.44.82-3.64 3.26-6.1 6.05-8.26 1.09-.85 1.3-2.15 1.92-3.22 1.27-2.1 2.62-4.18 5.12-5.25a3.27 3.27 0 0 0 2.31-3.57c-.08-1.5.8-2.26 2.3-2.4 1.72-.17 1.72-.17 1.61-1.86s.66-2.2 2.36-1.79c.78.19 1.17.24 1.22-.76S80.36.48 81.73.78a10.94 10.94 0 0 1 1.38.41 1.41 1.41 0 0 0 1.8-.49c.7-.95 1.71-.68 2.64-.62.55 0 .53.5.56.91a5.13 5.13 0 0 1-.8 3.3 1.68 1.68 0 0 0 0 1.87 17.84 17.84 0 0 1 .78 2c.54 1.48.15 2.45-1.32 2.79-.82.19-1 .53-.85 1.24a6 6 0 0 1 0 1c0 1.59-.31 2.07-1.86 2.41-.7.15-.83.41-.7 1.05.46 2.19-.92 3.7-3.17 3.13-1.11-.28-1.9-.35-2.28 1.11A10.93 10.93 0 0 1 75.48 25a1.4 1.4 0 0 0-.25 1.52 30.58 30.58 0 0 1 .55 15.2 56 56 0 0 1-3.16 10.92c-2 4.9-4.23 9.79-7.76 13.79-1.66 1.89-1.66 3.43-1 5.6a100.37 100.37 0 0 1 3.04 15.89c.46 3.61 1 7.21 1.46 10.82.06.48 0 .78.75.75 1.89-.1 3.44 1 5.1 1.7a24.42 24.42 0 0 1 5.25 3 6.61 6.61 0 0 1 2.63 5.33 16.15 16.15 0 0 1-.58 4.66 10.82 10.82 0 0 1-3.36 5c-.75.72-1.43 1.53-2.26 2.21a16.11 16.11 0 0 1-3.58 1.92c-3.47 1.64-7.22 1.82-11 1.72-1.32 0-2.6-.55-3.94-.47a.88.88 0 0 0-.79.3c-2.28 2.57-4.32 5.34-6.37 8.1A90 90 0 0 0 39.1 153.5a36.52 36.52 0 0 1-3.74 7.67 6 6 0 0 1-5.42 2.6c-5-.07-8.39-2.68-10.49-7a27.68 27.68 0 0 1-2.46-8.9c-.16-.28.01-.59-.16-.87z"/><path class="cls-2" d="M57.88 104.36c-.31-2.1-.21-4.24-1.23-6.11-.87-1.58-1.2-3.35-2-4.93-2.35-4.46-6.28-5.54-10.59-4.67a14.35 14.35 0 0 0-8.54 5.14 12.92 12.92 0 0 0-3.27 8.3 7.74 7.74 0 0 0 5.21 7.24 36.23 36.23 0 0 0 12.61 3c.22 0 .51-.15.63.14s-.12.44-.26.63c-3.24 4.43-6.44 8.9-9.66 13.35a20.14 20.14 0 0 1-7.66 6.85 10.12 10.12 0 0 1-10.84-1.47c-3.15-2.73-4.38-6.42-5.22-10.27a46.76 46.76 0 0 1-.35-16 83.63 83.63 0 0 1 3.73-15.36c.23-.71 1-1.63.16-2.19s-1.42.44-2 .85c-3.92 2.52-7.82 5.08-12 7.21a5.09 5.09 0 0 1-3.27.35c-.8-.13-1.14-.75-1.17-1.58a18.3 18.3 0 0 1 2-8C6.84 80.57 11.91 77 17.91 74.4a21.25 21.25 0 0 1 3.6-1.31 4.34 4.34 0 0 0 3.23-3.19 161.3 161.3 0 0 0 4.55-16.72c.83-3.74 1.48-7.5 2-11.3.26-1.84 2-2.44 3.46-3.16a2.74 2.74 0 0 1 3.28.76 23.14 23.14 0 0 1 3.32 4.81c.26.44.09.63-.32.8-5.47 2.29-6.46 9.08-4.16 13.34a7.16 7.16 0 0 0 4.2 3.22A21.54 21.54 0 0 0 47.84 63a4.69 4.69 0 0 0 3.63-1.86c1.85-2.29 2.85-5.06 1.66-7.82a21.59 21.59 0 0 0-3.48-5.94c-.48-.55-.63-.84.11-1.26a26.07 26.07 0 0 0 2.29-1.53c.78-.56 1.22-.56 1.63.5 1.58 4.06 2.8 8.23 4.08 12.39 1.7 5.48 3.42 11 4.62 16.59a165.41 165.41 0 0 1 3.4 21.11c0 .32.13.63.15 1a8.93 8.93 0 0 1 .15 2.82c-.27 1-1.57.86-2.38 1.28a27.74 27.74 0 0 0-4.83 3.49c-.27.23-.46.51-.99.59z"/><path class="cls-3" d="M18.68 141.31a17.92 17.92 0 0 1 .24-3.94c.08-.29-.09-.72.33-.81s.55.27.78.48a11.35 11.35 0 0 0 4.6 2.43c3.2 1 6-.06 8.68-1.57 4.53-2.54 7.39-6.68 10-11A99.16 99.16 0 0 1 58.92 107a23 23 0 0 1 6-4.12c3.37-1.66 6.59-1 9.76.56 3.47 1.67 4.06 3.28 3.23 7.23-1.44 6.88-8.4 12.4-15.45 12.43a12.9 12.9 0 0 1-3.34-.21c-.25-.07-.63.08-.71-.29s.24-.48.43-.67a45.59 45.59 0 0 1 4.46-3.63c.22-.17.47-.31.67-.49a6 6 0 0 1 4.08-1.56c2.41-.07 4.16-1.19 4.72-3 .14-.47.27-.92-.13-1.35s-.84-.32-1.32-.19a17.25 17.25 0 0 0-4.78 2.43 69.28 69.28 0 0 0-16.13 14.52A103.88 103.88 0 0 0 37 150.26c-1 2.15-1.51 4.59-3.12 6.42s-3.75 3.58-6.67 2.69a8.4 8.4 0 0 1-3.6-2.37 15.91 15.91 0 0 1-4-7.91 29 29 0 0 1-.93-7.78z"/><path class="cls-2" d="M29.32 16.3a2.31 2.31 0 0 1 3.12-2.39 12.09 12.09 0 0 1 5.85 4.19 81.14 81.14 0 0 1 9.1 12.9 94.65 94.65 0 0 1 4.09 8.64 1.3 1.3 0 0 1-.24 1.43 16 16 0 0 1-5.12 4.05c-.82.45-1.37 0-1.95-.42a13.9 13.9 0 0 1-4-4.86c-.71-1.2-1.35-2.44-2.07-3.64a2.44 2.44 0 0 0-3.47-1.08 16 16 0 0 0-2.37 1.39c-.52.37-.77.4-.85-.29-.57-5-1.33-10-1.7-15.08-.1-1.61-.25-3.2-.39-4.84zm35.75 17.51a6.2 6.2 0 0 0 4.17 3.29 4.5 4.5 0 0 0 2.8-.37.86.86 0 0 0 .55-.86c0-.49-.54-.44-.86-.44a4.13 4.13 0 0 1-4.36-3 5.81 5.81 0 0 1 1.32-5.82c1.46-1.57 3.53-1.11 4.58 1a13.66 13.66 0 0 1 1.33 6.63 40.77 40.77 0 0 1-10.1 25.82 25.37 25.37 0 0 1-1.92 2c-.47.47-.86.51-1.08-.27q-2-7.08-4-14.15a1.31 1.31 0 0 1 .32-1.21c1.39-1.94 2.75-3.91 4.2-5.82a35.74 35.74 0 0 0 2.65-4.81 1.37 1.37 0 0 0 0-1.17 1.51 1.51 0 0 1 .22-.71z"/><path class="cls-3" d="M35 101.71c-.11-3 1.23-5.28 2.83-7.42a10.43 10.43 0 0 1 8.48-4.46c4-.07 7.35 1.89 8.63 6.92a11.15 11.15 0 0 1-5.48 12c-1.84.93-3.75.62-5.65.45a11.89 11.89 0 0 1-6.13-2.2c-1.84-1.35-2.95-3.1-2.68-5.29zm9.19-54.47a7.09 7.09 0 0 0 2.24.26c1.53-.29 2.43.61 3.09 1.76a7.79 7.79 0 0 1-1 9.42c-1.7 2-4.39 2.43-7.11 1.5-5.27-1.8-5.28-8.6-2.39-11.49.21-.1.33 0 .44.17a1.75 1.75 0 0 1-.08 1.43 5.28 5.28 0 0 1 3.34-1.39c1 0 1.57-.23 1.26-1.36a.31.31 0 0 1 .21-.3z"/><path d="M63.4 24.53c.15-4.55 2.17-7.43 6-9.13 1.7-.75 3.13-1 4.33.72.18.26.49.43.65.7.43.75 1.64 1 1.45 2.15a11 11 0 0 1-2.13 5c-.22.28-.47.12-.74 0a4.52 4.52 0 0 0-5.72 1.53 4.26 4.26 0 0 0-.67 1c-.48 1.25-1.47.59-2.24.6s-.73-.78-.8-1.35-.11-1.04-.13-1.22z" fill="#e9415a"/><path class="cls-5" d="M78.48 5.54c1 .14 1.51.49 1.11 1.65a2.84 2.84 0 0 0 .93 3 2 2 0 0 0 2.64.09.63.63 0 0 1 .55-.15c.51.18 1.16 2.05 1 2.82s-.85 1-1.68.82c-2.74-.55-4.37-2.42-5.71-4.66a1.72 1.72 0 0 1-.35-1 .33.33 0 0 1 .34-.31 1.06 1.06 0 0 1 .36.39c.22-.49-.22-1.14.26-1.44a1.29 1.29 0 0 0 .55-1.21zm-2.59 7.63c.26.3.52.6.79.89a2.57 2.57 0 0 0 3.31.78c.53-.21 1.09-.48 1.58 0a1.66 1.66 0 0 1 .21 1.8 2.23 2.23 0 0 1-2.88 1.45 9.26 9.26 0 0 1-5.5-5.29c-.1-.19 0-.31.15-.4.5-.1.71.27.93.6a.49.49 0 0 0 .8.13.84.84 0 0 1 .31-.08.83.83 0 0 1 .3.12zm3.92-9.68c.08-.57.2-1.17 1-1.21s1.82.84 1.76 1.46A2.53 2.53 0 0 0 83.44 6c.24.23.52.47.83.42 1.7-.25 1.93 1.22 2.57 2.18a.66.66 0 0 1-.22.95 1.18 1.18 0 0 1-1.3.27 9.22 9.22 0 0 1-4.26-3.72 6.6 6.6 0 0 1-1.25-2.61z"/><path d="M44.19 47.24a3 3 0 0 0 .18.68c.48.89-.08 1.28-.78 1.24a5.27 5.27 0 0 0-4.5 2c0-.93.41-1.53.27-2.18A3.83 3.83 0 0 1 43.79 47c.21 0 .34 0 .4.24z" fill="#abeb8f"/><path class="cls-5" d="M62.22 24.91a11.05 11.05 0 0 1 .39 1.36c.18 1.12-.17 1.57-1.31 1.6a7.12 7.12 0 0 0-2.39.72c-.24.09-.52.34-.75 0s0-.46.09-.67a4.25 4.25 0 0 1 .75-1.31l.26-.18c.32-.16.67-.29 1-.48a13.33 13.33 0 0 1 1.96-1.04z"/><path d="M85.93 3.13c-.07.74-.63 1.16-1.07 1.65-.28.31-.61.77-1.06.28a.87.87 0 0 1-.09-1.27 4.55 4.55 0 0 1 1.69-1.42c.6-.01.71.26.53.76z" fill="#e44059"/><path d="M78.48 5.54c.33.52.91 1.11-.27 1.31-.48.08-.26.37-.25.62v1.74a2.29 2.29 0 0 1-.71-1.3 1.29 1.29 0 0 1-.48-1.64c.22-.73.84-.83 1.5-.8a.25.25 0 0 1 .21.07z" fill="#f27074"/><path class="cls-9" d="M63.82 32.38A2.45 2.45 0 0 1 65 29.11c.23 1.22-.3 2.36-.19 3.52-.44.37-.74.12-.99-.25z"/><path d="M62.22 24.91c-.42.78-1.27.89-2 1.25-.26.13-.41 0-.56-.22s.2-.51.29-.77c.42-.61 1.09-1 1.44-1.69.8-.09.47.66.72 1z" fill="#ee6e74"/><path d="M43.79 47a5.59 5.59 0 0 0-4.43 2l-.29-.26a4.89 4.89 0 0 1 3.16-2.15 1.37 1.37 0 0 1 1.17 0z" fill="#67dc38"/><path d="M72.48 9.19c1.35-1.15 2.16-1.12 3.4.12l-.11.14a1 1 0 0 1-.63.12 1.4 1.4 0 0 0-1.3.15 1.53 1.53 0 0 1-.41.19.93.93 0 0 1-.29 0c-.2-.05-.4 0-.6 0a.47.47 0 0 1-.06-.72z" fill="#e63f62"/><path d="M78.28 5.47c-1.53.68-1.58.8-1 2.44l-.28.24c-.1.13-.2.14-.31 0a2.13 2.13 0 0 1-.36-1.34c-.01-1.42.51-1.81 1.95-1.34z" fill="#d94362"/><path d="M72.48 9.19c0 .24 0 .5.24.64a.52.52 0 0 1 .47 0 5.22 5.22 0 0 1 .47 2.64l-.27.31c-.53-1.14-1.52-2.16-.91-3.59z" fill="#e44161"/><path d="M81.75 8.51A.78.78 0 0 1 81 9c-.63 0-.55-.63-.6-1.07 0-.24.07-.53.38-.42a2 2 0 0 1 .97 1z" fill="#d33d5e"/><path d="M78.19 11.91c0 .48-.3.59-.6.61a.62.62 0 0 1-.74-.6c0-.29.09-.66.43-.58a3.68 3.68 0 0 1 .91.57z" fill="#c93f5f"/><path d="M85.93 3.13a.78.78 0 0 0-.53-.76 3.25 3.25 0 0 1 1.18-.86c.19.76-.3 1.16-.65 1.62z" fill="#de4463"/><path d="M63.82 32.38a1.69 1.69 0 0 0 1 .25 2 2 0 0 1 .27 1.18.34.34 0 0 1-.38-.15c-.12-.15-.07-.39-.27-.49a.3.3 0 0 1-.09.47 1.94 1.94 0 0 1-.53-1.26z" fill="#936ea6"/><path class="cls-9" d="M64.28 33.67c.16-.07-.25-.93.4-.3a2.69 2.69 0 0 1 .34.47c0 .3 0 .59-.3.75a.92.92 0 0 1-.44-.92z"/><path d="M75.89 13.17h-.29a3.16 3.16 0 0 1-.24-2.41.84.84 0 0 1 .36-.49.37.37 0 0 1 .38 0 5.32 5.32 0 0 0-.21 2.9z" fill="#d53d5c"/><path d="M61.42 23.49c-.14.86-.83 1.24-1.44 1.69a4.14 4.14 0 0 1 1.44-1.69zm.72.97c-.32-.27-.24-.83-.72-1 .25-.4.51-.75.69 0a5 5 0 0 1 .03 1z" fill="#cf4865"/><path d="M60 25.17l-.22.74c0 .35-.23.53-.47.71H59c.25-.54.39-1.15 1-1.45z" fill="#d14560"/><path class="cls-22" d="M76.1 10.32h-.25a.64.64 0 0 1 0-.92l.08-.08c.25.28.58.56.17 1z"/><path d="M76.73 8.17h.31l.23 1a1.19 1.19 0 0 1-.54-1z" fill="#e1395e"/><path d="M43.4 46.55h-1.17a.81.81 0 0 1 1.17 0z" fill="#67cd37"/><path class="cls-1" d="M56.42 78.42c-.12 2.61-1 5.44-3.77 7-3.47 1.89-7.14 2.2-10.65-.09a5 5 0 0 0-1.74-.72c-6-1.19-6.91-5.21-5.84-10a12.62 12.62 0 0 1 6.76-8.92c5.59-2.8 11.59-.58 13.27 6.08a7.75 7.75 0 0 0 1.43 3.47c.67.76.48 1.76.54 3.18z"/><path d="M3.58 91.6a5.63 5.63 0 0 1 .61-2.42A30.42 30.42 0 0 1 7 84a22.68 22.68 0 0 1 4.2-4.4 10.92 10.92 0 0 1 2.44-1.22c.28-.14.68-.31.86 0s-.2.6-.47.71a10.48 10.48 0 0 0-3.65 3A22 22 0 0 0 6.93 88c-.6 1.38-1.29 2.73-2 4.07-.17.32-.41.77-.9.65s-.41-.72-.45-1.12z" fill="#bf9ec9"/><path class="cls-26" d="M53.6 117.16a4.84 4.84 0 0 1 1.4-2.09c2.52-2.86 4.82-5.91 7.7-8.46a10.64 10.64 0 0 1 5.53-2.84 8 8 0 0 1 6.41 2c.5.43.89 1.09.39 1.68a1.52 1.52 0 0 1-1.86.35 9.66 9.66 0 0 0-3.27-1.06c-3-.3-5.18 1.13-7.28 3-2.82 2.46-5.67 4.87-8.52 7.29-.04.06-.18.05-.5.13z"/><path d="M32.66 16.44c1.6.21 2.66 1.3 3.72 2.35a20.59 20.59 0 0 1 5.93 9.84c.08.34.36.84 0 1-.56.19-.51-.46-.65-.79-1.38-3.44-3.84-6.07-6.47-8.58l-2.94-2.76a.65.65 0 0 1-.21-.85.47.47 0 0 1 .62-.21z" fill="#c09fc9"/><path d="M68.94 33.23c-.85-1.58-1.19-3.2-.21-4.81a2.33 2.33 0 0 1 2.8-1.2c-.84.9-2 1.27-2.38 2.56s.06 2.32-.21 3.45z" fill="#bc97c5"/><path class="cls-1" d="M44.47 104.17c-1.41-.22-3.22-.48-4.46-2.07a2.46 2.46 0 0 1-.57-2.12c.74-3.37 5.87-5.6 8.82-3.82a4 4 0 0 1-.21 7.16 6 6 0 0 1-3.58.85z"/><path class="cls-26" d="M37.35 99.82c.35-4.88 3.19-6.88 6.75-8.35a2.28 2.28 0 0 1 .83-.07c.85 0 1.72.19 1.84 1.16s-.59 1.45-1.41 1.69-1.57.27-2.32.51c-1.87.61-3.06 2.06-4.23 3.52a6.43 6.43 0 0 1-1.46 1.54z"/><path class="cls-1" d="M40.25 54c-.14-2.82 1.5-4.12 4.06-4.17a3.48 3.48 0 0 1 3.48 3.47c.15 2.44-2.68 4.18-4.84 4.08-1.68-.05-2.72-1.32-2.7-3.38z"/><path d="M65.76 20.81c-.65-.23-.71-.6-.35-1.11a8.5 8.5 0 0 1 2.19-1.82c1-.7 2.13-1.21 3.2-1.81a1.39 1.39 0 0 1 1.82.36c.26.3.63.74.42 1.17s-.66.4-1.04.4c-1.85.15-3.31 1.25-4.88 2.07-.49.24-.93.5-1.36.74z" fill="#f27275"/><path d="M75.8 9.39v.92l-.25.26c-.88.8-.28 1.74-.25 2.62-.22.59-.52.81-1 .19-.23-.32-.29-.75-.72-.91a4.11 4.11 0 0 1-.47-2.64c.16-.08.31-.17.46-.26a12 12 0 0 0 1.46-.23z" fill="#f07174"/><path class="cls-22" d="M75.35 13.19c-.86-1.34-.78-2.13.25-2.62v2.62z"/><path d="M81.09 4.78c-.42-.38-.85-.74-.54-1.28.15-.27.77-.79.73.21a7.15 7.15 0 0 1-.19 1.07z" fill="#f17074"/><path d="M59.29 26.62c.16-.23.31-.47.47-.71l.49.25a1.27 1.27 0 0 1-.96.46z" fill="#ef7182"/><path d="M75.12 9.34c-.39.69-.94.36-1.46.23a1.08 1.08 0 0 1 1.46-.23z" fill="#e37678"/><path d="M73.19 9.82c-.16 0-.31.27-.47 0 0-.18 0-.41.29-.36.08.02.12.24.18.36z" fill="#f83054"/><path class="cls-3" d="M43.41 83.51a16.39 16.39 0 0 1-2.62-.16c-3.51-.71-5-2.28-5.24-5.8a11.27 11.27 0 0 1 9.34-12A6.35 6.35 0 0 1 51.07 68c3.07 3.48 2.74 7.35 1.29 11.23-.77 2.07-2.69 3.22-4.82 3.81a11.53 11.53 0 0 1-4.13.47z"/><path class="cls-35" d="M45.83 103.18a2.13 2.13 0 0 1-1.94-3 5.52 5.52 0 0 1 2.22-2.44 2 2 0 0 1 2.34 0 2 2 0 0 1 .75 2.42c-.72 2.1-1.72 3.02-3.37 3.02zm-2.9-48.51c0-1.44 1.31-3.06 2.47-2.92.79.1 1.07.79 1.1 1.5.07 1.33-1.07 3.09-2 3.12a1.58 1.58 0 0 1-1.57-1.7z"/><path class="cls-1" d="M44.88 79.25a5.4 5.4 0 0 1-3.21-.94c-1.56-.89-2-3.46-.72-5.09a6.05 6.05 0 0 1 6.61-2.46 3.75 3.75 0 0 1 2.08 6c-1.55 2.04-2.39 2.5-4.76 2.49z"/><path class="cls-26" d="M44.32 69.64a8.54 8.54 0 0 0-4 2.44 15.26 15.26 0 0 0-1.16 1.37c-.15.18-.24.45-.54.34s-.26-.39-.22-.61a8.6 8.6 0 0 1 1.15-3.25 6.66 6.66 0 0 1 5-3.12 3.8 3.8 0 0 1 .82-.08c.9 0 1.78.86 1.72 1.54-.09.86-1.09 1.4-2.77 1.37z"/><path class="cls-35" d="M49.41 74.3c0 1.6-2.22 3.87-3.55 3.84a2.07 2.07 0 0 1-1.9-2.3 5.12 5.12 0 0 1 1.59-3c.75-.7 1.56-1.28 2.65-.83s1.11 1.53 1.21 2.29z"/></g></g></g></svg>