<?xml version="1.0" encoding="UTF-8" standalone="no"?>
<!DOCTYPE svg PUBLIC "-//W3C//DTD SVG 1.1//EN" "http://www.w3.org/Graphics/SVG/1.1/DTD/svg11.dtd">
<svg version="1.1" xmlns="http://www.w3.org/2000/svg" xmlns:xlink="http://www.w3.org/1999/xlink" preserveAspectRatio="xMidYMid meet" viewBox="101.83300611263574 251.89734899544467 451.2801815577134 359.99742322055" width="300" height="238.77"><defs><path d="M313.09 253.02C335.18 252.55 335.82 253.44 357.26 255.77C378.7 258.1 403.22 262.88 414.28 266.21C429.61 270.87 444.81 277.01 458.41 285.67C478.67 297.8 495.06 316.33 504.26 338.19C509.06 350.19 513.46 363.12 511.73 376.32C510.13 392.98 507.73 409.64 504.39 426.04C496.66 462.96 476 497.89 444.41 518.95C422.68 533.21 397.62 541.21 372.03 545.34C345.77 549.74 318.97 549.87 292.45 548.14C267.12 546.41 241.79 542.01 218.33 532.14C195.4 522.28 175.41 504.02 166.88 480.16C165.68 477.22 165.54 473.63 162.61 471.76C142.48 453.9 129.82 429.1 124.09 403.11C119.29 379.65 123.42 354.59 134.62 333.53C146.62 311 167.14 294.47 189.54 283.01C206.07 275.01 223.53 269.01 241.26 264.61C238 262.32 291 253.49 313.09 253.02Z" id="an6E2MIqB"></path><path d="M336.57 258.34C353.1 258.61 369.63 261.14 385.89 263.81C413.62 268.88 441.08 277.94 464 294.6C486.93 311.13 502.93 336.86 507.73 364.72C507.86 386.71 504.26 409.24 494.53 429.1C487.73 443.63 477.47 456.43 465.2 466.83C448.54 480.42 428.95 490.15 408.42 496.42C387.36 503.35 365.23 506.55 343.23 508.82C317.37 511.35 291.25 511.22 265.52 508.15C239.93 505.08 214.47 498.95 191.8 486.69C173.01 476.69 156.35 462.29 145.15 444.03C138.75 433.77 134.08 422.57 130.49 410.97C128.35 402.44 125.55 393.64 126.35 384.58C126.09 367.92 130.35 351.52 137.82 336.59C150.88 311.93 174.21 294.6 199.14 283.14C230.59 269.54 264.59 262.48 298.44 258.88C311.11 257.28 323.91 257.41 336.57 258.34Z" id="aVACzhqmK"></path><path d="M383.36 282.34C406.29 286.47 429.75 293.94 447.08 310.2C458.14 320.46 465.74 334.19 469.34 348.72C470.8 356.45 473.74 364.59 470.8 372.45C466 394.31 454.27 414.71 437.48 429.5C419.75 444.83 397.62 454.16 374.96 459.1C360.16 462.83 344.97 464.29 329.77 465.23C320.44 465.89 311.24 464.43 302.04 463.89C271.52 460.56 240.46 456.43 212.2 443.77C195.94 436.57 180.61 425.37 172.08 409.24C164.34 393.91 164.34 375.38 169.94 359.25C175.81 342.06 188.74 328.33 203.8 318.6C225.66 303.8 251.12 295.8 276.45 289.67C294.31 285.4 312.31 282.61 330.44 280.21C348.03 278.07 365.89 279.67 383.36 282.34Z" id="b5205Cj1A"></path><path d="M359.23 283.94C384.96 285.94 411.48 290.74 433.48 305C453.87 318.2 466.54 341.52 467.74 365.65C465.87 374.85 463.6 384.31 459.47 392.98C459.07 393.24 458.27 393.91 457.87 394.31C457.74 377.25 445.34 363.79 432.55 354.19C408.95 338.32 380.42 332.86 352.7 329.93C324.04 328.06 294.98 330.86 267.25 338.32C245.12 344.06 223.26 354.32 207.53 371.52C200.34 378.85 195.67 388.18 192.07 397.64C189 405.64 188.07 414.84 191.54 422.97C191.4 423.77 191.14 425.24 191.14 425.9C181.54 417.64 173.81 406.71 171.54 394.18C167.81 376.45 172.48 357.65 183.27 343.26C190.74 334.46 199 325.79 209.27 320.2C221.26 312.06 234.86 306.87 248.19 301.53C272.98 294.2 298.44 288.34 324.17 285.4C335.64 282.61 347.5 283.8 359.23 283.94Z" id="cnqoJE91Z"></path><path d="M352.7 329.93C380.42 332.86 408.95 338.32 432.55 354.19C445.34 363.79 457.74 377.25 457.87 394.31C457.74 395.78 457.34 397.11 456.94 398.44C444.28 420.97 423.35 438.7 398.95 446.97C390.02 451.63 380.02 452.96 370.69 455.76C357.76 459.36 344.43 459.9 331.24 461.63C324.57 461.09 317.77 462.43 311.24 460.56C286.05 459.36 261.12 454.43 236.59 448.3C228.73 446.57 221.8 442.03 214.07 440.17C207.53 436.7 201.27 432.84 195 428.97C193.67 426.97 193.14 424.7 191.54 422.97C188.07 414.84 189 405.64 192.07 397.64C195.67 388.18 200.34 378.85 207.53 371.52C223.26 354.32 245.12 344.06 267.25 338.32C294.98 330.86 324.04 328.06 352.7 329.93Z" id="a8fZd6kugH"></path><path d="M510.99 376.32C516.99 381.25 524.86 386.45 529.66 392.58C543.13 408.57 550.06 429.37 550.06 450.03C550.59 475.49 547.39 501.88 534.99 524.68C525.4 542.54 510.56 556.65 494.6 569.07C478.65 581.49 406.14 605.61 376.01 606.67C337.21 609.96 323.68 609.29 293.59 606.67C279.75 605.47 266.29 601.85 235.47 592.93C204.65 584 187.75 580 165.75 568.67C147.36 559.2 129.63 547.07 117.63 530.01C107.23 515.48 101.9 497.35 102.97 479.36C105.23 452.96 111.23 426.04 125.23 403.11C130.96 429.1 143.62 453.9 163.75 471.76C166.68 473.63 166.82 477.22 168.02 480.16C176.55 504.02 196.54 522.28 219.47 532.14C242.93 542.01 268.26 546.41 293.59 548.14C320.11 549.87 346.91 549.74 373.17 545.34C398.76 541.21 423.82 531.8 445.55 517.54C477.14 496.48 496.4 462.83 504.13 425.9C507.46 409.51 509.39 392.98 510.99 376.32Z" id="a1bBo3Wcg"></path></defs><g><g><use xlink:href="#an6E2MIqB" opacity="1" fill="#016d01" fill-opacity="1"></use><g><use xlink:href="#an6E2MIqB" opacity="1" fill-opacity="0" stroke="#016d01" stroke-width="0.09" stroke-opacity="1"></use></g></g><g><use xlink:href="#aVACzhqmK" opacity="1" fill="#00cf39" fill-opacity="1"></use><g><use xlink:href="#aVACzhqmK" opacity="1" fill-opacity="0" stroke="#00cf39" stroke-width="0.09" stroke-opacity="1"></use></g></g><g><use xlink:href="#b5205Cj1A" opacity="1" fill="#016d01" fill-opacity="1"></use><g><use xlink:href="#b5205Cj1A" opacity="1" fill-opacity="0" stroke="#016d01" stroke-width="0.09" stroke-opacity="1"></use></g></g><g><use xlink:href="#cnqoJE91Z" opacity="1" fill="#0f3401" fill-opacity="1"></use><g><use xlink:href="#cnqoJE91Z" opacity="1" fill-opacity="0" stroke="#0f3401" stroke-width="0.09" stroke-opacity="1"></use></g></g><g><use xlink:href="#a8fZd6kugH" opacity="1" fill="#008d00" fill-opacity="1"></use><g><use xlink:href="#a8fZd6kugH" opacity="1" fill-opacity="0" stroke="#008d00" stroke-width="0.09" stroke-opacity="1"></use></g></g><g><use xlink:href="#a1bBo3Wcg" opacity="1" fill="#680677" fill-opacity="1"></use><g><use xlink:href="#a1bBo3Wcg" opacity="1" fill-opacity="0" stroke="#680677" stroke-width="0.09" stroke-opacity="1"></use></g></g></g></svg>