<svg xmlns="http://www.w3.org/2000/svg" xmlns:xlink="http://www.w3.org/1999/xlink" viewBox="0 0 1160 340"><defs><style>.cls-1{fill:none;}.cls-2{isolation:isolate;}.cls-3{opacity:0.25;mix-blend-mode:multiply;}.cls-4{clip-path:url(#clip-path);}.cls-5{clip-path:url(#clip-path-2);}.cls-6{clip-path:url(#clip-path-3);}.cls-7{clip-path:url(#clip-path-4);}.cls-8{clip-path:url(#clip-path-5);}.cls-9{clip-path:url(#clip-path-6);}.cls-10{clip-path:url(#clip-path-7);}.cls-11{clip-path:url(#clip-path-8);}.cls-12{clip-path:url(#clip-path-9);}.cls-13{clip-path:url(#clip-path-10);}.cls-14{clip-path:url(#clip-path-11);}.cls-15{clip-path:url(#clip-path-12);}.cls-16{clip-path:url(#clip-path-13);}.cls-17{clip-path:url(#clip-path-14);}.cls-18{clip-path:url(#clip-path-15);}.cls-19{clip-path:url(#clip-path-16);}.cls-20{clip-path:url(#clip-path-17);}.cls-21{clip-path:url(#clip-path-18);}.cls-22{clip-path:url(#clip-path-19);}.cls-23{clip-path:url(#clip-path-20);}.cls-24{clip-path:url(#clip-path-21);}.cls-25{clip-path:url(#clip-path-22);}.cls-26{clip-path:url(#clip-path-23);}.cls-27{clip-path:url(#clip-path-24);}.cls-28{clip-path:url(#clip-path-25);}.cls-29{clip-path:url(#clip-path-26);}.cls-30{clip-path:url(#clip-path-27);}.cls-31{fill:#3a3a3a;}.cls-32{fill:#b5b5b5;}.cls-33{clip-path:url(#clip-path-28);}.cls-34{fill:#2b7629;}.cls-35{fill:#2c7a2a;}.cls-36{fill:#2e7f2c;}.cls-37{fill:#30832d;}.cls-38{clip-path:url(#clip-path-29);}.cls-39{clip-path:url(#clip-path-30);}.cls-40{fill:#2f822d;}.cls-41{clip-path:url(#clip-path-31);}.cls-42{fill:#297127;}.cls-43{clip-path:url(#clip-path-32);}.cls-44{clip-path:url(#clip-path-33);}.cls-45{clip-path:url(#clip-path-34);}.cls-46{clip-path:url(#clip-path-35);}.cls-47{clip-path:url(#clip-path-36);}.cls-48{fill:#4acb46;}.cls-49{clip-path:url(#clip-path-37);}.cls-50{clip-path:url(#clip-path-38);}.cls-51{clip-path:url(#clip-path-39);}.cls-52{clip-path:url(#clip-path-40);}.cls-53{clip-path:url(#clip-path-41);}.cls-54{clip-path:url(#clip-path-42);}.cls-55{clip-path:url(#clip-path-43);}.cls-56{clip-path:url(#clip-path-44);}.cls-57{clip-path:url(#clip-path-45);}.cls-58{clip-path:url(#clip-path-46);}.cls-59{clip-path:url(#clip-path-47);}.cls-60{clip-path:url(#clip-path-48);}.cls-61{clip-path:url(#clip-path-49);}.cls-62{clip-path:url(#clip-path-50);}.cls-63{clip-path:url(#clip-path-51);}.cls-64{fill:#2c792a;}.cls-65{clip-path:url(#clip-path-52);}.cls-66{clip-path:url(#clip-path-53);}.cls-67{clip-path:url(#clip-path-54);}</style><clipPath id="clip-path"><path class="cls-1" d="M641.6,220.16v8.68q0-4.56-.34-8.79a34,34,0,0,0-1.32-7.49,15.92,15.92,0,0,0-2.54-5.21,5,5,0,0,0-4.2-1.95c-3.83,0-6.26,1-7.29,3.14a14,14,0,0,0-1.55,6.19v-8.68a14,14,0,0,1,1.55-6.19q1.55-3.15,7.29-3.15a5.07,5.07,0,0,1,4.2,1.95,16,16,0,0,1,2.54,5.21,34.19,34.19,0,0,1,1.32,7.49C641.49,214.18,641.6,217.12,641.6,220.16Z"/></clipPath><clipPath id="clip-path-2"><path class="cls-1" d="M583.88,226.37v8.68q0-6.59,0-12.83-.12-12.48-.45-24.64t-1-25.4v-8.69q.68,13.24,1,25.41t.45,24.64Q583.88,219.78,583.88,226.37Z"/></clipPath><clipPath id="clip-path-3"><path class="cls-1" d="M700.36,213.21v8.68q0-8.89-2.54-12.7a8.14,8.14,0,0,0-7.18-3.79q-7.51,0-9.28,10.2t-1.77,31V238q0-20.82,1.77-31t9.28-10.2a8.15,8.15,0,0,1,7.18,3.8Q700.36,204.31,700.36,213.21Z"/></clipPath><clipPath id="clip-path-4"><path class="cls-1" d="M692.36,272.1v-8.68a3.72,3.72,0,0,0,3.38,3.7v8.69A3.73,3.73,0,0,1,692.36,272.1Z"/></clipPath><clipPath id="clip-path-5"><path class="cls-1" d="M623.13,265.68v8.68a4.44,4.44,0,0,1-4.34,4.26v-8.69A4.42,4.42,0,0,0,623.13,265.68Z"/></clipPath><clipPath id="clip-path-6"><path class="cls-1" d="M588,270.45v8.68a4.15,4.15,0,0,1-4.24-4.12v-8.68A4.16,4.16,0,0,0,588,270.45Z"/></clipPath><clipPath id="clip-path-7"><path class="cls-1" d="M737.91,221v8.68a188.54,188.54,0,0,1-1.65,24.52c-.32,2.4-.64,4.81-1,7.2-.42,2.85-.78,5.66-1,8.54-.15,1.87-.34,3.74-.66,5.6-.22,1.24-.16,3.06-1.07,4.06a2,2,0,0,1-1.53.6,17.87,17.87,0,0,1-2.11-.29c-1.91-.21-3.81-.63-5.72-.85-3.17-.36-6.34-.69-9.5-1.08l-14.93-1.83V267.5l14.93,1.83c3.16.39,6.33.72,9.5,1.08,1.91.22,3.81.64,5.72.85a17.87,17.87,0,0,0,2.11.29,1.93,1.93,0,0,0,1.53-.61c.91-1,.85-2.82,1.07-4.05.32-1.86.51-3.73.66-5.6.25-2.88.61-5.69,1-8.54.35-2.4.67-4.8,1-7.2A188.66,188.66,0,0,0,737.91,221Z"/></clipPath><clipPath id="clip-path-8"><path class="cls-1" d="M640.87,276.48V267.8a4.18,4.18,0,0,0,4.16,4.11v8.68A4.18,4.18,0,0,1,640.87,276.48Z"/></clipPath><clipPath id="clip-path-9"><path class="cls-1" d="M680.93,271v8.68a1.35,1.35,0,0,1-1.17,1.54,8.85,8.85,0,0,1-1.87.18c-1.27,0-2.59-.18-3.77-.21l-8.75-.18-9.27-.2v-8.68l9.27.19,8.75.19c1.18,0,2.5.21,3.77.21a8.85,8.85,0,0,0,1.87-.18A1.35,1.35,0,0,0,680.93,271Z"/></clipPath><clipPath id="clip-path-10"><path class="cls-1" d="M474.8,220.16v8.68q0-4.56-.33-8.79a34.54,34.54,0,0,0-1.33-7.49,15.92,15.92,0,0,0-2.53-5.21,5.06,5.06,0,0,0-4.2-1.95c-3.83,0-6.26,1-7.29,3.14a14,14,0,0,0-1.55,6.19v-8.68a14,14,0,0,1,1.55-6.19q1.54-3.15,7.29-3.15a5.09,5.09,0,0,1,4.2,1.95,16,16,0,0,1,2.53,5.21,34.76,34.76,0,0,1,1.33,7.49C474.69,214.18,474.8,217.12,474.8,220.16Z"/></clipPath><clipPath id="clip-path-11"><path class="cls-1" d="M417.09,226.37v8.68q0-6.59,0-12.83-.12-12.48-.44-24.64t-1-25.39V163.5q.66,13.25,1,25.4t.44,24.64Q417.09,219.78,417.09,226.37Z"/></clipPath><clipPath id="clip-path-12"><path class="cls-1" d="M533.57,213.21v8.68c0-5.93-.86-10.17-2.55-12.7a8.13,8.13,0,0,0-7.17-3.79q-7.51,0-9.28,10.2t-1.77,31V238q0-20.82,1.77-31t9.28-10.2a8.13,8.13,0,0,1,7.17,3.8C532.71,203,533.57,207.28,533.57,213.21Z"/></clipPath><clipPath id="clip-path-13"><path class="cls-1" d="M525.57,272.12v-8.69a3.73,3.73,0,0,0,3.38,3.7v8.68A3.72,3.72,0,0,1,525.57,272.12Z"/></clipPath><clipPath id="clip-path-14"><path class="cls-1" d="M456.33,265.68v8.68a4.43,4.43,0,0,1-4.34,4.26v-8.69A4.41,4.41,0,0,0,456.33,265.68Z"/></clipPath><clipPath id="clip-path-15"><path class="cls-1" d="M421.18,270.45v8.68a4.16,4.16,0,0,1-4.25-4.12v-8.68A4.17,4.17,0,0,0,421.18,270.45Z"/></clipPath><clipPath id="clip-path-16"><path class="cls-1" d="M571.13,221v8.68a187,187,0,0,1-1.67,24.53q-1.73,13.06-4.08,26.05v-8.68q2.36-13,4.08-26.05A187.27,187.27,0,0,0,571.13,221Z"/></clipPath><clipPath id="clip-path-17"><path class="cls-1" d="M474.08,276.48V267.8a4.16,4.16,0,0,0,4.09,4.11v8.68A4.16,4.16,0,0,1,474.08,276.48Z"/></clipPath><clipPath id="clip-path-18"><path class="cls-1" d="M361.35,223.27V232q0-10-.1-17.42t-.44-14.36q-.35-7-.9-14.59t-1.21-18.07v-8.69q.66,10.45,1.21,18.07t.9,14.59c.21,4.65.36,9.43.44,14.37S361.35,216.59,361.35,223.27Z"/></clipPath><clipPath id="clip-path-19"><path class="cls-1" d="M334.79,166v8.69a4,4,0,0,1-.06.67c-.07.44-1.51,8.91-2.4,15.88q-1.11,9.15-2.21,20a210.89,210.89,0,0,0-1.11,22v-8.68a210.89,210.89,0,0,1,1.11-22q1.1-10.89,2.21-20c.89-7,2.33-15.44,2.4-15.88A4,4,0,0,0,334.79,166Z"/></clipPath><clipPath id="clip-path-20"><path class="cls-1" d="M364.73,266.46v8.69c0-1.11-.22-2.11-1-2.38a1,1,0,0,0-.37-.07c-1.26,0-2.67,1.84-3.52,2.47a42.19,42.19,0,0,1-6.75,4,40,40,0,0,1-7.65,2.72,32.09,32.09,0,0,1-7.75,1q-13.08,0-22.49-3.57a39,39,0,0,1-15.39-10.16,41.59,41.59,0,0,1-8.87-16A72.67,72.67,0,0,1,288,232v-8.68a72.72,72.72,0,0,0,2.88,21.18,41.67,41.67,0,0,0,8.87,16,39,39,0,0,0,15.39,10.16q9.42,3.57,22.49,3.56a32.06,32.06,0,0,0,7.75-1,40.73,40.73,0,0,0,7.65-2.72,42.94,42.94,0,0,0,6.75-4c.85-.63,2.26-2.47,3.52-2.47a1.19,1.19,0,0,1,.37.06C364.51,264.36,364.73,265.36,364.73,266.46Z"/></clipPath><clipPath id="clip-path-21"><path class="cls-1" d="M368.72,273.89v8.69a4.16,4.16,0,0,1-4.27-4.11v-8.68A4.15,4.15,0,0,0,368.72,273.89Z"/></clipPath><clipPath id="clip-path-22"><path class="cls-1" d="M253.27,205.25v8.68a4.53,4.53,0,0,1-1.1.13,5.24,5.24,0,0,1-4.71-3,22.29,22.29,0,0,0-4.39-6.14q-4.53-4.56-13.81-4.56a15.68,15.68,0,0,0-6.29,1.41,17.28,17.28,0,0,0-5.74,4.13v-8.69a17.39,17.39,0,0,1,5.74-4.12,15.53,15.53,0,0,1,6.29-1.42q9.28,0,13.81,4.57a22.29,22.29,0,0,1,4.39,6.14,5.26,5.26,0,0,0,4.71,3A4.53,4.53,0,0,0,253.27,205.25Z"/></clipPath><clipPath id="clip-path-23"><path class="cls-1" d="M217.23,197.25v8.69a21.33,21.33,0,0,0-4.2,6.84,26,26,0,0,0-1.66,9.77v-8.69A26,26,0,0,1,213,204.1,21.49,21.49,0,0,1,217.23,197.25Z"/></clipPath><clipPath id="clip-path-24"><path class="cls-1" d="M278.58,233.17v8.68a3.9,3.9,0,0,1-.19,1.2c-.14.46-2.85,9.23-6.16,14.44a50,50,0,0,1-11.59,12.92A46.76,46.76,0,0,1,246.06,278a54.7,54.7,0,0,1-16.36,2.5q-14.79,0-25.4-4.56a49.79,49.79,0,0,1-17.56-12.26,48.83,48.83,0,0,1-10.27-17.91,68.8,68.8,0,0,1-3.31-21.5v-8.68a68.8,68.8,0,0,0,3.31,21.5A48.92,48.92,0,0,0,186.74,255a49.79,49.79,0,0,0,17.56,12.26q10.6,4.56,25.4,4.56a54.7,54.7,0,0,0,16.36-2.5,47.18,47.18,0,0,0,14.58-7.59,50.2,50.2,0,0,0,11.59-12.92c3.31-5.21,6-14,6.16-14.45A3.79,3.79,0,0,0,278.58,233.17Z"/></clipPath><clipPath id="clip-path-25"><path class="cls-1" d="M150,165.22v8.68a3.69,3.69,0,0,1-3.08,1.73,3.76,3.76,0,0,1-2.47-.95,69.25,69.25,0,0,0-6.75-5,98,98,0,0,0-10.43-5.77,59.49,59.49,0,0,0-9.53-3.59,30.71,30.71,0,0,0-7.76-1.2c-2.66,0-4.62.66-5.87,2a6.93,6.93,0,0,0-1.89,5v-8.68a6.92,6.92,0,0,1,1.89-5q1.88-2,5.87-2a30.65,30.65,0,0,1,7.76,1.19,60.57,60.57,0,0,1,9.53,3.6A98,98,0,0,1,137.7,161a69.25,69.25,0,0,1,6.75,5,3.75,3.75,0,0,0,2.47.94A3.68,3.68,0,0,0,150,165.22Z"/></clipPath><clipPath id="clip-path-26"><path class="cls-1" d="M116,231.29V240q0-4.14-4.55-7.84a95.29,95.29,0,0,0-11.31-7.74c-4.51-2.69-9.39-5.58-14.63-8.71a86,86,0,0,1-14.64-11,59.1,59.1,0,0,1-11.31-14.49A38.28,38.28,0,0,1,55,171.33v-8.68a38.24,38.24,0,0,0,4.54,18.85A59,59,0,0,0,70.84,196a85.39,85.39,0,0,0,14.64,11l14.63,8.72a96.54,96.54,0,0,1,11.31,7.73Q116,227.16,116,231.29Z"/></clipPath><clipPath id="clip-path-27"><path class="cls-1" d="M163.64,226.72v8.68q0,11.76-5,20.37a43.75,43.75,0,0,1-13,14.16,57.78,57.78,0,0,1-18.07,8.29,78.23,78.23,0,0,1-20.29,2.72q-20.4,0-34.26-7.41T48.12,251.09V242.4q11.09,15,24.94,22.44t34.26,7.41a77.8,77.8,0,0,0,20.29-2.72,57.53,57.53,0,0,0,18.07-8.28,43.68,43.68,0,0,0,13-14.17Q163.64,238.49,163.64,226.72Z"/></clipPath><clipPath id="clip-path-28"><path class="cls-1" d="M636.6,215.16v8.68q0-4.56-.34-8.79a34,34,0,0,0-1.32-7.49,15.92,15.92,0,0,0-2.54-5.21,5,5,0,0,0-4.2-1.95c-3.83,0-6.26,1-7.29,3.14a14,14,0,0,0-1.55,6.19v-8.68a14,14,0,0,1,1.55-6.19q1.55-3.15,7.29-3.15a5.07,5.07,0,0,1,4.2,1.95,16,16,0,0,1,2.54,5.21,34.19,34.19,0,0,1,1.32,7.49C636.49,209.18,636.6,212.12,636.6,215.16Z"/></clipPath><clipPath id="clip-path-29"><path class="cls-1" d="M578.88,221.37v8.68q0-6.59,0-12.83-.12-12.48-.45-24.64t-1-25.4v-8.69q.68,13.24,1,25.41t.45,24.64Q578.88,214.78,578.88,221.37Z"/></clipPath><clipPath id="clip-path-30"><path class="cls-1" d="M695.36,208.21v8.68q0-8.89-2.54-12.7a8.14,8.14,0,0,0-7.18-3.79q-7.51,0-9.28,10.2t-1.77,31V233q0-20.82,1.77-31t9.28-10.2a8.15,8.15,0,0,1,7.18,3.8Q695.36,199.31,695.36,208.21Z"/></clipPath><clipPath id="clip-path-31"><path class="cls-1" d="M687.36,267.1v-8.68a3.72,3.72,0,0,0,3.38,3.7v8.69A3.73,3.73,0,0,1,687.36,267.1Z"/></clipPath><clipPath id="clip-path-32"><path class="cls-1" d="M618.13,260.68v8.68a4.44,4.44,0,0,1-4.34,4.26v-8.69A4.42,4.42,0,0,0,618.13,260.68Z"/></clipPath><clipPath id="clip-path-33"><path class="cls-1" d="M583,265.45v8.68a4.15,4.15,0,0,1-4.24-4.12v-8.68A4.16,4.16,0,0,0,583,265.45Z"/></clipPath><clipPath id="clip-path-34"><path class="cls-1" d="M732.91,216v8.68a188.54,188.54,0,0,1-1.65,24.52c-.32,2.4-.64,4.81-1,7.2-.42,2.85-.78,5.66-1,8.54-.15,1.87-.34,3.74-.66,5.6-.22,1.24-.16,3.06-1.07,4.06a2,2,0,0,1-1.53.6,17.87,17.87,0,0,1-2.11-.29c-1.91-.21-3.81-.63-5.72-.85-3.17-.36-6.34-.69-9.5-1.08l-14.93-1.83V262.5l14.93,1.83c3.16.39,6.33.72,9.5,1.08,1.91.22,3.81.64,5.72.85a17.87,17.87,0,0,0,2.11.29,1.93,1.93,0,0,0,1.53-.61c.91-1,.85-2.82,1.07-4.05.32-1.86.51-3.73.66-5.6.25-2.88.61-5.69,1-8.54.35-2.4.67-4.8,1-7.2A188.66,188.66,0,0,0,732.91,216Z"/></clipPath><clipPath id="clip-path-35"><path class="cls-1" d="M635.87,271.48V262.8a4.18,4.18,0,0,0,4.16,4.11v8.68A4.18,4.18,0,0,1,635.87,271.48Z"/></clipPath><clipPath id="clip-path-36"><path class="cls-1" d="M675.93,266v8.68a1.35,1.35,0,0,1-1.17,1.54,8.85,8.85,0,0,1-1.87.18c-1.27,0-2.59-.18-3.77-.21l-8.75-.18-9.27-.2v-8.68l9.27.19,8.75.19c1.18,0,2.5.21,3.77.21a8.85,8.85,0,0,0,1.87-.18A1.35,1.35,0,0,0,675.93,266Z"/></clipPath><clipPath id="clip-path-37"><path class="cls-1" d="M469.8,215.16v8.68q0-4.56-.33-8.79a34.54,34.54,0,0,0-1.33-7.49,15.92,15.92,0,0,0-2.53-5.21,5.06,5.06,0,0,0-4.2-1.95c-3.83,0-6.26,1-7.29,3.14a14,14,0,0,0-1.55,6.19v-8.68a14,14,0,0,1,1.55-6.19q1.54-3.15,7.29-3.15a5.09,5.09,0,0,1,4.2,1.95,16,16,0,0,1,2.53,5.21,34.76,34.76,0,0,1,1.33,7.49C469.69,209.18,469.8,212.12,469.8,215.16Z"/></clipPath><clipPath id="clip-path-38"><path class="cls-1" d="M412.09,221.37v8.68q0-6.59,0-12.83-.12-12.48-.44-24.64t-1-25.39V158.5q.66,13.25,1,25.4t.44,24.64Q412.09,214.78,412.09,221.37Z"/></clipPath><clipPath id="clip-path-39"><path class="cls-1" d="M528.57,208.21v8.68c0-5.93-.86-10.17-2.55-12.7a8.13,8.13,0,0,0-7.17-3.79q-7.51,0-9.28,10.2t-1.77,31V233q0-20.82,1.77-31t9.28-10.2a8.13,8.13,0,0,1,7.17,3.8C527.71,198,528.57,202.28,528.57,208.21Z"/></clipPath><clipPath id="clip-path-40"><path class="cls-1" d="M520.57,267.12v-8.69a3.73,3.73,0,0,0,3.38,3.7v8.68A3.72,3.72,0,0,1,520.57,267.12Z"/></clipPath><clipPath id="clip-path-41"><path class="cls-1" d="M451.33,260.68v8.68a4.43,4.43,0,0,1-4.34,4.26v-8.69A4.41,4.41,0,0,0,451.33,260.68Z"/></clipPath><clipPath id="clip-path-42"><path class="cls-1" d="M416.18,265.45v8.68a4.16,4.16,0,0,1-4.25-4.12v-8.68A4.17,4.17,0,0,0,416.18,265.45Z"/></clipPath><clipPath id="clip-path-43"><path class="cls-1" d="M566.13,216v8.68a187,187,0,0,1-1.67,24.53q-1.73,13.06-4.08,26.05v-8.68q2.36-13,4.08-26.05A187.27,187.27,0,0,0,566.13,216Z"/></clipPath><clipPath id="clip-path-44"><path class="cls-1" d="M469.08,271.48V262.8a4.16,4.16,0,0,0,4.09,4.11v8.68A4.16,4.16,0,0,1,469.08,271.48Z"/></clipPath><clipPath id="clip-path-45"><path class="cls-1" d="M356.35,218.27V227q0-10-.1-17.42t-.44-14.36q-.35-7-.9-14.59t-1.21-18.07v-8.69q.66,10.45,1.21,18.07t.9,14.59c.21,4.65.36,9.43.44,14.37S356.35,211.59,356.35,218.27Z"/></clipPath><clipPath id="clip-path-46"><path class="cls-1" d="M329.79,161v8.69a4,4,0,0,1-.06.67c-.07.44-1.51,8.91-2.4,15.88q-1.11,9.15-2.21,20a210.89,210.89,0,0,0-1.11,22v-8.68a210.89,210.89,0,0,1,1.11-22q1.1-10.89,2.21-20c.89-7,2.33-15.44,2.4-15.88A4,4,0,0,0,329.79,161Z"/></clipPath><clipPath id="clip-path-47"><path class="cls-1" d="M359.73,261.46v8.69c0-1.11-.22-2.11-1-2.38a1,1,0,0,0-.37-.07c-1.26,0-2.67,1.84-3.52,2.47a42.19,42.19,0,0,1-6.75,4,40,40,0,0,1-7.65,2.72,32.09,32.09,0,0,1-7.75,1q-13.08,0-22.49-3.57a39,39,0,0,1-15.39-10.16,41.59,41.59,0,0,1-8.87-16A72.67,72.67,0,0,1,283,227v-8.68a72.72,72.72,0,0,0,2.88,21.18,41.67,41.67,0,0,0,8.87,16,39,39,0,0,0,15.39,10.16q9.42,3.57,22.49,3.56a32.06,32.06,0,0,0,7.75-1,40.73,40.73,0,0,0,7.65-2.72,42.94,42.94,0,0,0,6.75-4c.85-.63,2.26-2.47,3.52-2.47a1.19,1.19,0,0,1,.37.06C359.51,259.36,359.73,260.36,359.73,261.46Z"/></clipPath><clipPath id="clip-path-48"><path class="cls-1" d="M363.72,268.89v8.69a4.16,4.16,0,0,1-4.27-4.11v-8.68A4.15,4.15,0,0,0,363.72,268.89Z"/></clipPath><clipPath id="clip-path-49"><path class="cls-1" d="M248.27,200.25v8.68a4.53,4.53,0,0,1-1.1.13,5.24,5.24,0,0,1-4.71-3,22.29,22.29,0,0,0-4.39-6.14q-4.53-4.56-13.81-4.56a15.68,15.68,0,0,0-6.29,1.41,17.28,17.28,0,0,0-5.74,4.13v-8.69a17.39,17.39,0,0,1,5.74-4.12,15.53,15.53,0,0,1,6.29-1.42q9.28,0,13.81,4.57a22.29,22.29,0,0,1,4.39,6.14,5.26,5.26,0,0,0,4.71,3A4.53,4.53,0,0,0,248.27,200.25Z"/></clipPath><clipPath id="clip-path-50"><path class="cls-1" d="M212.23,192.25v8.69a21.33,21.33,0,0,0-4.2,6.84,26,26,0,0,0-1.66,9.77v-8.69A26,26,0,0,1,208,199.1,21.49,21.49,0,0,1,212.23,192.25Z"/></clipPath><clipPath id="clip-path-51"><path class="cls-1" d="M273.58,228.17v8.68a3.9,3.9,0,0,1-.19,1.2c-.14.46-2.85,9.23-6.16,14.44a50,50,0,0,1-11.59,12.92A46.76,46.76,0,0,1,241.06,273a54.7,54.7,0,0,1-16.36,2.5q-14.79,0-25.4-4.56a49.79,49.79,0,0,1-17.56-12.26,48.83,48.83,0,0,1-10.27-17.91,68.8,68.8,0,0,1-3.31-21.5v-8.68a68.8,68.8,0,0,0,3.31,21.5A48.92,48.92,0,0,0,181.74,250a49.79,49.79,0,0,0,17.56,12.26q10.6,4.56,25.4,4.56a54.7,54.7,0,0,0,16.36-2.5,47.18,47.18,0,0,0,14.58-7.59,50.2,50.2,0,0,0,11.59-12.92c3.31-5.21,6-14,6.16-14.45A3.79,3.79,0,0,0,273.58,228.17Z"/></clipPath><clipPath id="clip-path-52"><path class="cls-1" d="M145,160.22v8.68a3.69,3.69,0,0,1-3.08,1.73,3.76,3.76,0,0,1-2.47-.95,69.25,69.25,0,0,0-6.75-5,98,98,0,0,0-10.43-5.77,59.49,59.49,0,0,0-9.53-3.59,30.71,30.71,0,0,0-7.76-1.2c-2.66,0-4.62.66-5.87,2a6.93,6.93,0,0,0-1.89,5v-8.68a6.92,6.92,0,0,1,1.89-5q1.88-2,5.87-2a30.65,30.65,0,0,1,7.76,1.19,60.57,60.57,0,0,1,9.53,3.6A98,98,0,0,1,132.7,156a69.25,69.25,0,0,1,6.75,5,3.75,3.75,0,0,0,2.47.94A3.68,3.68,0,0,0,145,160.22Z"/></clipPath><clipPath id="clip-path-53"><path class="cls-1" d="M111,226.29V235q0-4.14-4.55-7.84a95.29,95.29,0,0,0-11.31-7.74c-4.51-2.69-9.39-5.58-14.63-8.71a86,86,0,0,1-14.64-11,59.1,59.1,0,0,1-11.31-14.49A38.28,38.28,0,0,1,50,166.33v-8.68a38.24,38.24,0,0,0,4.54,18.85A59,59,0,0,0,65.84,191a85.39,85.39,0,0,0,14.64,11l14.63,8.72a96.54,96.54,0,0,1,11.31,7.73Q111,222.16,111,226.29Z"/></clipPath><clipPath id="clip-path-54"><path class="cls-1" d="M158.64,221.72v8.68q0,11.76-5,20.37a43.75,43.75,0,0,1-13,14.16,57.78,57.78,0,0,1-18.07,8.29,78.23,78.23,0,0,1-20.29,2.72q-20.4,0-34.26-7.41T43.12,246.09V237.4q11.09,15,24.94,22.44t34.26,7.41a77.8,77.8,0,0,0,20.29-2.72,57.53,57.53,0,0,0,18.07-8.28,43.68,43.68,0,0,0,13-14.17Q158.64,233.49,158.64,221.72Z"/></clipPath></defs><title>scummvm_logo</title><g class="cls-2"><g id="Layer_1" data-name="Layer 1"><g class="cls-3"><path d="M1133,61.76h0a21.53,21.53,0,0,0-14.72-7.67L1083,51a25,25,0,0,0-23.41,12.53L990,190.74,952.84,53a24.33,24.33,0,0,0-20.67-17.54l-38.81-3.91A21.88,21.88,0,0,0,869.5,50.11l-33.79,226.8A21.34,21.34,0,0,0,855,301.35l31.3,2.74a21.91,21.91,0,0,0,23.62-18.82s4.41-31.73,8.78-63.14l21.12,72.51a24.65,24.65,0,0,0,20.57,17.22l20.88,2.22a25,25,0,0,0,23.62-12l37.23-64.57-5.19,60.32c-.05.63-.08,1.25-.08,1.86a21.87,21.87,0,0,0,19.51,21.64l37.52,3.88a21.58,21.58,0,0,0,23.73-19.56l20.33-228A21.48,21.48,0,0,0,1133,61.76Zm-37.37,246.78-18.14-1.87-2.93-.31-16.44-1.7a5,5,0,0,1-4.48-5.41l6.65-77.3.25-2.95,4.33-50.24c.23-2.69-.69-3-2-.64L990.38,293.69a8.21,8.21,0,0,1-7.35,3.74l-20.88-2.22a8,8,0,0,1-6.27-5.25l-15-51.63-.86-3-25.72-88.33h0c-.76-2.6-1.68-2.53-2.06.15l-11,79.07-.41,3L898,249.69l-.41,2.92L893.33,283a5.24,5.24,0,0,1-5.58,4.45l-31.3-2.73a4.59,4.59,0,0,1-4.18-5.3l4.71-31.6.43-2.92,2.92-19.6.44-3,15.34-102.93.44-3,9.51-63.84a5.23,5.23,0,0,1,5.62-4.37h0l38.82,3.91a7.71,7.71,0,0,1,6.18,5.24L947.39,97.1l.8,3L969.75,180l.79,2.95,12.84,47.62c.71,2.61,2.35,2.81,3.65.43l67.71-123.66,1.62-3,18-32.77a8.19,8.19,0,0,1,7.27-3.89l11.59,1,3,.27,20.59,1.79a4.93,4.93,0,0,1,4.47,5.33l-5.71,64h0l-.26,3-11.4,127.82-.26,3-2.71,30.31a4.85,4.85,0,0,1-5.26,4.41Z"/><path d="M1100.92,304.14l2.71-30.31.26-3,11.4-127.82.26-3h0l5.71-64a4.93,4.93,0,0,0-4.47-5.33L1096.2,69l-3-.27-11.59-1a8.19,8.19,0,0,0-7.27,3.89l-18,32.77-1.62,3L987,231c-1.3,2.38-2.94,2.18-3.65-.43l-12.84-47.62-.79-2.95-21.56-79.94-.8-3L936.68,57.35a7.71,7.71,0,0,0-6.18-5.24L891.68,48.2h0a5.23,5.23,0,0,0-5.62,4.37l-9.51,63.84-.44,3L860.77,222.3l-.44,3-2.92,19.6-.43,2.92-4.71,31.6a4.59,4.59,0,0,0,4.18,5.3l31.3,2.73a5.24,5.24,0,0,0,5.58-4.45l4.22-30.35.41-2.92,2.84-20.46.41-3,11-79.07c.38-2.68,1.3-2.75,2.06-.15h0L940,235.38l.86,3,15,51.63a8,8,0,0,0,6.27,5.25L983,297.43a8.21,8.21,0,0,0,7.35-3.74l72.41-125.57c1.35-2.34,2.27-2.05,2,.64L1060.5,219l-.25,2.95-6.65,77.3a5,5,0,0,0,4.48,5.41l16.44,1.7,2.93.31,18.14,1.87h.07A4.85,4.85,0,0,0,1100.92,304.14Z"/><polygon points="1090.35 270.87 1089.94 271.69 1087.5 276.65 1077.7 277.94 1076.5 278.1 1076.42 279.3 1074.52 306.36 1077.45 306.67 1079.28 280.71 1088.67 279.48 1089.45 279.37 1089.8 278.67 1092.19 273.83 1103.63 273.83 1103.89 270.87 1103.89 270.87 1090.35 270.87"/><polygon points="856.98 247.78 897.55 252.61 897.96 249.69 857.41 244.86 856.98 247.78"/><polygon points="950.2 182.94 970.54 182.94 969.75 179.99 947.25 179.99 947.25 235.38 939.98 235.38 940.84 238.33 950.2 238.33 950.2 182.94"/><polygon points="1083.75 106.32 1096.2 68.98 1093.17 68.71 1081.29 104.37 1056.36 104.37 1054.74 107.33 1083.41 107.33 1083.75 106.32"/><polygon points="1088.37 139.99 1088.07 141.07 1079.29 172.8 1079.24 172.99 1079.24 173.19 1079.12 219 1060.5 219 1060.25 221.95 1082.07 221.95 1082.07 220.48 1082.19 173.4 1090.62 142.95 1115.29 143.05 1115.55 140.09 1089.5 139.99 1088.37 139.99"/><polygon points="897.65 118.34 903.46 100.05 948.19 100.05 947.39 97.1 901.3 97.1 900.97 98.13 895.16 116.41 876.55 116.41 876.11 119.37 897.32 119.37 897.65 118.34"/><polygon points="874.12 222.57 873.79 222.39 873.42 222.38 860.77 222.3 860.33 225.26 873.03 225.34 873.03 225.34 879.85 229.05 880.18 229.23 900.8 229.23 901.21 226.27 880.93 226.27 874.12 222.57"/><path d="M871.89,29.41h0a16.73,16.73,0,0,0-15-4.39l-45.68,9.21A16.73,16.73,0,0,0,798,48.35s-8.59,62.42-15,109.24L728.56,60.84a16.75,16.75,0,0,0-18-8.19L659.43,63.22a16.74,16.74,0,0,0-11,24.94L773.9,299.56a16.75,16.75,0,0,0,17.51,7.9l30.68-5.79A16.74,16.74,0,0,0,835.49,288L876.75,44.22A16.73,16.73,0,0,0,871.89,29.41Zm-52.09,251a7.61,7.61,0,0,1-5.65,5.77l-21,4a7.58,7.58,0,0,1-7.35-3.32l-14.86-25-1.53-2.59L736.64,204l-1.52-2.57L684.18,115.6l-1.76-2.95-17.09-28.8a3.3,3.3,0,0,1,2.31-5.23L709.14,70a7.22,7.22,0,0,1,7.24,3.3l8.7,15.48,1.66,3,44.63,79.41,1.47,2.62,17.47,31.09c1.33,2.36,2.72,2.1,3.09-.58l13.83-100.5.41-3,6.24-45.35a7.44,7.44,0,0,1,5.5-5.85l13.68-2.75,2.94-.6,19.41-3.91c2.66-.53,4.46,1.21,4,3.88h0l-15.87,93.77-.5,2.95-6.92,40.88-.5,3-5.39,31.83-.73,4.34-9.71,57.36Z"/><path d="M830.24,218.67l5.39-31.83.5-3L843.05,143l.5-2.95,15.87-93.77h0c.45-2.67-1.35-4.41-4-3.88L836,46.31l-2.94.6-13.68,2.75a7.44,7.44,0,0,0-5.5,5.85l-6.24,45.35-.41,3L793.4,204.31c-.37,2.68-1.76,2.94-3.09.58L772.84,173.8l-1.47-2.62L726.74,91.77l-1.66-3-8.7-15.48a7.22,7.22,0,0,0-7.24-3.3l-41.5,8.58a3.3,3.3,0,0,0-2.31,5.23l17.09,28.8,1.76,2.95,50.94,85.83,1.52,2.57,32.75,55.16,1.53,2.59,14.86,25a7.58,7.58,0,0,0,7.35,3.32l21-4a7.61,7.61,0,0,0,5.65-5.77h0L829.51,223Z"/><polygon points="699.76 115.6 699.76 95.94 713.7 95.94 714.14 95.34 716.75 91.77 726.74 91.77 725.08 88.82 715.25 88.82 714.81 89.42 712.2 92.99 696.8 92.99 696.8 112.65 682.42 112.65 684.17 115.6 698.28 115.6 699.76 115.6"/><polygon points="822.11 103.47 827.63 98.83 828.16 98.39 828.16 74.48 831.68 70.71 832.08 70.28 832.08 62.16 835.51 59.13 836 58.69 836 46.31 833.06 46.91 833.06 57.36 829.63 60.4 829.13 60.84 829.13 69.12 825.61 72.88 825.21 73.31 825.21 97.01 820.62 100.86 807.64 100.86 807.23 103.81 821.69 103.81 822.11 103.47"/><polygon points="825.59 149.37 821.71 153.17 821.27 153.61 821.27 154.22 821.17 185.36 821.17 186.84 835.63 186.84 836.13 183.88 824.13 183.88 824.22 154.85 824.22 154.85 828.11 151.05 828.55 150.61 828.55 143 843.05 143 843.55 140.05 825.59 140.05 825.59 149.37"/><polygon points="808.6 227.38 808.09 227.37 807.69 227.68 799.3 234.1 798.73 234.54 798.73 248.33 769.38 259.16 770.92 261.75 800.72 250.75 801.68 250.39 801.68 236.01 809.08 230.34 819.54 230.42 820.06 230.43 820.47 230.11 829.51 223.01 830.24 218.67 819.05 227.46 808.6 227.38"/><polygon points="771.37 171.18 735.12 201.43 736.64 204 772.84 173.8 771.37 171.18"/><path d="M721.6,154.17c29.61,11.83,37.4,50.61,32.64,94.56-2.06,19.06-2.48,43-21.12,45.6-6.34.89-13.5-.63-20.16-1.44-6-.73-12.82-3.12-18.72-2.4-3.59.44-6.32,3.36-9.6,4.32-7.29,2.14-16.36,1-26.4,1-6.14,0-12.37.1-17.76-1-3.25-.64-6.58-3.1-10.08-3.36-3.2-.24-6.44,1.53-10.08,1.92a190.17,190.17,0,0,1-33.12.48c-3.67-.32-7.72-2.45-11-2.4s-6.94,2.48-10.56,2.88c-12.83,1.42-26.32-4.95-37.44-3.84-5.18.52-10.42,5.12-17.28,5.76-9.9.94-26.16.36-36-1.43-3.69-.67-7.48-3.12-11-3.36-3.23-.22-6.91,1.58-10.56,1.92a234,234,0,0,1-30.72.48c-2.8-.15-5.61-1.12-8.16-1-4.42.27-8.79,3.34-13,3.84a161.67,161.67,0,0,1-34.08.47c-3.74-.38-7.54-2.35-11.52-2.39-5.39-.07-10.39,2.49-14.88,2.88C315,300,295.49,287.5,282.4,273.22c-5.79,2.78-9.5,7.92-14.88,11.52-24.06,16.11-65.12,11.47-86.4-5.28-3-2.38-7.33-9.66-11-9.6-3.16.05-8.67,7.41-11.52,9.6-11.33,8.68-26.59,15-45.6,16.32-28.6,1.92-51.45-8.77-66.24-22.56-7.58-7.08-18.51-18.7-13.44-33.12,2.61-7.42,10.25-15,15.84-21.6,2.06-2.43,5.15-4.8,5.28-7.2.24-4.32-6.82-10.75-8.64-13.92-8.25-14.39-10.89-38.14-2.88-56.16,9.55-21.48,34.78-37,69.12-34.56a90.41,90.41,0,0,1,37.92,11.52c16.27,9.35,33.15,18,27.84,42.72,6.86-1.47,10.8-6.35,16.8-9.12,20.86-9.63,54.24-8.95,73.44,3.36,2.41,1.55,6.1,5.25,8.16,5.28,3.82.05,8.51-7.65,12-9.12,7.82-3.3,33-3.48,44.16-2.4,4.46.43,9,3.55,12.48,3.36,3.76-.21,8.6-4.87,11.52-5.76,8.95-2.74,36.5-3.86,46.56-1,3.31,1,6.84,4.84,10.56,5.28,3.54.42,8.15-1.28,12-1.44,7.15-.33,15.18-.82,22.08-.48,5,.24,9.69,3.08,14.4,3.35,4.38.27,9.61-2,14.4-1.92a52.41,52.41,0,0,1,12,1.92c3.56.93,7.14,3.39,10.07,3.36,4.39,0,9.08-3.32,13-4.32a71.91,71.91,0,0,1,42.24,2.4c3.1,1.14,8.72,6.26,12,6.24,3.89,0,8.47-6.78,12-8.16,9.82-3.83,24.32-3.33,36-2.88,5.26.2,10,3.11,14.88,3.36,4.35.22,9-1.85,13.43-1.92a45.09,45.09,0,0,1,12,1.92c3.79,1,7.78,3.32,10.57,3.36,3.72,0,7.38-2.92,10.56-3.84a73.89,73.89,0,0,1,46.56,2.4Z"/><g class="cls-4"><path d="M641.6,220.16v8.68q0-4.56-.34-8.79a34,34,0,0,0-1.32-7.49,15.92,15.92,0,0,0-2.54-5.21,5,5,0,0,0-4.2-1.95q-4.92,0-6.77,2.31V199q1.85-2.33,6.77-2.32a5.07,5.07,0,0,1,4.2,1.95,16,16,0,0,1,2.54,5.21,34.19,34.19,0,0,1,1.32,7.49c.23,2.82.34,5.76.34,8.8"/><path d="M626.43,199v8.68a5,5,0,0,0-.52.83l-.15.31v-8.68l.15-.31a5,5,0,0,1,.52-.83"/><path d="M625.76,200.17v8.68a15.38,15.38,0,0,0-1.1,3.2v-8.68a15.38,15.38,0,0,1,1.1-3.2"/><path d="M624.66,203.37v8.68a12.3,12.3,0,0,0-.3,2.68v-8.68a12.3,12.3,0,0,1,.3-2.68"/></g><g class="cls-5"><path d="M583.88,226.37v8.68q0-6.59,0-12.83-.12-12.48-.45-24.64t-1-25.4v-8.69q.68,13.24,1,25.41t.45,24.64q0,6.24,0,12.83"/></g><g class="cls-6"><path d="M700.36,213.21v8.68q0-8.89-2.54-12.7a8.14,8.14,0,0,0-7.18-3.79,7.83,7.83,0,0,0-6.47,3v-8.68a7.81,7.81,0,0,1,6.47-3,8.15,8.15,0,0,1,7.18,3.8q2.53,3.8,2.54,12.7"/><path d="M684.17,199.72v8.68a11.37,11.37,0,0,0-1.34,2.22v-8.68a11.37,11.37,0,0,1,1.34-2.22"/><path d="M682.83,201.94v8.68a18.62,18.62,0,0,0-1.24,3.8v-8.69a18.52,18.52,0,0,1,1.24-3.79"/><path d="M681.59,205.73v8.69c-.08.38-.16.77-.23,1.18q-1.77,10.2-1.77,31V238q0-20.82,1.77-31c.07-.4.15-.8.23-1.18"/></g><polygon points="624.36 206.05 624.36 214.73 623.13 274.36 623.13 265.68 624.36 206.05"/><g class="cls-7"><path d="M695.74,267.12v8.69a3.73,3.73,0,0,1-3.38-3.71v-8.68a3.72,3.72,0,0,0,3.38,3.7"/></g><polygon points="698.72 267.5 698.72 276.18 695.74 275.81 695.74 267.12 698.72 267.5"/><g class="cls-8"><path d="M623.13,265.68v8.68a4.27,4.27,0,0,1-.1.81v-8.68a4.38,4.38,0,0,0,.1-.81"/><path d="M623,266.49v8.68a3.81,3.81,0,0,1-.3.88v-8.68a4,4,0,0,0,.3-.88"/><path d="M622.73,267.37v8.68a3.72,3.72,0,0,1-.54.87v-8.68a3.94,3.94,0,0,0,.54-.87"/><path d="M622.19,268.24v8.68a4.47,4.47,0,0,1-3.4,1.7v-8.69a4.43,4.43,0,0,0,3.4-1.69"/></g><polygon points="618.79 269.93 618.79 278.62 587.97 279.13 587.97 270.45 618.79 269.93"/><g class="cls-9"><path d="M588,270.45v8.68a4.15,4.15,0,0,1-4.24-4.12v-8.68a4.16,4.16,0,0,0,4.24,4.12"/></g><g class="cls-10"><path d="M737.91,221v8.68a188.54,188.54,0,0,1-1.65,24.52c-.32,2.4-.64,4.81-1,7.2-.42,2.85-.78,5.66-1,8.54-.15,1.87-.34,3.74-.66,5.6-.13.72-.16,1.64-.34,2.48v-8.68c.18-.84.21-1.76.34-2.48.32-1.86.51-3.73.66-5.6.25-2.88.61-5.69,1-8.54.35-2.4.67-4.8,1-7.2A188.66,188.66,0,0,0,737.91,221"/><path d="M733.24,269.37v8.68a5.33,5.33,0,0,1-.3.93V270.3a5.33,5.33,0,0,0,.3-.93"/><path d="M732.94,270.3V279a2.62,2.62,0,0,1-.33.53v-8.69a2.3,2.3,0,0,0,.33-.52"/><path d="M732.61,270.82v8.69l-.1.12a2,2,0,0,1-1.53.6,17.87,17.87,0,0,1-2.11-.29c-1.91-.21-3.81-.63-5.72-.85-3.17-.36-6.34-.69-9.5-1.08l-14.93-1.83V267.5l14.93,1.83c3.16.39,6.33.72,9.5,1.08,1.91.22,3.81.64,5.72.85a17.87,17.87,0,0,0,2.11.29,1.93,1.93,0,0,0,1.53-.61.58.58,0,0,0,.1-.12"/></g><g class="cls-11"><path d="M645,271.91v8.68a4.18,4.18,0,0,1-4.16-4.11V267.8a4.18,4.18,0,0,0,4.16,4.11"/></g><polygon points="648.53 271.99 648.53 280.67 645.03 280.59 645.03 271.91 648.53 271.99"/><polygon points="656.1 272.15 656.1 280.83 648.53 280.67 648.53 271.99 656.1 272.15"/><g class="cls-12"><path d="M680.93,271v8.68a3.1,3.1,0,0,1,0,.54v-8.68a3.1,3.1,0,0,0,0-.54"/><path d="M680.88,271.56v8.68a1.42,1.42,0,0,1-.1.29v-8.69a1.33,1.33,0,0,0,.1-.28"/><path d="M680.78,271.84v8.69a1.27,1.27,0,0,1-.13.22v-8.68a1,1,0,0,0,.13-.23"/><path d="M680.65,272.07v8.68a1.55,1.55,0,0,1-.89.49,8.85,8.85,0,0,1-1.87.18c-1.27,0-2.59-.18-3.77-.21l-8.75-.18-9.27-.2v-8.68l9.27.19,8.75.19c1.18,0,2.5.21,3.77.21a8.85,8.85,0,0,0,1.87-.18,1.55,1.55,0,0,0,.89-.49"/></g><path d="M736,197.47A137.45,137.45,0,0,1,737.91,221a188.66,188.66,0,0,1-1.65,24.52c-.32,2.4-.64,4.8-1,7.2-.42,2.85-.78,5.66-1,8.54-.15,1.87-.34,3.74-.66,5.6-.22,1.23-.16,3.06-1.07,4.05a1.93,1.93,0,0,1-1.53.61,17.87,17.87,0,0,1-2.11-.29c-1.91-.21-3.81-.63-5.72-.85-3.17-.36-6.34-.69-9.5-1.08l-14.93-1.83-3-.38a3.73,3.73,0,0,1-3.28-4.6c.22-.95,4.4-19,5.8-27.71a142.23,142.23,0,0,0,2.1-21.6q0-8.9-2.54-12.7a8.15,8.15,0,0,0-7.18-3.8q-7.51,0-9.28,10.2t-1.77,31c0,1.88,0,4.35.11,7.39s.16,6.22.23,9.54.21,6.6.44,9.77c.12,1.75.45,3.48.5,5.25,0,1.17.36,2.32-1.11,2.66a8.85,8.85,0,0,1-1.87.18c-1.27,0-2.59-.18-3.77-.21l-8.75-.19-9.27-.19-7.56-.16-3.51-.08a4.17,4.17,0,0,1-4.15-4.27c0-.18.12-3.45.28-6.57.15-3.32.26-6.66.33-10q.1-5.33.11-12.49V220.16c0-3-.11-6-.34-8.8a34.19,34.19,0,0,0-1.32-7.49,16,16,0,0,0-2.54-5.21,5.07,5.07,0,0,0-4.2-1.95q-5.75,0-7.29,3.15a14,14,0,0,0-1.55,6.19l-1.23,59.63a4.42,4.42,0,0,1-4.34,4.25l-30.82.52a4.16,4.16,0,0,1-4.24-4.12c0-.86,0-17.16.1-26.43s.07-18,0-26.36-.22-16.54-.45-24.64-.54-16.58-1-25.41l31.77-.76a4.69,4.69,0,0,1,4.68,4.06q.2,1.71.36,3.42a15.39,15.39,0,0,0,.34,2.63c.12.5.46,1.33,1,1.45a1.78,1.78,0,0,0,1.31-.64c.22-.22.42-.46.63-.71a23.74,23.74,0,0,1,4.86-4.34,28.44,28.44,0,0,1,6.73-3.37,24.33,24.33,0,0,1,8-1.29q8.4,0,13.91,3.79a21.28,21.28,0,0,1,5.15,4.82,5.52,5.52,0,0,0,2.4,2.12c1.57.05,2.56-1.59,3.35-2.31a34.38,34.38,0,0,1,3.31-2.69q1.85-1.32,3.8-2.48,7.62-4.56,18.23-4.56,14.13,0,23,4.34A34.61,34.61,0,0,1,729.08,179,48.19,48.19,0,0,1,736,197.47Z"/><g class="cls-13"><path d="M474.8,220.16v8.68q0-4.56-.33-8.79a34.54,34.54,0,0,0-1.33-7.49,15.92,15.92,0,0,0-2.53-5.21,5.06,5.06,0,0,0-4.2-1.95c-3.28,0-5.54.76-6.76,2.31V199c1.22-1.54,3.48-2.31,6.76-2.31a5.09,5.09,0,0,1,4.2,1.95,16,16,0,0,1,2.53,5.21,34.76,34.76,0,0,1,1.33,7.49c.22,2.82.33,5.76.33,8.8"/><path d="M459.65,199v8.69a4.19,4.19,0,0,0-.53.83l-.17.36v-8.69c.06-.11.11-.23.17-.35a4.58,4.58,0,0,1,.53-.84"/><path d="M459,200.21v8.69a15.31,15.31,0,0,0-1.08,3.13v-8.68a15.6,15.6,0,0,1,1.08-3.14"/><path d="M457.87,203.35V212a12.55,12.55,0,0,0-.3,2.7v-8.68a12.48,12.48,0,0,1,.3-2.7"/></g><g class="cls-14"><path d="M417.09,226.37v8.68q0-6.59,0-12.83-.12-12.48-.44-24.64t-1-25.39V163.5q.66,13.25,1,25.4t.44,24.64q0,6.24,0,12.83"/></g><g class="cls-15"><path d="M533.57,213.21v8.68c0-5.93-.86-10.17-2.55-12.7a8.13,8.13,0,0,0-7.17-3.79,7.8,7.8,0,0,0-6.46,3v-8.68a7.81,7.81,0,0,1,6.46-3,8.13,8.13,0,0,1,7.17,3.8c1.69,2.53,2.55,6.77,2.55,12.7"/><path d="M517.39,199.72v8.68a10.93,10.93,0,0,0-1.35,2.22v-8.68a10.93,10.93,0,0,1,1.35-2.22"/><path d="M516,201.94v8.68a18.62,18.62,0,0,0-1.24,3.8v-8.68a18.42,18.42,0,0,1,1.24-3.8"/><path d="M514.8,205.74v8.68c-.08.38-.16.77-.23,1.18q-1.77,10.2-1.77,31V238q0-20.82,1.77-31c.07-.4.15-.79.23-1.17"/></g><polygon points="457.57 206.05 457.57 214.73 456.33 274.36 456.33 265.68 457.57 206.05"/><g class="cls-16"><path d="M529,267.13v8.68a3.72,3.72,0,0,1-3.38-3.69v-8.69a3.73,3.73,0,0,0,3.38,3.7"/></g><g class="cls-17"><path d="M456.33,265.68v8.68a4.27,4.27,0,0,1-.09.81v-8.68a4.37,4.37,0,0,0,.09-.81"/><path d="M456.24,266.49v8.68a4.35,4.35,0,0,1-.3.88v-8.68a4.57,4.57,0,0,0,.3-.88"/><path d="M455.94,267.37v8.68a4.53,4.53,0,0,1-.54.87v-8.68a4.86,4.86,0,0,0,.54-.87"/><path d="M455.4,268.24v8.68a4.49,4.49,0,0,1-3.41,1.7v-8.69a4.45,4.45,0,0,0,3.41-1.69"/></g><g class="cls-18"><path d="M421.18,270.45v8.68a4.16,4.16,0,0,1-4.25-4.12v-8.68a4.17,4.17,0,0,0,4.25,4.12"/></g><polygon points="451.99 269.93 451.99 278.62 421.18 279.13 421.18 270.45 451.99 269.93"/><g class="cls-19"><path d="M571.13,221v8.68a187,187,0,0,1-1.67,24.53q-1.73,13.06-4.08,26.05v-8.68q2.36-13,4.08-26.05A187.27,187.27,0,0,0,571.13,221"/></g><polygon points="565.38 271.61 565.38 280.29 528.95 275.81 528.95 267.13 565.38 271.61"/><g class="cls-20"><path d="M478.17,271.91v8.68a4.16,4.16,0,0,1-4.09-4.11V267.8a4.16,4.16,0,0,0,4.09,4.11"/></g><path d="M562.29,179a48.34,48.34,0,0,1,7,18.46A137.25,137.25,0,0,1,571.13,221a187.27,187.27,0,0,1-1.67,24.53q-1.73,13.06-4.08,26.05L529,267.13a3.72,3.72,0,0,1-3.27-4.6c.22-.95,4.39-19,5.78-27.72a141.15,141.15,0,0,0,2.11-21.6c0-5.93-.86-10.17-2.55-12.7a8.13,8.13,0,0,0-7.17-3.8q-7.51,0-9.28,10.2t-1.77,31c0,1.89,0,4.35.11,7.39s.15,6.22.22,9.55.23,6.59.44,9.77.48,5.86.78,8l-36.18-.78a4.16,4.16,0,0,1-4.09-4.27c0-.18.13-3.45.28-6.56q.22-5,.33-10c.07-3.55.11-7.7.11-12.48V220.16c0-3-.11-6-.33-8.8a34.76,34.76,0,0,0-1.33-7.49,16,16,0,0,0-2.53-5.21,5.09,5.09,0,0,0-4.2-1.95q-5.75,0-7.29,3.15a14,14,0,0,0-1.55,6.19l-1.24,59.63a4.41,4.41,0,0,1-4.34,4.25l-30.81.52a4.17,4.17,0,0,1-4.25-4.12c0-.86,0-17.16.11-26.42s.07-18,0-26.37-.23-16.54-.44-24.64-.56-16.57-1-25.4l31.76-.77a4.7,4.7,0,0,1,4.69,4.06l.21,2,.29,2.73c.08.77-.08,2.2,1.06,2.27s1.46-.79,2.21-1.38c1.6-1.24,3.05-2.65,4.73-3.81a27.94,27.94,0,0,1,6.74-3.36,24.06,24.06,0,0,1,7.95-1.3q8.4,0,13.92,3.79a21.45,21.45,0,0,1,5.5,5.33c.52.74.8,1.42,1.83,1.51a3.39,3.39,0,0,0,.88-.09c1.12-.18,1.79-1.29,2.56-2a36.62,36.62,0,0,1,3.28-2.69c1.28-.93,2.6-1.79,4-2.6q7.63-4.56,18.24-4.56,14.13,0,23,4.34A34.55,34.55,0,0,1,562.29,179Z"/><polygon points="514.35 272.69 514.35 281.37 478.17 280.59 478.17 271.91 514.35 272.69"/><g class="cls-21"><path d="M361.35,223.27V232q0-10-.1-17.42t-.44-14.36q-.35-7-.9-14.59t-1.21-18.07v-8.69q.66,10.45,1.21,18.07t.9,14.59c.21,4.65.36,9.43.44,14.37s.1,10.74.1,17.42"/></g><g class="cls-22"><path d="M334.79,166v8.69a4,4,0,0,1-.06.67c-.07.44-1.51,8.91-2.4,15.88q-1.11,9.15-2.21,20a210.89,210.89,0,0,0-1.11,22v-8.68a210.89,210.89,0,0,1,1.11-22q1.1-10.89,2.21-20c.89-7,2.33-15.44,2.4-15.88a4,4,0,0,0,.06-.68"/></g><g class="cls-23"><path d="M364.73,266.46v8.69c0-1.11-.22-2.11-1-2.38a1,1,0,0,0-.37-.07c-1.26,0-2.67,1.84-3.52,2.47a42.19,42.19,0,0,1-6.75,4,40,40,0,0,1-7.65,2.72,32.09,32.09,0,0,1-7.75,1q-13.08,0-22.49-3.57a39,39,0,0,1-15.39-10.16,41.59,41.59,0,0,1-8.87-16A72.67,72.67,0,0,1,288,232v-8.68a72.72,72.72,0,0,0,2.88,21.18,41.67,41.67,0,0,0,8.87,16,39,39,0,0,0,15.39,10.16q9.42,3.57,22.49,3.56a32.06,32.06,0,0,0,7.75-1,40.73,40.73,0,0,0,7.65-2.72,42.94,42.94,0,0,0,6.75-4c.85-.63,2.26-2.47,3.52-2.47a1.19,1.19,0,0,1,.37.06c.82.28,1,1.28,1,2.38"/></g><g class="cls-24"><path d="M368.72,273.89v8.69a4.16,4.16,0,0,1-4.27-4.11v-8.68a4.15,4.15,0,0,0,4.27,4.1"/></g><polygon points="403.45 273.12 403.45 281.81 368.72 282.58 368.72 273.89 403.45 273.12"/><path d="M401.34,215.65q.56,13.5,1.11,27.48t1,30l-34.73.77a4.15,4.15,0,0,1-4.27-4.1c0-1.28,1-5.11-.76-5.71a1.19,1.19,0,0,0-.37-.06c-1.26,0-2.67,1.84-3.52,2.47a42.94,42.94,0,0,1-6.75,4,40.73,40.73,0,0,1-7.65,2.72,32.06,32.06,0,0,1-7.75,1q-13.08,0-22.49-3.56a39,39,0,0,1-15.39-10.16,41.67,41.67,0,0,1-8.87-16A72.72,72.72,0,0,1,288,223.27q0-8.28.78-18.72.72-9.93,1.88-19.81,1.11-10.92,2.66-21.78l37.83-.39a3.43,3.43,0,0,1,3.56,4.11c-.07.44-1.51,8.91-2.4,15.88q-1.11,9.15-2.21,20a210.89,210.89,0,0,0-1.11,22,16.17,16.17,0,0,0,3.76,10.78q3.76,4.47,11.3,4.46a17.86,17.86,0,0,0,12.19-4.46q5.08-4.47,5.09-12.08,0-10-.1-17.42c-.08-4.94-.23-9.72-.44-14.37s-.53-9.51-.9-14.59-.77-11.1-1.21-18.07l36.28-.77a4.3,4.3,0,0,1,4.38,4.11c0,.82.51,16.59.87,26S401,206.65,401.34,215.65Z"/><polygon points="280.07 198.66 280.07 207.35 253.27 213.93 253.27 205.25 280.07 198.66"/><g class="cls-25"><path d="M253.27,205.25v8.68a4.53,4.53,0,0,1-1.1.13,5.24,5.24,0,0,1-4.71-3,22.29,22.29,0,0,0-4.39-6.14q-4.53-4.56-13.81-4.56a15.68,15.68,0,0,0-6.29,1.41,17.28,17.28,0,0,0-5.74,4.13v-8.69a17.39,17.39,0,0,1,5.74-4.12,15.53,15.53,0,0,1,6.29-1.42q9.28,0,13.81,4.57a22.29,22.29,0,0,1,4.39,6.14,5.26,5.26,0,0,0,4.71,3,4.53,4.53,0,0,0,1.1-.13"/></g><g class="cls-26"><path d="M217.23,197.25v8.69c-.34.35-.66.73-1,1.13v-8.68c.32-.4.64-.78,1-1.14"/><path d="M216.25,198.39v8.68a21.69,21.69,0,0,0-2.63,4.32v-8.68a21.69,21.69,0,0,1,2.63-4.32"/><path d="M213.62,202.71v8.68c-.2.45-.4.91-.59,1.39a20.63,20.63,0,0,0-1,3.31v-8.68a20.32,20.32,0,0,1,1-3.31c.19-.48.39-.94.59-1.39"/><path d="M212,207.41v8.68a30,30,0,0,0-.64,6.46v-8.69a30,30,0,0,1,.64-6.45"/></g><g class="cls-27"><path d="M278.58,233.17v8.68a4.29,4.29,0,0,1-.1.86V234a4.29,4.29,0,0,0,.1-.86"/><path d="M278.48,234v8.68a1.89,1.89,0,0,1-.09.34,90.82,90.82,0,0,1-3.89,10.21v-8.69a90,90,0,0,0,3.89-10.21,2,2,0,0,0,.09-.33"/><path d="M274.5,244.57v8.69a39.85,39.85,0,0,1-2.27,4.23,55.56,55.56,0,0,1-3.36,4.73v-8.69a53.84,53.84,0,0,0,3.36-4.72,39.08,39.08,0,0,0,2.27-4.24"/><path d="M268.87,253.53v8.69a48.28,48.28,0,0,1-8.23,8.19A46.76,46.76,0,0,1,246.06,278a54.7,54.7,0,0,1-16.36,2.5q-14.79,0-25.4-4.56a49.79,49.79,0,0,1-17.56-12.26,48.83,48.83,0,0,1-10.27-17.91,68.8,68.8,0,0,1-3.31-21.5v-8.68a68.8,68.8,0,0,0,3.31,21.5A48.92,48.92,0,0,0,186.74,255a49.79,49.79,0,0,0,17.56,12.26q10.6,4.56,25.4,4.56a54.7,54.7,0,0,0,16.36-2.5,47.18,47.18,0,0,0,14.58-7.59,48,48,0,0,0,8.23-8.2"/></g><path d="M217.23,197.25a21.49,21.49,0,0,0-4.2,6.85,26,26,0,0,0-1.66,9.76q0,10.63,5.41,17.15a17.4,17.4,0,0,0,14,6.51,14,14,0,0,0,5.3-1.19,26.78,26.78,0,0,0,5.63-3.26,26.11,26.11,0,0,0,5-4.88,14.48,14.48,0,0,0,2.87-6.3l26,7.32a4.1,4.1,0,0,1,2.85,5.15c-.14.47-2.85,9.24-6.16,14.45a50.2,50.2,0,0,1-11.59,12.92,47.18,47.18,0,0,1-14.58,7.59,54.7,54.7,0,0,1-16.36,2.5q-14.79,0-25.4-4.56A49.79,49.79,0,0,1,186.74,255a48.92,48.92,0,0,1-10.27-17.91,68.8,68.8,0,0,1-3.31-21.5A71.68,71.68,0,0,1,176.8,192a49.28,49.28,0,0,1,10.71-18A46.94,46.94,0,0,1,205,162.52a65.13,65.13,0,0,1,23.64-4q21.65,0,34.47,11.07t17,29.09l-26.81,6.59a4.53,4.53,0,0,1-1.1.13,5.26,5.26,0,0,1-4.71-3,22.29,22.29,0,0,0-4.39-6.14q-4.53-4.56-13.81-4.57a15.53,15.53,0,0,0-6.29,1.42A17.39,17.39,0,0,0,217.23,197.25Z"/><polygon points="162.75 145.87 162.75 154.56 150 173.9 150 165.22 162.75 145.87"/><g class="cls-28"><path d="M150,165.22v8.68a2.32,2.32,0,0,1-.22.3v-8.68a2.32,2.32,0,0,0,.22-.3"/><path d="M149.78,165.52v8.68a3.63,3.63,0,0,1-2.86,1.43,3.76,3.76,0,0,1-2.47-.95,69.25,69.25,0,0,0-6.75-5,98,98,0,0,0-10.43-5.77,59.49,59.49,0,0,0-9.53-3.59,30.71,30.71,0,0,0-7.76-1.2c-2.66,0-4.62.66-5.87,2-.15.16-.3.32-.43.49V152.9a5,5,0,0,1,.43-.49q1.88-2,5.87-2a30.65,30.65,0,0,1,7.76,1.19,60.57,60.57,0,0,1,9.53,3.6A98,98,0,0,1,137.7,161a69.25,69.25,0,0,1,6.75,5,3.75,3.75,0,0,0,2.47.94,3.65,3.65,0,0,0,2.86-1.42"/><path d="M103.68,152.9v8.68a6.61,6.61,0,0,0-.8,1.29v-8.68a6.61,6.61,0,0,1,.8-1.29"/><path d="M102.88,154.19v8.68a6.57,6.57,0,0,0-.47,1.42V155.6a6.49,6.49,0,0,1,.47-1.41"/><path d="M102.41,155.6v8.69a8.1,8.1,0,0,0-.19,1.81v-8.68a8.19,8.19,0,0,1,.19-1.82"/></g><g class="cls-29"><path d="M116,231.29V240q0-4.14-4.55-7.84a95.29,95.29,0,0,0-11.31-7.74c-4.51-2.69-9.39-5.58-14.63-8.71a86,86,0,0,1-14.64-11,59.1,59.1,0,0,1-11.31-14.49A38.28,38.28,0,0,1,55,171.33v-8.68a38.24,38.24,0,0,0,4.54,18.85A59,59,0,0,0,70.84,196a85.39,85.39,0,0,0,14.64,11l14.63,8.72a96.54,96.54,0,0,1,11.31,7.73q4.55,3.72,4.55,7.85"/></g><g class="cls-30"><path d="M163.64,226.72v8.68a46.72,46.72,0,0,1-1,10.06v-8.68a46.72,46.72,0,0,0,1-10.06"/><path d="M162.61,236.78v8.68a36.79,36.79,0,0,1-2.56,7.63v-8.68a36.79,36.79,0,0,0,2.56-7.63"/><path d="M160.05,244.41v8.68c-.43.92-.89,1.81-1.39,2.68a46.92,46.92,0,0,1-3.72,5.47v-8.68a46.21,46.21,0,0,0,3.72-5.48c.5-.86,1-1.75,1.39-2.67"/><path d="M154.94,252.56v8.68a43.43,43.43,0,0,1-9.26,8.69,57.78,57.78,0,0,1-18.07,8.29,78.23,78.23,0,0,1-20.29,2.72q-20.4,0-34.26-7.41T48.12,251.09V242.4q11.09,15,24.94,22.44t34.26,7.41a77.8,77.8,0,0,0,20.29-2.72,57.53,57.53,0,0,0,18.07-8.28,43.69,43.69,0,0,0,9.26-8.69"/></g><path d="M147.68,190.54a54.33,54.33,0,0,1,11.42,15.14q4.53,8.83,4.54,21,0,11.76-5,20.36a43.68,43.68,0,0,1-13,14.17,57.53,57.53,0,0,1-18.07,8.28,77.8,77.8,0,0,1-20.29,2.72q-20.4,0-34.26-7.41T48.12,242.4l15.75-19.58a3.59,3.59,0,0,1,2.81-1.41,3.66,3.66,0,0,1,2.69,1.25A40,40,0,0,0,74.28,227a61.63,61.63,0,0,0,10.09,6.32,72,72,0,0,0,11.09,4.47A36,36,0,0,0,106,239.58c3.25,0,5.73-.59,7.43-1.75s2.55-3.34,2.55-6.54q0-4.14-4.55-7.85a96.54,96.54,0,0,0-11.31-7.73L85.48,207a85.39,85.39,0,0,1-14.64-11,59,59,0,0,1-11.31-14.5A38.24,38.24,0,0,1,55,162.65a39.86,39.86,0,0,1,4-18.3,39.23,39.23,0,0,1,10.76-13.18,47.71,47.71,0,0,1,15.63-8.07,64,64,0,0,1,18.85-2.72q17.73,0,31.81,6.43a92.09,92.09,0,0,1,26.72,19.06L150,165.22a3.68,3.68,0,0,1-3.08,1.72,3.75,3.75,0,0,1-2.47-.94,69.25,69.25,0,0,0-6.75-5,98,98,0,0,0-10.43-5.77,60.57,60.57,0,0,0-9.53-3.6,30.65,30.65,0,0,0-7.76-1.19q-4,0-5.87,2a6.92,6.92,0,0,0-1.89,5q0,3.93,4.54,7.3a85.92,85.92,0,0,0,11.42,7q7.44,3.92,14.75,8.07A80.73,80.73,0,0,1,147.68,190.54Z"/></g><path class="cls-31" d="M1128,56.76h0a21.53,21.53,0,0,0-14.72-7.67L1078,46a25,25,0,0,0-23.41,12.53L985,185.74,947.84,48a24.33,24.33,0,0,0-20.67-17.54l-38.81-3.91A21.88,21.88,0,0,0,864.5,45.11l-33.79,226.8A21.34,21.34,0,0,0,850,296.35l31.3,2.74a21.91,21.91,0,0,0,23.62-18.82s4.41-31.73,8.78-63.14l21.12,72.51a24.65,24.65,0,0,0,20.57,17.22l20.88,2.22a25,25,0,0,0,23.62-12l37.23-64.57-5.19,60.32c-.05.63-.08,1.25-.08,1.86a21.87,21.87,0,0,0,19.51,21.64l37.52,3.88a21.58,21.58,0,0,0,23.73-19.56l20.33-228A21.48,21.48,0,0,0,1128,56.76Zm-37.37,246.78-18.14-1.87-2.93-.31-16.44-1.7a5,5,0,0,1-4.48-5.41l6.65-77.3.25-2.95,4.33-50.24c.23-2.69-.69-3-2-.64L985.38,288.69a8.21,8.21,0,0,1-7.35,3.74l-20.88-2.22a8,8,0,0,1-6.27-5.25l-15-51.63-.86-3-25.72-88.33h0c-.76-2.6-1.68-2.53-2.06.15l-11,79.07-.41,3L893,244.69l-.41,2.92L888.33,278a5.24,5.24,0,0,1-5.58,4.45l-31.3-2.73a4.59,4.59,0,0,1-4.18-5.3l4.71-31.6.43-2.92,2.92-19.6.44-3,15.34-102.93.44-3,9.51-63.84a5.23,5.23,0,0,1,5.62-4.37h0l38.82,3.91a7.71,7.71,0,0,1,6.18,5.24L942.39,92.1l.8,3L964.75,175l.79,2.95,12.84,47.62c.71,2.61,2.35,2.81,3.65.43l67.71-123.66,1.62-3,18-32.77a8.19,8.19,0,0,1,7.27-3.89l11.59,1,3,.27,20.59,1.79a4.93,4.93,0,0,1,4.47,5.33l-5.71,64h0l-.26,3-11.4,127.82-.26,3-2.71,30.31a4.85,4.85,0,0,1-5.26,4.41Z"/><path class="cls-32" d="M1095.92,299.14l2.71-30.31.26-3,11.4-127.82.26-3h0l5.71-64a4.93,4.93,0,0,0-4.47-5.33L1091.2,64l-3-.27-11.59-1a8.19,8.19,0,0,0-7.27,3.89l-18,32.77-1.62,3L982,226c-1.3,2.38-2.94,2.18-3.65-.43l-12.84-47.62-.79-2.95L943.19,95.05l-.8-3L931.68,52.35a7.71,7.71,0,0,0-6.18-5.24L886.68,43.2h0a5.23,5.23,0,0,0-5.62,4.37l-9.51,63.84-.44,3L855.77,217.3l-.44,3-2.92,19.6-.43,2.92-4.71,31.6a4.59,4.59,0,0,0,4.18,5.3l31.3,2.73a5.24,5.24,0,0,0,5.58-4.45l4.22-30.35.41-2.92,2.84-20.46.41-3,11-79.07c.38-2.68,1.3-2.75,2.06-.15h0L935,230.38l.86,3,15,51.63a8,8,0,0,0,6.27,5.25L978,292.43a8.21,8.21,0,0,0,7.35-3.74l72.41-125.57c1.35-2.34,2.27-2.05,2,.64L1055.5,214l-.25,2.95-6.65,77.3a5,5,0,0,0,4.48,5.41l16.44,1.7,2.93.31,18.14,1.87h.07A4.85,4.85,0,0,0,1095.92,299.14Z"/><polygon class="cls-31" points="1085.35 265.87 1084.94 266.69 1082.5 271.65 1072.7 272.94 1071.5 273.1 1071.42 274.3 1069.52 301.36 1072.45 301.67 1074.28 275.71 1083.67 274.48 1084.45 274.37 1084.8 273.67 1087.19 268.83 1098.63 268.83 1098.89 265.87 1098.89 265.87 1085.35 265.87"/><polygon class="cls-31" points="851.98 242.78 892.55 247.61 892.96 244.69 852.41 239.86 851.98 242.78"/><polygon class="cls-31" points="945.2 177.94 965.54 177.94 964.75 174.99 942.25 174.99 942.25 230.38 934.98 230.38 935.84 233.33 945.2 233.33 945.2 177.94"/><polygon class="cls-31" points="1078.75 101.32 1091.2 63.98 1088.17 63.71 1076.29 99.37 1051.36 99.37 1049.74 102.33 1078.41 102.33 1078.75 101.32"/><polygon class="cls-31" points="1083.37 134.99 1083.07 136.07 1074.29 167.8 1074.24 167.99 1074.24 168.19 1074.12 214 1055.5 214 1055.25 216.95 1077.07 216.95 1077.07 215.48 1077.19 168.4 1085.62 137.95 1110.29 138.05 1110.55 135.09 1084.5 134.99 1083.37 134.99"/><polygon class="cls-31" points="892.65 113.34 898.46 95.05 943.19 95.05 942.39 92.1 896.3 92.1 895.97 93.13 890.16 111.41 871.55 111.41 871.11 114.37 892.32 114.37 892.65 113.34"/><polygon class="cls-31" points="869.12 217.57 868.79 217.39 868.42 217.38 855.77 217.3 855.33 220.26 868.03 220.34 868.03 220.34 874.85 224.05 875.18 224.23 895.8 224.23 896.21 221.27 875.93 221.27 869.12 217.57"/><path class="cls-31" d="M866.89,24.41h0a16.73,16.73,0,0,0-15-4.39l-45.68,9.21A16.73,16.73,0,0,0,793,43.35s-8.59,62.42-15,109.24L723.56,55.84a16.75,16.75,0,0,0-18-8.19L654.43,58.22a16.74,16.74,0,0,0-11,24.94L768.9,294.56a16.75,16.75,0,0,0,17.51,7.9l30.68-5.79A16.74,16.74,0,0,0,830.49,283L871.75,39.22A16.73,16.73,0,0,0,866.89,24.41Zm-52.09,251a7.61,7.61,0,0,1-5.65,5.77l-21,4a7.58,7.58,0,0,1-7.35-3.32l-14.86-25-1.53-2.59L731.64,199l-1.52-2.57L679.18,110.6l-1.76-2.95-17.09-28.8a3.3,3.3,0,0,1,2.31-5.23L704.14,65a7.22,7.22,0,0,1,7.24,3.3l8.7,15.48,1.66,3,44.63,79.41,1.47,2.62,17.47,31.09c1.33,2.36,2.72,2.1,3.09-.58l13.83-100.5.41-3,6.24-45.35a7.44,7.44,0,0,1,5.5-5.85l13.68-2.75,2.94-.6,19.41-3.91c2.66-.53,4.46,1.21,4,3.88h0l-15.87,93.77-.5,2.95-6.92,40.88-.5,3-5.39,31.83-.73,4.34-9.71,57.36Z"/><path class="cls-32" d="M825.24,213.67l5.39-31.83.5-3L838.05,138l.5-2.95,15.87-93.77h0c.45-2.67-1.35-4.41-4-3.88L831,41.31l-2.94.6-13.68,2.75a7.44,7.44,0,0,0-5.5,5.85l-6.24,45.35-.41,3L788.4,199.31c-.37,2.68-1.76,2.94-3.09.58L767.84,168.8l-1.47-2.62L721.74,86.77l-1.66-3-8.7-15.48a7.22,7.22,0,0,0-7.24-3.3l-41.5,8.58a3.3,3.3,0,0,0-2.31,5.23l17.09,28.8,1.76,2.95,50.94,85.83,1.52,2.57,32.75,55.16,1.53,2.59,14.86,25a7.58,7.58,0,0,0,7.35,3.32l21-4a7.61,7.61,0,0,0,5.65-5.77h0L824.51,218Z"/><polygon class="cls-31" points="694.76 110.6 694.76 90.94 708.7 90.94 709.14 90.34 711.75 86.77 721.74 86.77 720.08 83.82 710.25 83.82 709.81 84.42 707.2 87.99 691.8 87.99 691.8 107.65 677.42 107.65 679.17 110.6 693.28 110.6 694.76 110.6"/><polygon class="cls-31" points="817.11 98.47 822.63 93.83 823.16 93.39 823.16 69.48 826.68 65.71 827.08 65.28 827.08 57.16 830.51 54.13 831 53.69 831 41.31 828.06 41.91 828.06 52.36 824.63 55.4 824.13 55.84 824.13 64.12 820.61 67.88 820.21 68.31 820.21 92.01 815.62 95.86 802.64 95.86 802.23 98.81 816.69 98.81 817.11 98.47"/><polygon class="cls-31" points="820.59 144.37 816.71 148.17 816.27 148.61 816.27 149.22 816.17 180.36 816.17 181.84 830.63 181.84 831.13 178.88 819.13 178.88 819.22 149.85 819.22 149.85 823.11 146.05 823.55 145.61 823.55 138 838.05 138 838.55 135.05 820.59 135.05 820.59 144.37"/><polygon class="cls-31" points="803.6 222.38 803.09 222.37 802.69 222.68 794.3 229.1 793.73 229.54 793.73 243.33 764.38 254.16 765.92 256.75 795.72 245.75 796.68 245.39 796.68 231.01 804.08 225.34 814.54 225.42 815.06 225.43 815.47 225.11 824.51 218.01 825.24 213.67 814.05 222.46 803.6 222.38"/><polygon class="cls-31" points="766.37 166.18 730.12 196.43 731.64 199 767.84 168.8 766.37 166.18"/><path class="cls-31" d="M716.6,149.17c29.61,11.83,37.4,50.61,32.64,94.56-2.06,19.06-2.48,43-21.12,45.6-6.34.89-13.5-.63-20.16-1.44-6-.73-12.82-3.12-18.72-2.4-3.59.44-6.32,3.36-9.6,4.32-7.29,2.14-16.36,1-26.4,1-6.14,0-12.37.1-17.76-1-3.25-.64-6.58-3.1-10.08-3.36-3.2-.24-6.44,1.53-10.08,1.92a190.17,190.17,0,0,1-33.12.48c-3.67-.32-7.72-2.45-11-2.4s-6.94,2.48-10.56,2.88c-12.83,1.42-26.32-4.95-37.44-3.84-5.18.52-10.42,5.12-17.28,5.76-9.9.94-26.16.36-36-1.43-3.69-.67-7.48-3.12-11-3.36-3.23-.22-6.91,1.58-10.56,1.92a234,234,0,0,1-30.72.48c-2.8-.15-5.61-1.12-8.16-1-4.42.27-8.79,3.34-13,3.84a161.67,161.67,0,0,1-34.08.47c-3.74-.38-7.54-2.35-11.52-2.39-5.39-.07-10.39,2.49-14.88,2.88C310,295,290.49,282.5,277.4,268.22c-5.79,2.78-9.5,7.92-14.88,11.52-24.06,16.11-65.12,11.47-86.4-5.28-3-2.38-7.33-9.66-11-9.6-3.16.05-8.67,7.41-11.52,9.6-11.33,8.68-26.59,15-45.6,16.32-28.6,1.92-51.45-8.77-66.24-22.56-7.58-7.08-18.51-18.7-13.44-33.12,2.61-7.42,10.25-15,15.84-21.6,2.06-2.43,5.15-4.8,5.28-7.2.24-4.32-6.82-10.75-8.64-13.92-8.25-14.39-10.89-38.14-2.88-56.16,9.55-21.48,34.78-37,69.12-34.56a90.41,90.41,0,0,1,37.92,11.52c16.27,9.35,33.15,18,27.84,42.72,6.86-1.47,10.8-6.35,16.8-9.12,20.86-9.63,54.24-8.95,73.44,3.36,2.41,1.55,6.1,5.25,8.16,5.28,3.82.05,8.51-7.65,12-9.12,7.82-3.3,33-3.48,44.16-2.4,4.46.43,9,3.55,12.48,3.36,3.76-.21,8.6-4.87,11.52-5.76,8.95-2.74,36.5-3.86,46.56-1,3.31,1,6.84,4.84,10.56,5.28,3.54.42,8.15-1.28,12-1.44,7.15-.33,15.18-.82,22.08-.48,5,.24,9.69,3.08,14.4,3.35,4.38.27,9.61-2,14.4-1.92a52.41,52.41,0,0,1,12,1.92c3.56.93,7.14,3.39,10.07,3.36,4.39,0,9.08-3.32,13-4.32a71.91,71.91,0,0,1,42.24,2.4c3.1,1.14,8.72,6.26,12,6.24,3.89,0,8.47-6.78,12-8.16,9.82-3.83,24.32-3.33,36-2.88,5.26.2,10,3.11,14.88,3.36,4.35.22,9-1.85,13.43-1.92a45.09,45.09,0,0,1,12,1.92c3.79,1,7.78,3.32,10.57,3.36,3.72,0,7.38-2.92,10.56-3.84a73.89,73.89,0,0,1,46.56,2.4Z"/><g class="cls-2"><g class="cls-2"><g class="cls-33"><g class="cls-2"><path class="cls-34" d="M636.6,215.16v8.68q0-4.56-.34-8.79a34,34,0,0,0-1.32-7.49,15.92,15.92,0,0,0-2.54-5.21,5,5,0,0,0-4.2-1.95q-4.92,0-6.77,2.31V194q1.85-2.33,6.77-2.32a5.07,5.07,0,0,1,4.2,1.95,16,16,0,0,1,2.54,5.21,34.19,34.19,0,0,1,1.32,7.49c.23,2.82.34,5.76.34,8.8"/><path class="cls-35" d="M621.43,194v8.68a5,5,0,0,0-.52.83l-.15.31v-8.68l.15-.31a5,5,0,0,1,.52-.83"/><path class="cls-36" d="M620.76,195.17v8.68a15.38,15.38,0,0,0-1.1,3.2v-8.68a15.38,15.38,0,0,1,1.1-3.2"/><path class="cls-37" d="M619.66,198.37v8.68a12.3,12.3,0,0,0-.3,2.68v-8.68a12.3,12.3,0,0,1,.3-2.68"/></g></g></g><g class="cls-2"><g class="cls-38"><g class="cls-2"><path class="cls-34" d="M578.88,221.37v8.68q0-6.59,0-12.83-.12-12.48-.45-24.64t-1-25.4v-8.69q.68,13.24,1,25.41t.45,24.64q0,6.24,0,12.83"/></g></g></g><g class="cls-2"><g class="cls-39"><g class="cls-2"><path class="cls-34" d="M695.36,208.21v8.68q0-8.89-2.54-12.7a8.14,8.14,0,0,0-7.18-3.79,7.83,7.83,0,0,0-6.47,3v-8.68a7.81,7.81,0,0,1,6.47-3,8.15,8.15,0,0,1,7.18,3.8q2.53,3.8,2.54,12.7"/><path class="cls-35" d="M679.17,194.72v8.68a11.37,11.37,0,0,0-1.34,2.22v-8.68a11.37,11.37,0,0,1,1.34-2.22"/><path class="cls-36" d="M677.83,196.94v8.68a18.62,18.62,0,0,0-1.24,3.8v-8.69a18.52,18.52,0,0,1,1.24-3.79"/><path class="cls-37" d="M676.59,200.73v8.69c-.08.38-.16.77-.23,1.18q-1.77,10.2-1.77,31V233q0-20.82,1.77-31c.07-.4.15-.8.23-1.18"/></g></g></g><polygon class="cls-40" points="619.36 201.05 619.36 209.73 618.13 269.36 618.13 260.68 619.36 201.05"/><g class="cls-2"><g class="cls-41"><g class="cls-2"><path class="cls-34" d="M690.74,262.12v8.69a3.73,3.73,0,0,1-3.38-3.71v-8.68a3.72,3.72,0,0,0,3.38,3.7"/></g></g></g><polygon class="cls-42" points="693.72 262.5 693.72 271.18 690.74 270.81 690.74 262.12 693.72 262.5"/><g class="cls-2"><g class="cls-43"><g class="cls-2"><path class="cls-37" d="M618.13,260.68v8.68a4.27,4.27,0,0,1-.1.81v-8.68a4.38,4.38,0,0,0,.1-.81"/><path class="cls-36" d="M618,261.49v8.68a3.81,3.81,0,0,1-.3.88v-8.68a4,4,0,0,0,.3-.88"/><path class="cls-35" d="M617.73,262.37v8.68a3.72,3.72,0,0,1-.54.87v-8.68a3.94,3.94,0,0,0,.54-.87"/><path class="cls-34" d="M617.19,263.24v8.68a4.47,4.47,0,0,1-3.4,1.7v-8.69a4.43,4.43,0,0,0,3.4-1.69"/></g></g></g><polygon class="cls-42" points="613.79 264.93 613.79 273.62 582.97 274.13 582.97 265.45 613.79 264.93"/><g class="cls-2"><g class="cls-44"><g class="cls-2"><path class="cls-34" d="M583,265.45v8.68a4.15,4.15,0,0,1-4.24-4.12v-8.68a4.16,4.16,0,0,0,4.24,4.12"/></g></g></g><g class="cls-2"><g class="cls-45"><g class="cls-2"><path class="cls-37" d="M732.91,216v8.68a188.54,188.54,0,0,1-1.65,24.52c-.32,2.4-.64,4.81-1,7.2-.42,2.85-.78,5.66-1,8.54-.15,1.87-.34,3.74-.66,5.6-.13.72-.16,1.64-.34,2.48v-8.68c.18-.84.21-1.76.34-2.48.32-1.86.51-3.73.66-5.6.25-2.88.61-5.69,1-8.54.35-2.4.67-4.8,1-7.2A188.66,188.66,0,0,0,732.91,216"/><path class="cls-36" d="M728.24,264.37v8.68a5.33,5.33,0,0,1-.3.93V265.3a5.33,5.33,0,0,0,.3-.93"/><path class="cls-35" d="M727.94,265.3V274a2.62,2.62,0,0,1-.33.53v-8.69a2.3,2.3,0,0,0,.33-.52"/><path class="cls-34" d="M727.61,265.82v8.69l-.1.12a2,2,0,0,1-1.53.6,17.87,17.87,0,0,1-2.11-.29c-1.91-.21-3.81-.63-5.72-.85-3.17-.36-6.34-.69-9.5-1.08l-14.93-1.83V262.5l14.93,1.83c3.16.39,6.33.72,9.5,1.08,1.91.22,3.81.64,5.72.85a17.87,17.87,0,0,0,2.11.29,1.93,1.93,0,0,0,1.53-.61.58.58,0,0,0,.1-.12"/></g></g></g><g class="cls-2"><g class="cls-46"><g class="cls-2"><path class="cls-34" d="M640,266.91v8.68a4.18,4.18,0,0,1-4.16-4.11V262.8a4.18,4.18,0,0,0,4.16,4.11"/></g></g></g><polygon class="cls-42" points="643.53 266.99 643.53 275.67 640.03 275.59 640.03 266.91 643.53 266.99"/><polygon class="cls-42" points="651.1 267.15 651.1 275.83 643.53 275.67 643.53 266.99 651.1 267.15"/><g class="cls-2"><g class="cls-47"><g class="cls-2"><path class="cls-37" d="M675.93,266v8.68a3.1,3.1,0,0,1,0,.54v-8.68a3.1,3.1,0,0,0,0-.54"/><path class="cls-36" d="M675.88,266.56v8.68a1.42,1.42,0,0,1-.1.29v-8.69a1.33,1.33,0,0,0,.1-.28"/><path class="cls-35" d="M675.78,266.84v8.69a1.27,1.27,0,0,1-.13.22v-8.68a1,1,0,0,0,.13-.23"/><path class="cls-34" d="M675.65,267.07v8.68a1.55,1.55,0,0,1-.89.49,8.85,8.85,0,0,1-1.87.18c-1.27,0-2.59-.18-3.77-.21l-8.75-.18-9.27-.2v-8.68l9.27.19,8.75.19c1.18,0,2.5.21,3.77.21a8.85,8.85,0,0,0,1.87-.18,1.55,1.55,0,0,0,.89-.49"/></g></g></g><path class="cls-48" d="M731,192.47A137.45,137.45,0,0,1,732.91,216a188.66,188.66,0,0,1-1.65,24.52c-.32,2.4-.64,4.8-1,7.2-.42,2.85-.78,5.66-1,8.54-.15,1.87-.34,3.74-.66,5.6-.22,1.23-.16,3.06-1.07,4.05a1.93,1.93,0,0,1-1.53.61,17.87,17.87,0,0,1-2.11-.29c-1.91-.21-3.81-.63-5.72-.85-3.17-.36-6.34-.69-9.5-1.08l-14.93-1.83-3-.38a3.73,3.73,0,0,1-3.28-4.6c.22-.95,4.4-19,5.8-27.71a142.23,142.23,0,0,0,2.1-21.6q0-8.9-2.54-12.7a8.15,8.15,0,0,0-7.18-3.8q-7.51,0-9.28,10.2t-1.77,31c0,1.88,0,4.35.11,7.39s.16,6.22.23,9.54.21,6.6.44,9.77c.12,1.75.45,3.48.5,5.25,0,1.17.36,2.32-1.11,2.66a8.85,8.85,0,0,1-1.87.18c-1.27,0-2.59-.18-3.77-.21l-8.75-.19-9.27-.19-7.56-.16-3.51-.08a4.17,4.17,0,0,1-4.15-4.27c0-.18.12-3.45.28-6.57.15-3.32.26-6.66.33-10q.1-5.33.11-12.49V215.16c0-3-.11-6-.34-8.8a34.19,34.19,0,0,0-1.32-7.49,16,16,0,0,0-2.54-5.21,5.07,5.07,0,0,0-4.2-1.95q-5.75,0-7.29,3.15a14,14,0,0,0-1.55,6.19l-1.23,59.63a4.42,4.42,0,0,1-4.34,4.25l-30.82.52a4.16,4.16,0,0,1-4.24-4.12c0-.86,0-17.16.1-26.43s.07-18,0-26.36-.22-16.54-.45-24.64-.54-16.58-1-25.41l31.77-.76a4.69,4.69,0,0,1,4.68,4.06q.2,1.71.36,3.42a15.39,15.39,0,0,0,.34,2.63c.12.5.46,1.33,1,1.45a1.78,1.78,0,0,0,1.31-.64c.22-.22.42-.46.63-.71a23.74,23.74,0,0,1,4.86-4.34,28.44,28.44,0,0,1,6.73-3.37,24.33,24.33,0,0,1,8-1.29q8.4,0,13.91,3.79a21.28,21.28,0,0,1,5.15,4.82,5.52,5.52,0,0,0,2.4,2.12c1.57.05,2.56-1.59,3.35-2.31a34.38,34.38,0,0,1,3.31-2.69q1.85-1.32,3.8-2.48,7.62-4.56,18.23-4.56,14.13,0,23,4.34A34.61,34.61,0,0,1,724.08,174,48.19,48.19,0,0,1,731,192.47Z"/></g><g class="cls-2"><g class="cls-2"><g class="cls-49"><g class="cls-2"><path class="cls-34" d="M469.8,215.16v8.68q0-4.56-.33-8.79a34.54,34.54,0,0,0-1.33-7.49,15.92,15.92,0,0,0-2.53-5.21,5.06,5.06,0,0,0-4.2-1.95c-3.28,0-5.54.76-6.76,2.31V194c1.22-1.54,3.48-2.31,6.76-2.31a5.09,5.09,0,0,1,4.2,1.95,16,16,0,0,1,2.53,5.21,34.76,34.76,0,0,1,1.33,7.49c.22,2.82.33,5.76.33,8.8"/><path class="cls-35" d="M454.65,194v8.69a4.19,4.19,0,0,0-.53.83l-.17.36v-8.69c.06-.11.11-.23.17-.35a4.58,4.58,0,0,1,.53-.84"/><path class="cls-36" d="M454,195.21v8.69a15.31,15.31,0,0,0-1.08,3.13v-8.68a15.6,15.6,0,0,1,1.08-3.14"/><path class="cls-37" d="M452.87,198.35V207a12.55,12.55,0,0,0-.3,2.7v-8.68a12.48,12.48,0,0,1,.3-2.7"/></g></g></g><g class="cls-2"><g class="cls-50"><g class="cls-2"><path class="cls-34" d="M412.09,221.37v8.68q0-6.59,0-12.83-.12-12.48-.44-24.64t-1-25.39V158.5q.66,13.25,1,25.4t.44,24.64q0,6.24,0,12.83"/></g></g></g><g class="cls-2"><g class="cls-51"><g class="cls-2"><path class="cls-34" d="M528.57,208.21v8.68c0-5.93-.86-10.17-2.55-12.7a8.13,8.13,0,0,0-7.17-3.79,7.8,7.8,0,0,0-6.46,3v-8.68a7.81,7.81,0,0,1,6.46-3,8.13,8.13,0,0,1,7.17,3.8c1.69,2.53,2.55,6.77,2.55,12.7"/><path class="cls-35" d="M512.39,194.72v8.68a10.93,10.93,0,0,0-1.35,2.22v-8.68a10.93,10.93,0,0,1,1.35-2.22"/><path class="cls-36" d="M511,196.94v8.68a18.62,18.62,0,0,0-1.24,3.8v-8.68a18.42,18.42,0,0,1,1.24-3.8"/><path class="cls-37" d="M509.8,200.74v8.68c-.08.38-.16.77-.23,1.18q-1.77,10.2-1.77,31V233q0-20.82,1.77-31c.07-.4.15-.79.23-1.17"/></g></g></g><polygon class="cls-40" points="452.57 201.05 452.57 209.73 451.33 269.36 451.33 260.68 452.57 201.05"/><g class="cls-2"><g class="cls-52"><g class="cls-2"><path class="cls-34" d="M524,262.13v8.68a3.72,3.72,0,0,1-3.38-3.69v-8.69a3.73,3.73,0,0,0,3.38,3.7"/></g></g></g><g class="cls-2"><g class="cls-53"><g class="cls-2"><path class="cls-37" d="M451.33,260.68v8.68a4.27,4.27,0,0,1-.09.81v-8.68a4.37,4.37,0,0,0,.09-.81"/><path class="cls-36" d="M451.24,261.49v8.68a4.35,4.35,0,0,1-.3.88v-8.68a4.57,4.57,0,0,0,.3-.88"/><path class="cls-35" d="M450.94,262.37v8.68a4.53,4.53,0,0,1-.54.87v-8.68a4.86,4.86,0,0,0,.54-.87"/><path class="cls-34" d="M450.4,263.24v8.68a4.49,4.49,0,0,1-3.41,1.7v-8.69a4.45,4.45,0,0,0,3.41-1.69"/></g></g></g><g class="cls-2"><g class="cls-54"><g class="cls-2"><path class="cls-34" d="M416.18,265.45v8.68a4.16,4.16,0,0,1-4.25-4.12v-8.68a4.17,4.17,0,0,0,4.25,4.12"/></g></g></g><polygon class="cls-42" points="446.99 264.93 446.99 273.62 416.18 274.13 416.18 265.45 446.99 264.93"/><g class="cls-2"><g class="cls-55"><g class="cls-2"><path class="cls-37" d="M566.13,216v8.68a187,187,0,0,1-1.67,24.53q-1.73,13.06-4.08,26.05v-8.68q2.36-13,4.08-26.05A187.27,187.27,0,0,0,566.13,216"/></g></g></g><polygon class="cls-42" points="560.38 266.61 560.38 275.29 523.95 270.81 523.95 262.13 560.38 266.61"/><g class="cls-2"><g class="cls-56"><g class="cls-2"><path class="cls-34" d="M473.17,266.91v8.68a4.16,4.16,0,0,1-4.09-4.11V262.8a4.16,4.16,0,0,0,4.09,4.11"/></g></g></g><path class="cls-48" d="M557.29,174a48.34,48.34,0,0,1,7,18.46A137.25,137.25,0,0,1,566.13,216a187.27,187.27,0,0,1-1.67,24.53q-1.73,13.06-4.08,26.05L524,262.13a3.72,3.72,0,0,1-3.27-4.6c.22-.95,4.39-19,5.78-27.72a141.15,141.15,0,0,0,2.11-21.6c0-5.93-.86-10.17-2.55-12.7a8.13,8.13,0,0,0-7.17-3.8q-7.51,0-9.28,10.2t-1.77,31c0,1.89,0,4.35.11,7.39s.15,6.22.22,9.55.23,6.59.44,9.77.48,5.86.78,8l-36.18-.78a4.16,4.16,0,0,1-4.09-4.27c0-.18.13-3.45.28-6.56q.22-5,.33-10c.07-3.55.11-7.7.11-12.48V215.16c0-3-.11-6-.33-8.8a34.76,34.76,0,0,0-1.33-7.49,16,16,0,0,0-2.53-5.21,5.09,5.09,0,0,0-4.2-1.95q-5.75,0-7.29,3.15a14,14,0,0,0-1.55,6.19l-1.24,59.63a4.41,4.41,0,0,1-4.34,4.25l-30.81.52a4.17,4.17,0,0,1-4.25-4.12c0-.86,0-17.16.11-26.42s.07-18,0-26.37-.23-16.54-.44-24.64-.56-16.57-1-25.4l31.76-.77a4.7,4.7,0,0,1,4.69,4.06l.21,2,.29,2.73c.08.77-.08,2.2,1.06,2.27s1.46-.79,2.21-1.38c1.6-1.24,3.05-2.65,4.73-3.81a27.94,27.94,0,0,1,6.74-3.36,24.06,24.06,0,0,1,7.95-1.3q8.4,0,13.92,3.79a21.45,21.45,0,0,1,5.5,5.33c.52.74.8,1.42,1.83,1.51a3.39,3.39,0,0,0,.88-.09c1.12-.18,1.79-1.29,2.56-2a36.62,36.62,0,0,1,3.28-2.69c1.28-.93,2.6-1.79,4-2.6q7.63-4.56,18.24-4.56,14.13,0,23,4.34A34.55,34.55,0,0,1,557.29,174Z"/><polygon class="cls-42" points="509.35 267.69 509.35 276.37 473.17 275.59 473.17 266.91 509.35 267.69"/></g><g class="cls-2"><g class="cls-2"><g class="cls-57"><g class="cls-2"><path class="cls-34" d="M356.35,218.27V227q0-10-.1-17.42t-.44-14.36q-.35-7-.9-14.59t-1.21-18.07v-8.69q.66,10.45,1.21,18.07t.9,14.59c.21,4.65.36,9.43.44,14.37s.1,10.74.1,17.42"/></g></g></g><g class="cls-2"><g class="cls-58"><g class="cls-2"><path class="cls-37" d="M329.79,161v8.69a4,4,0,0,1-.06.67c-.07.44-1.51,8.91-2.4,15.88q-1.11,9.15-2.21,20a210.89,210.89,0,0,0-1.11,22v-8.68a210.89,210.89,0,0,1,1.11-22q1.1-10.89,2.21-20c.89-7,2.33-15.44,2.4-15.88a4,4,0,0,0,.06-.68"/></g></g></g><g class="cls-2"><g class="cls-59"><g class="cls-2"><path class="cls-34" d="M359.73,261.46v8.69c0-1.11-.22-2.11-1-2.38a1,1,0,0,0-.37-.07c-1.26,0-2.67,1.84-3.52,2.47a42.19,42.19,0,0,1-6.75,4,40,40,0,0,1-7.65,2.72,32.09,32.09,0,0,1-7.75,1q-13.08,0-22.49-3.57a39,39,0,0,1-15.39-10.16,41.59,41.59,0,0,1-8.87-16A72.67,72.67,0,0,1,283,227v-8.68a72.72,72.72,0,0,0,2.88,21.18,41.67,41.67,0,0,0,8.87,16,39,39,0,0,0,15.39,10.16q9.42,3.57,22.49,3.56a32.06,32.06,0,0,0,7.75-1,40.73,40.73,0,0,0,7.65-2.72,42.94,42.94,0,0,0,6.75-4c.85-.63,2.26-2.47,3.52-2.47a1.19,1.19,0,0,1,.37.06c.82.28,1,1.28,1,2.38"/></g></g></g><g class="cls-2"><g class="cls-60"><g class="cls-2"><path class="cls-34" d="M363.72,268.89v8.69a4.16,4.16,0,0,1-4.27-4.11v-8.68a4.15,4.15,0,0,0,4.27,4.1"/></g></g></g><polygon class="cls-42" points="398.45 268.12 398.45 276.81 363.72 277.58 363.72 268.89 398.45 268.12"/><path class="cls-48" d="M396.34,210.65q.56,13.5,1.11,27.48t1,30l-34.73.77a4.15,4.15,0,0,1-4.27-4.1c0-1.28,1-5.11-.76-5.71a1.19,1.19,0,0,0-.37-.06c-1.26,0-2.67,1.84-3.52,2.47a42.94,42.94,0,0,1-6.75,4,40.73,40.73,0,0,1-7.65,2.72,32.06,32.06,0,0,1-7.75,1q-13.08,0-22.49-3.56a39,39,0,0,1-15.39-10.16,41.67,41.67,0,0,1-8.87-16A72.72,72.72,0,0,1,283,218.27q0-8.28.78-18.72.72-9.93,1.88-19.81,1.11-10.92,2.66-21.78l37.83-.39a3.43,3.43,0,0,1,3.56,4.11c-.07.44-1.51,8.91-2.4,15.88q-1.11,9.15-2.21,20a210.89,210.89,0,0,0-1.11,22,16.17,16.17,0,0,0,3.76,10.78q3.76,4.47,11.3,4.46a17.86,17.86,0,0,0,12.19-4.46q5.08-4.47,5.09-12.08,0-10-.1-17.42c-.08-4.94-.23-9.72-.44-14.37s-.53-9.51-.9-14.59-.77-11.1-1.21-18.07l36.28-.77a4.3,4.3,0,0,1,4.38,4.11c0,.82.51,16.59.87,26S396,201.65,396.34,210.65Z"/></g><g class="cls-2"><polygon class="cls-42" points="275.07 193.66 275.07 202.35 248.27 208.93 248.27 200.25 275.07 193.66"/><g class="cls-2"><g class="cls-61"><g class="cls-2"><path class="cls-34" d="M248.27,200.25v8.68a4.53,4.53,0,0,1-1.1.13,5.24,5.24,0,0,1-4.71-3,22.29,22.29,0,0,0-4.39-6.14q-4.53-4.56-13.81-4.56a15.68,15.68,0,0,0-6.29,1.41,17.28,17.28,0,0,0-5.74,4.13v-8.69a17.39,17.39,0,0,1,5.74-4.12,15.53,15.53,0,0,1,6.29-1.42q9.28,0,13.81,4.57a22.29,22.29,0,0,1,4.39,6.14,5.26,5.26,0,0,0,4.71,3,4.53,4.53,0,0,0,1.1-.13"/></g></g></g><g class="cls-2"><g class="cls-62"><g class="cls-2"><path class="cls-34" d="M212.23,192.25v8.69c-.34.35-.66.73-1,1.13v-8.68c.32-.4.64-.78,1-1.14"/><path class="cls-35" d="M211.25,193.39v8.68a21.69,21.69,0,0,0-2.63,4.32v-8.68a21.69,21.69,0,0,1,2.63-4.32"/><path class="cls-36" d="M208.62,197.71v8.68c-.2.45-.4.91-.59,1.39a20.63,20.63,0,0,0-1,3.31v-8.68a20.32,20.32,0,0,1,1-3.31c.19-.48.39-.94.59-1.39"/><path class="cls-37" d="M207,202.41v8.68a30,30,0,0,0-.64,6.46v-8.69a30,30,0,0,1,.64-6.45"/></g></g></g><g class="cls-2"><g class="cls-63"><g class="cls-2"><path class="cls-37" d="M273.58,228.17v8.68a4.29,4.29,0,0,1-.1.86V229a4.29,4.29,0,0,0,.1-.86"/><path class="cls-36" d="M273.48,229v8.68a1.89,1.89,0,0,1-.09.34,90.82,90.82,0,0,1-3.89,10.21v-8.69a90,90,0,0,0,3.89-10.21,2,2,0,0,0,.09-.33"/><path class="cls-35" d="M269.5,239.57v8.69a39.85,39.85,0,0,1-2.27,4.23,55.56,55.56,0,0,1-3.36,4.73v-8.69a53.84,53.84,0,0,0,3.36-4.72,39.08,39.08,0,0,0,2.27-4.24"/><path class="cls-34" d="M263.87,248.53v8.69a48.28,48.28,0,0,1-8.23,8.19A46.76,46.76,0,0,1,241.06,273a54.7,54.7,0,0,1-16.36,2.5q-14.79,0-25.4-4.56a49.79,49.79,0,0,1-17.56-12.26,48.83,48.83,0,0,1-10.27-17.91,68.8,68.8,0,0,1-3.31-21.5v-8.68a68.8,68.8,0,0,0,3.31,21.5A48.92,48.92,0,0,0,181.74,250a49.79,49.79,0,0,0,17.56,12.26q10.6,4.56,25.4,4.56a54.7,54.7,0,0,0,16.36-2.5,47.18,47.18,0,0,0,14.58-7.59,48,48,0,0,0,8.23-8.2"/></g></g></g><path class="cls-48" d="M212.23,192.25a21.49,21.49,0,0,0-4.2,6.85,26,26,0,0,0-1.66,9.76q0,10.63,5.41,17.15a17.4,17.4,0,0,0,14,6.51,14,14,0,0,0,5.3-1.19,26.78,26.78,0,0,0,5.63-3.26,26.11,26.11,0,0,0,5-4.88,14.48,14.48,0,0,0,2.87-6.3l26,7.32a4.1,4.1,0,0,1,2.85,5.15c-.14.47-2.85,9.24-6.16,14.45a50.2,50.2,0,0,1-11.59,12.92,47.18,47.18,0,0,1-14.58,7.59,54.7,54.7,0,0,1-16.36,2.5q-14.79,0-25.4-4.56A49.79,49.79,0,0,1,181.74,250a48.92,48.92,0,0,1-10.27-17.91,68.8,68.8,0,0,1-3.31-21.5A71.68,71.68,0,0,1,171.8,187a49.28,49.28,0,0,1,10.71-18A46.94,46.94,0,0,1,200,157.52a65.13,65.13,0,0,1,23.64-4q21.65,0,34.47,11.07t17,29.09l-26.81,6.59a4.53,4.53,0,0,1-1.1.13,5.26,5.26,0,0,1-4.71-3,22.29,22.29,0,0,0-4.39-6.14q-4.53-4.56-13.81-4.57a15.53,15.53,0,0,0-6.29,1.42A17.39,17.39,0,0,0,212.23,192.25Z"/></g><g class="cls-2"><polygon class="cls-64" points="157.75 140.87 157.75 149.56 145 168.9 145 160.22 157.75 140.87"/><g class="cls-2"><g class="cls-65"><g class="cls-2"><path class="cls-35" d="M145,160.22v8.68a2.32,2.32,0,0,1-.22.3v-8.68a2.32,2.32,0,0,0,.22-.3"/><path class="cls-34" d="M144.78,160.52v8.68a3.63,3.63,0,0,1-2.86,1.43,3.76,3.76,0,0,1-2.47-.95,69.25,69.25,0,0,0-6.75-5,98,98,0,0,0-10.43-5.77,59.49,59.49,0,0,0-9.53-3.59,30.71,30.71,0,0,0-7.76-1.2c-2.66,0-4.62.66-5.87,2-.15.16-.3.32-.43.49V147.9a5,5,0,0,1,.43-.49q1.88-2,5.87-2a30.65,30.65,0,0,1,7.76,1.19,60.57,60.57,0,0,1,9.53,3.6A98,98,0,0,1,132.7,156a69.25,69.25,0,0,1,6.75,5,3.75,3.75,0,0,0,2.47.94,3.65,3.65,0,0,0,2.86-1.42"/><path class="cls-35" d="M98.68,147.9v8.68a6.61,6.61,0,0,0-.8,1.29v-8.68a6.61,6.61,0,0,1,.8-1.29"/><path class="cls-36" d="M97.88,149.19v8.68a6.57,6.57,0,0,0-.47,1.42V150.6a6.49,6.49,0,0,1,.47-1.41"/><path class="cls-37" d="M97.41,150.6v8.69a8.1,8.1,0,0,0-.19,1.81v-8.68a8.19,8.19,0,0,1,.19-1.82"/></g></g></g><g class="cls-2"><g class="cls-66"><g class="cls-2"><path class="cls-34" d="M111,226.29V235q0-4.14-4.55-7.84a95.29,95.29,0,0,0-11.31-7.74c-4.51-2.69-9.39-5.58-14.63-8.71a86,86,0,0,1-14.64-11,59.1,59.1,0,0,1-11.31-14.49A38.28,38.28,0,0,1,50,166.33v-8.68a38.24,38.24,0,0,0,4.54,18.85A59,59,0,0,0,65.84,191a85.39,85.39,0,0,0,14.64,11l14.63,8.72a96.54,96.54,0,0,1,11.31,7.73q4.55,3.72,4.55,7.85"/></g></g></g><g class="cls-2"><g class="cls-67"><g class="cls-2"><path class="cls-37" d="M158.64,221.72v8.68a46.72,46.72,0,0,1-1,10.06v-8.68a46.72,46.72,0,0,0,1-10.06"/><path class="cls-36" d="M157.61,231.78v8.68a36.79,36.79,0,0,1-2.56,7.63v-8.68a36.79,36.79,0,0,0,2.56-7.63"/><path class="cls-35" d="M155.05,239.41v8.68c-.43.92-.89,1.81-1.39,2.68a46.92,46.92,0,0,1-3.72,5.47v-8.68a46.21,46.21,0,0,0,3.72-5.48c.5-.86,1-1.75,1.39-2.67"/><path class="cls-34" d="M149.94,247.56v8.68a43.43,43.43,0,0,1-9.26,8.69,57.78,57.78,0,0,1-18.07,8.29,78.23,78.23,0,0,1-20.29,2.72q-20.4,0-34.26-7.41T43.12,246.09V237.4q11.09,15,24.94,22.44t34.26,7.41a77.8,77.8,0,0,0,20.29-2.72,57.53,57.53,0,0,0,18.07-8.28,43.69,43.69,0,0,0,9.26-8.69"/></g></g></g><path class="cls-48" d="M142.68,185.54a54.33,54.33,0,0,1,11.42,15.14q4.53,8.83,4.54,21,0,11.76-5,20.36a43.68,43.68,0,0,1-13,14.17,57.53,57.53,0,0,1-18.07,8.28,77.8,77.8,0,0,1-20.29,2.72q-20.4,0-34.26-7.41T43.12,237.4l15.75-19.58a3.59,3.59,0,0,1,2.81-1.41,3.66,3.66,0,0,1,2.69,1.25A40,40,0,0,0,69.28,222a61.63,61.63,0,0,0,10.09,6.32,72,72,0,0,0,11.09,4.47A36,36,0,0,0,101,234.58c3.25,0,5.73-.59,7.43-1.75s2.55-3.34,2.55-6.54q0-4.14-4.55-7.85a96.54,96.54,0,0,0-11.31-7.73L80.48,202a85.39,85.39,0,0,1-14.64-11,59,59,0,0,1-11.31-14.5A38.24,38.24,0,0,1,50,157.65a39.86,39.86,0,0,1,4-18.3,39.23,39.23,0,0,1,10.76-13.18,47.71,47.71,0,0,1,15.63-8.07,64,64,0,0,1,18.85-2.72q17.73,0,31.81,6.43a92.09,92.09,0,0,1,26.72,19.06L145,160.22a3.68,3.68,0,0,1-3.08,1.72,3.75,3.75,0,0,1-2.47-.94,69.25,69.25,0,0,0-6.75-5,98,98,0,0,0-10.43-5.77,60.57,60.57,0,0,0-9.53-3.6,30.65,30.65,0,0,0-7.76-1.19q-4,0-5.87,2a6.92,6.92,0,0,0-1.89,5q0,3.93,4.54,7.3a85.92,85.92,0,0,0,11.42,7q7.44,3.92,14.75,8.07A80.73,80.73,0,0,1,142.68,185.54Z"/></g></g></g></svg>