<?xml version="1.0" encoding="UTF-8" standalone="no"?>
<!-- Created with Inkscape (http://www.inkscape.org/) -->
<svg
   xmlns:dc="http://purl.org/dc/elements/1.1/"
   xmlns:cc="http://web.resource.org/cc/"
   xmlns:rdf="http://www.w3.org/1999/02/22-rdf-syntax-ns#"
   xmlns:svg="http://www.w3.org/2000/svg"
   xmlns="http://www.w3.org/2000/svg"
   xmlns:xlink="http://www.w3.org/1999/xlink"
   xmlns:sodipodi="http://inkscape.sourceforge.net/DTD/sodipodi-0.dtd"
   xmlns:inkscape="http://www.inkscape.org/namespaces/inkscape"
   width="128.00000px"
   height="128.00000px"
   id="svg1306"
   sodipodi:version="0.32"
   inkscape:version="0.43"
   sodipodi:docbase="/usr/home/sev/projects/scummvm/web/images/save"
   sodipodi:docname="Scummvm_WIP2.svg">
  <defs
     id="defs1308">
    <linearGradient
       id="linearGradient2851">
      <stop
         id="stop2853"
         offset="0"
         style="stop-color:#ffffff;stop-opacity:1;" />
      <stop
         id="stop2855"
         offset="1"
         style="stop-color:#ffffff;stop-opacity:0;" />
    </linearGradient>
    <linearGradient
       id="linearGradient2685">
      <stop
         style="stop-color:#000800;stop-opacity:1"
         offset="0"
         id="stop2687" />
      <stop
         id="stop2689"
         offset="0.75999999"
         style="stop-color:#47f20c;stop-opacity:0.11340206;" />
      <stop
         style="stop-color:#0cf249;stop-opacity:0;"
         offset="1"
         id="stop2691" />
    </linearGradient>
    <linearGradient
       id="linearGradient2577">
      <stop
         id="stop2579"
         offset="0"
         style="stop-color:#669e2a;stop-opacity:0.28865978;" />
      <stop
         style="stop-color:#47a02a;stop-opacity:0.11340206;"
         offset="0.75999999"
         id="stop2581" />
      <stop
         id="stop2583"
         offset="1"
         style="stop-color:#0c9649;stop-opacity:0;" />
    </linearGradient>
    <linearGradient
       id="linearGradient2507">
      <stop
         style="stop-color:#ffffff;stop-opacity:0.39175257;"
         offset="0"
         id="stop2509" />
      <stop
         style="stop-color:#ffffff;stop-opacity:0;"
         offset="1"
         id="stop2511" />
    </linearGradient>
    <linearGradient
       id="linearGradient2497">
      <stop
         id="stop2505"
         offset="0"
         style="stop-color:#000000;stop-opacity:0;" />
      <stop
         style="stop-color:#000000;stop-opacity:0.76288658;"
         offset="1"
         id="stop2501" />
    </linearGradient>
    <linearGradient
       id="linearGradient2915">
      <stop
         style="stop-color:#9af20c;stop-opacity:1;"
         offset="0"
         id="stop2917" />
      <stop
         id="stop2847"
         offset="0.16071428"
         style="stop-color:#9af20c;stop-opacity:0.49803922;" />
      <stop
         style="stop-color:#4cb71b;stop-opacity:0.50588238;"
         offset="0.3705357"
         id="stop2849" />
      <stop
         style="stop-color:#5fc847;stop-opacity:0.02061856;"
         offset="1"
         id="stop2919" />
    </linearGradient>
    <linearGradient
       id="linearGradient2905">
      <stop
         style="stop-color:#a7f52a;stop-opacity:1.0000000;"
         offset="0.0000000"
         id="stop2907" />
      <stop
         id="stop2913"
         offset="0.75999999"
         style="stop-color:#9af20c;stop-opacity:0.49803922;" />
      <stop
         style="stop-color:#9af20c;stop-opacity:0;"
         offset="1"
         id="stop2909" />
    </linearGradient>
    <linearGradient
       id="linearGradient2881">
      <stop
         style="stop-color:#000000;stop-opacity:0.098039217;"
         offset="0.0000000"
         id="stop2883" />
      <stop
         style="stop-color:#000000;stop-opacity:0;"
         offset="1"
         id="stop2885" />
    </linearGradient>
    <linearGradient
       inkscape:collect="always"
       id="linearGradient2781">
      <stop
         style="stop-color:#000000;stop-opacity:1;"
         offset="0"
         id="stop2783" />
      <stop
         style="stop-color:#000000;stop-opacity:0;"
         offset="1"
         id="stop2785" />
    </linearGradient>
    <linearGradient
       id="linearGradient4288">
      <stop
         style="stop-color:#000000;stop-opacity:1;"
         offset="0"
         id="stop4290" />
      <stop
         id="stop4296"
         offset="0.95999998"
         style="stop-color:#000000;stop-opacity:1.0000000;" />
      <stop
         style="stop-color:#000000;stop-opacity:0;"
         offset="1"
         id="stop4292" />
    </linearGradient>
    <linearGradient
       y2="246.00000"
       x2="136.85472"
       y1="12.000000"
       x1="136.14528"
       gradientTransform="matrix(0.849785,0.000000,0.000000,0.849785,19.17902,19.22747)"
       gradientUnits="userSpaceOnUse"
       id="linearGradient6593"
       xlink:href="#linearGradient3613"
       inkscape:collect="always" />
    <linearGradient
       id="linearGradient3613">
      <stop
         id="stop3615"
         offset="0"
         style="stop-color:#b0cb32;stop-opacity:1;" />
      <stop
         id="stop3617"
         offset="1.0000000"
         style="stop-color:#6ba028;stop-opacity:1.0000000;" />
    </linearGradient>
    <linearGradient
       inkscape:collect="always"
       xlink:href="#linearGradient3613"
       id="linearGradient2103"
       gradientUnits="userSpaceOnUse"
       gradientTransform="matrix(0.328671,0.000000,0.000000,0.424893,15.86889,11.54220)"
       x1="136.14528"
       y1="12.000000"
       x2="136.85472"
       y2="246.00000" />
    <radialGradient
       inkscape:collect="always"
       xlink:href="#linearGradient2781"
       id="radialGradient2789"
       cx="64.564903"
       cy="65.756081"
       fx="64.564903"
       fy="65.756081"
       r="58.068558"
       gradientTransform="matrix(1.309978,9.597097e-7,-8.358400e-7,1.140899,-20.01367,-9.265080)"
       gradientUnits="userSpaceOnUse" />
    <linearGradient
       inkscape:collect="always"
       xlink:href="#linearGradient3613"
       id="linearGradient1393"
       gradientUnits="userSpaceOnUse"
       gradientTransform="matrix(0.328671,0,0,0.424893,15.86889,11.5422)"
       x1="136.14528"
       y1="12"
       x2="136.85472"
       y2="246" />
    <radialGradient
       inkscape:collect="always"
       xlink:href="#linearGradient2881"
       id="radialGradient2887"
       cx="83.036148"
       cy="30.915863"
       fx="83.036148"
       fy="30.915863"
       r="16.416874"
       gradientTransform="matrix(0.528373,0.274104,-0.717959,1.383969,62.46790,-32.40645)"
       gradientUnits="userSpaceOnUse" />
    <linearGradient
       inkscape:collect="always"
       xlink:href="#linearGradient2915"
       id="linearGradient2921"
       x1="95.625"
       y1="35.559593"
       x2="81.846497"
       y2="30.309593"
       gradientUnits="userSpaceOnUse" />
    <radialGradient
       gradientUnits="userSpaceOnUse"
       gradientTransform="matrix(1.173425,0.177078,-0.403738,2.675411,19.24910,-164.0319)"
       r="14.937185"
       fy="90.622849"
       fx="99.978233"
       cy="90.622849"
       cx="99.978233"
       id="radialGradient3020"
       xlink:href="#linearGradient3014"
       inkscape:collect="always" />
    <linearGradient
       gradientUnits="userSpaceOnUse"
       y2="92.593750"
       x2="64.000000"
       y1="109.43750"
       x1="64.000000"
       id="linearGradient3004"
       xlink:href="#linearGradient2998"
       inkscape:collect="always" />
    <linearGradient
       gradientUnits="userSpaceOnUse"
       y2="39.453125"
       x2="44.171875"
       y1="35.703125"
       x1="30.156250"
       id="linearGradient2963"
       xlink:href="#linearGradient2957"
       inkscape:collect="always" />
    <linearGradient
       gradientUnits="userSpaceOnUse"
       y2="33.453125"
       x2="90.671875"
       y1="37.203125"
       x1="97.375000"
       id="linearGradient2177"
       xlink:href="#linearGradient2915"
       inkscape:collect="always" />
    <radialGradient
       gradientUnits="userSpaceOnUse"
       gradientTransform="matrix(0.528373,0.274104,-0.717959,1.383969,62.46790,-32.40645)"
       r="16.416874"
       fy="30.915863"
       fx="83.036148"
       cy="30.915863"
       cx="83.036148"
       id="radialGradient2175"
       xlink:href="#linearGradient2881"
       inkscape:collect="always" />
    <linearGradient
       y2="246.00000"
       x2="136.85472"
       y1="12.000000"
       x1="136.14528"
       gradientTransform="matrix(0.328671,0.000000,0.000000,0.424893,15.86889,11.54220)"
       gradientUnits="userSpaceOnUse"
       id="linearGradient2173"
       xlink:href="#linearGradient3613"
       inkscape:collect="always" />
    <radialGradient
       gradientUnits="userSpaceOnUse"
       gradientTransform="matrix(1.309978,9.597097e-7,-8.358400e-7,1.140899,-20.01367,-9.265080)"
       r="58.068558"
       fy="65.756081"
       fx="64.564903"
       cy="65.756081"
       cx="64.564903"
       id="radialGradient2171"
       xlink:href="#linearGradient2781"
       inkscape:collect="always" />
    <linearGradient
       y2="246.00000"
       x2="136.85472"
       y1="12.000000"
       x1="136.14528"
       gradientTransform="matrix(0.328671,0.000000,0.000000,0.424893,15.86889,11.54220)"
       gradientUnits="userSpaceOnUse"
       id="linearGradient2169"
       xlink:href="#linearGradient3613"
       inkscape:collect="always" />
    <linearGradient
       id="linearGradient2163">
      <stop
         style="stop-color:#aacb3b;stop-opacity:1.0000000;"
         offset="0.0000000"
         id="stop2165" />
      <stop
         style="stop-color:#6ba028;stop-opacity:1.0000000;"
         offset="1.0000000"
         id="stop2167" />
    </linearGradient>
    <linearGradient
       inkscape:collect="always"
       xlink:href="#linearGradient3613"
       id="linearGradient2161"
       gradientUnits="userSpaceOnUse"
       gradientTransform="matrix(0.849785,0.000000,0.000000,0.849785,19.17902,19.22747)"
       x1="136.14528"
       y1="12.000000"
       x2="136.85472"
       y2="246.00000" />
    <linearGradient
       id="linearGradient2153">
      <stop
         id="stop2155"
         offset="0"
         style="stop-color:#000000;stop-opacity:1;" />
      <stop
         style="stop-color:#000000;stop-opacity:1.0000000;"
         offset="0.95999998"
         id="stop2157" />
      <stop
         id="stop2159"
         offset="1"
         style="stop-color:#000000;stop-opacity:0;" />
    </linearGradient>
    <linearGradient
       id="linearGradient2133">
      <stop
         id="stop2135"
         offset="0.0000000"
         style="stop-color:#a7f52a;stop-opacity:1.0000000;" />
      <stop
         style="stop-color:#9af20c;stop-opacity:0.49803922;"
         offset="0.75999999"
         id="stop2137" />
      <stop
         id="stop2139"
         offset="1"
         style="stop-color:#9af20c;stop-opacity:0;" />
    </linearGradient>
    <linearGradient
       id="linearGradient2957">
      <stop
         id="stop2959"
         offset="0"
         style="stop-color:#aaec35;stop-opacity:1;" />
      <stop
         style="stop-color:#aaec35;stop-opacity:0.49803922;"
         offset="0.60000002"
         id="stop2965" />
      <stop
         id="stop2961"
         offset="1"
         style="stop-color:#aaec35;stop-opacity:0;" />
    </linearGradient>
    <linearGradient
       id="linearGradient2998"
       inkscape:collect="always">
      <stop
         id="stop3000"
         offset="0"
         style="stop-color:#000000;stop-opacity:1;" />
      <stop
         id="stop3002"
         offset="1"
         style="stop-color:#000000;stop-opacity:0;" />
    </linearGradient>
    <linearGradient
       id="linearGradient3014"
       inkscape:collect="always">
      <stop
         id="stop3016"
         offset="0"
         style="stop-color:#000000;stop-opacity:1;" />
      <stop
         id="stop3018"
         offset="1"
         style="stop-color:#000000;stop-opacity:0;" />
    </linearGradient>
    <radialGradient
       inkscape:collect="always"
       xlink:href="#linearGradient2781"
       id="radialGradient2201"
       gradientUnits="userSpaceOnUse"
       gradientTransform="matrix(1.309978,9.597097e-7,-8.358400e-7,1.140899,-20.01367,-9.265080)"
       cx="64.564903"
       cy="65.756081"
       fx="64.564903"
       fy="65.756081"
       r="58.068558" />
    <linearGradient
       inkscape:collect="always"
       xlink:href="#linearGradient3613"
       id="linearGradient2203"
       gradientUnits="userSpaceOnUse"
       gradientTransform="matrix(0.328671,0.000000,0.000000,0.424893,15.86889,11.54220)"
       x1="136.14528"
       y1="12.000000"
       x2="136.85472"
       y2="246.00000" />
    <radialGradient
       inkscape:collect="always"
       xlink:href="#linearGradient2881"
       id="radialGradient2205"
       gradientUnits="userSpaceOnUse"
       gradientTransform="matrix(0.528373,0.274104,-0.717959,1.383969,62.46790,-32.40645)"
       cx="83.036148"
       cy="30.915863"
       fx="83.036148"
       fy="30.915863"
       r="16.416874" />
    <linearGradient
       inkscape:collect="always"
       xlink:href="#linearGradient2915"
       id="linearGradient2207"
       gradientUnits="userSpaceOnUse"
       x1="97.375000"
       y1="37.203125"
       x2="90.671875"
       y2="33.453125" />
    <radialGradient
       inkscape:collect="always"
       xlink:href="#linearGradient2497"
       id="radialGradient2503"
       cx="37.393166"
       cy="112.38368"
       fx="37.393166"
       fy="112.38368"
       r="38.1875"
       gradientTransform="matrix(-0.389914,1.72631,-1.751339,-0.395563,255.4264,34.23261)"
       gradientUnits="userSpaceOnUse" />
    <radialGradient
       inkscape:collect="always"
       xlink:href="#linearGradient2851"
       id="radialGradient2513"
       cx="25.108809"
       cy="59.43288"
       fx="25.108809"
       fy="59.43288"
       r="18.620762"
       gradientTransform="matrix(6.077495e-2,2.788685,-2.592651,5.652757e-2,186.719,-46.39178)"
       gradientUnits="userSpaceOnUse" />
    <radialGradient
       inkscape:collect="always"
       xlink:href="#linearGradient2577"
       id="radialGradient2539"
       cx="49.51503"
       cy="61.383133"
       fx="49.51503"
       fy="61.383133"
       r="3.0141666"
       gradientTransform="matrix(1,0,0,0.824716,0,10.75951)"
       gradientUnits="userSpaceOnUse" />
    <radialGradient
       inkscape:collect="always"
       xlink:href="#linearGradient2577"
       id="radialGradient2551"
       cx="51.31995"
       cy="49.525864"
       fx="51.31995"
       fy="49.525864"
       r="2.4464922"
       gradientTransform="matrix(1,0,0,1.037473,-8.25,-8.355886)"
       gradientUnits="userSpaceOnUse" />
    <radialGradient
       inkscape:collect="always"
       xlink:href="#linearGradient2577"
       id="radialGradient2559"
       cx="61.779484"
       cy="34.083553"
       fx="61.779484"
       fy="34.083553"
       r="2.7467976"
       gradientTransform="matrix(1,0,0,1.040723,-11,-1.830202)"
       gradientUnits="userSpaceOnUse" />
    <radialGradient
       inkscape:collect="always"
       xlink:href="#linearGradient2577"
       id="radialGradient2567"
       cx="63.176155"
       cy="55.62397"
       fx="63.176155"
       fy="55.62397"
       r="1.7853625"
       gradientTransform="matrix(1.630843,1.64568,-1.766388,1.750462,58.83142,-145.3894)"
       gradientUnits="userSpaceOnUse" />
    <radialGradient
       inkscape:collect="always"
       xlink:href="#linearGradient2577"
       id="radialGradient2575"
       cx="51.340336"
       cy="38.634071"
       fx="51.340336"
       fy="38.634071"
       r="1.491341"
       gradientTransform="matrix(1,0,0,1.352854,-2.348996,6.61782)"
       gradientUnits="userSpaceOnUse" />
    <radialGradient
       inkscape:collect="always"
       xlink:href="#linearGradient2577"
       id="radialGradient2593"
       cx="59.812614"
       cy="42.893936"
       fx="59.812614"
       fy="42.893936"
       r="6.0947633"
       gradientTransform="matrix(1,0,0,0.941133,1.782149,3.408931)"
       gradientUnits="userSpaceOnUse" />
    <radialGradient
       inkscape:collect="always"
       xlink:href="#linearGradient2577"
       id="radialGradient2625"
       cx="46.928154"
       cy="53.948608"
       fx="46.928154"
       fy="53.948608"
       r="3.1509809"
       gradientTransform="matrix(1,0,0,0.654046,-5.25,10.77601)"
       gradientUnits="userSpaceOnUse" />
    <radialGradient
       inkscape:collect="always"
       xlink:href="#linearGradient2577"
       id="radialGradient2635"
       cx="74.50721"
       cy="62.242893"
       fx="74.50721"
       fy="62.242893"
       r="3.6725545"
       gradientTransform="matrix(1.54458,-2.462754e-6,1.289909e-6,0.809,-40.57522,11.88858)"
       gradientUnits="userSpaceOnUse" />
    <radialGradient
       inkscape:collect="always"
       xlink:href="#linearGradient2577"
       id="radialGradient2643"
       cx="78.172272"
       cy="74.690918"
       fx="78.172272"
       fy="74.690918"
       r="2.4671502"
       gradientTransform="matrix(1,0,0,1.130137,0,-9.720021)"
       gradientUnits="userSpaceOnUse" />
    <radialGradient
       inkscape:collect="always"
       xlink:href="#linearGradient2577"
       id="radialGradient2651"
       cx="60.348049"
       cy="72.819542"
       fx="60.348049"
       fy="72.819542"
       r="4.9280758"
       gradientTransform="matrix(1,0,0,0.588424,0,29.97079)"
       gradientUnits="userSpaceOnUse" />
    <radialGradient
       inkscape:collect="always"
       xlink:href="#linearGradient2577"
       id="radialGradient2659"
       cx="72.422806"
       cy="81.727547"
       fx="72.422806"
       fy="81.727547"
       r="2.212023"
       gradientTransform="matrix(1,0,0,1.781464,3,-66.36714)"
       gradientUnits="userSpaceOnUse" />
    <radialGradient
       inkscape:collect="always"
       xlink:href="#linearGradient2577"
       id="radialGradient2667"
       cx="52.99147"
       cy="90.877022"
       fx="52.99147"
       fy="90.877022"
       r="3.5212951"
       gradientTransform="matrix(1,0,0,0.694298,0,27.78132)"
       gradientUnits="userSpaceOnUse" />
    <radialGradient
       inkscape:collect="always"
       xlink:href="#linearGradient2577"
       id="radialGradient2675"
       cx="64.087463"
       cy="91.392761"
       fx="64.087463"
       fy="91.392761"
       r="2.7607293"
       gradientTransform="matrix(1,0,0,0.726989,0,24.95125)"
       gradientUnits="userSpaceOnUse" />
    <radialGradient
       inkscape:collect="always"
       xlink:href="#linearGradient2577"
       id="radialGradient2683"
       cx="47.61161"
       cy="88.907021"
       fx="47.61161"
       fy="88.907021"
       r="4.3471584"
       gradientTransform="matrix(1,0,0,0.530707,0,41.72347)"
       gradientUnits="userSpaceOnUse" />
    <radialGradient
       inkscape:collect="always"
       xlink:href="#linearGradient2577"
       id="radialGradient2701"
       cx="86.466881"
       cy="88.389091"
       fx="86.466881"
       fy="88.389091"
       r="7.8361816"
       gradientTransform="matrix(1,0,0,1.395745,0,-34.97957)"
       gradientUnits="userSpaceOnUse" />
    <radialGradient
       inkscape:collect="always"
       xlink:href="#linearGradient2577"
       id="radialGradient2723"
       cx="51.120258"
       cy="101.38848"
       fx="51.120258"
       fy="101.38848"
       r="16.433271"
       gradientTransform="matrix(1,0,0,0.388753,0,61.97342)"
       gradientUnits="userSpaceOnUse"
       spreadMethod="pad" />
    <radialGradient
       inkscape:collect="always"
       xlink:href="#linearGradient2577"
       id="radialGradient2731"
       cx="33.2285"
       cy="95.347694"
       fx="33.2285"
       fy="95.347694"
       r="3.1273065"
       gradientTransform="matrix(1,0,0,0.94745,0,5.010563)"
       gradientUnits="userSpaceOnUse" />
    <radialGradient
       inkscape:collect="always"
       xlink:href="#linearGradient2577"
       id="radialGradient2741"
       cx="74.090836"
       cy="99.695557"
       fx="74.090836"
       fy="99.695557"
       r="8.868989"
       gradientTransform="matrix(1,0,0,0.754941,0,24.43134)"
       gradientUnits="userSpaceOnUse" />
    <radialGradient
       inkscape:collect="always"
       xlink:href="#linearGradient2577"
       id="radialGradient2749"
       cx="74.090836"
       cy="99.695557"
       fx="74.090836"
       fy="99.695557"
       r="8.868989"
       gradientTransform="matrix(1,0,0,0.754941,0,24.43134)"
       gradientUnits="userSpaceOnUse" />
    <radialGradient
       inkscape:collect="always"
       xlink:href="#linearGradient2577"
       id="radialGradient2761"
       cx="42.758148"
       cy="52.762409"
       fx="42.758148"
       fy="52.762409"
       r="7.7831302"
       gradientTransform="matrix(1,0,0,0.890704,0,5.766719)"
       gradientUnits="userSpaceOnUse" />
    <radialGradient
       inkscape:collect="always"
       xlink:href="#linearGradient2577"
       id="radialGradient2772"
       cx="62.119392"
       cy="73.514755"
       fx="62.119392"
       fy="73.514755"
       r="7.3693943"
       gradientTransform="matrix(1,0,0,0.997424,0,0.189356)"
       gradientUnits="userSpaceOnUse" />
    <radialGradient
       inkscape:collect="always"
       xlink:href="#linearGradient2577"
       id="radialGradient2784"
       cx="49.970276"
       cy="29.731907"
       fx="49.970276"
       fy="29.731907"
       r="6.5527039"
       gradientTransform="matrix(1,0,0,1.03287,0,-0.9773)"
       gradientUnits="userSpaceOnUse" />
    <radialGradient
       inkscape:collect="always"
       xlink:href="#linearGradient2577"
       id="radialGradient2794"
       cx="70.223343"
       cy="27.378603"
       fx="70.223343"
       fy="27.378603"
       r="8.8574247"
       gradientTransform="matrix(1,0,0,0.442214,0,15.2714)"
       gradientUnits="userSpaceOnUse" />
    <radialGradient
       inkscape:collect="always"
       xlink:href="#linearGradient2577"
       id="radialGradient2802"
       cx="70.223343"
       cy="27.378603"
       fx="70.223343"
       fy="27.378603"
       r="8.8574247"
       gradientTransform="matrix(1,0,0,0.442214,0,15.2714)"
       gradientUnits="userSpaceOnUse" />
    <radialGradient
       inkscape:collect="always"
       xlink:href="#linearGradient2577"
       id="radialGradient2812"
       cx="49.970276"
       cy="29.731907"
       fx="49.970276"
       fy="29.731907"
       r="6.0527039"
       gradientTransform="matrix(1,0,0,1.035586,0,-1.058032)"
       gradientUnits="userSpaceOnUse" />
    <radialGradient
       inkscape:collect="always"
       xlink:href="#linearGradient2577"
       id="radialGradient2820"
       cx="42.758148"
       cy="52.762409"
       fx="42.758148"
       fy="52.762409"
       r="7.2831302"
       gradientTransform="matrix(1,0,0,0.883201,0,6.162614)"
       gradientUnits="userSpaceOnUse" />
    <radialGradient
       inkscape:collect="always"
       xlink:href="#linearGradient2577"
       id="radialGradient2832"
       cx="73.945366"
       cy="62.462097"
       fx="73.945366"
       fy="62.462097"
       r="5.581255"
       gradientTransform="matrix(1,0,0,1.008169,0,-0.510232)"
       gradientUnits="userSpaceOnUse" />
    <linearGradient
       inkscape:collect="always"
       xlink:href="#linearGradient2507"
       id="linearGradient2845"
       x1="31.246218"
       y1="81.511787"
       x2="35.296215"
       y2="86.089813"
       gradientUnits="userSpaceOnUse" />
  </defs>
  <sodipodi:namedview
     id="base"
     pagecolor="#ffffff"
     bordercolor="#666666"
     borderopacity="1.0"
     inkscape:pageopacity="0.0"
     inkscape:pageshadow="2"
     inkscape:zoom="2.8284271"
     inkscape:cx="115.10897"
     inkscape:cy="43.923417"
     inkscape:current-layer="layer2"
     showgrid="true"
     inkscape:document-units="px"
     inkscape:grid-bbox="true"
     gridspacingx="4.0000000px"
     gridspacingy="4.0000000px"
     gridempspacing="4"
     showguides="true"
     inkscape:guide-bbox="true"
     inkscape:window-width="999"
     inkscape:window-height="881"
     inkscape:window-x="24"
     inkscape:window-y="7" />
  <metadata
     id="metadata1311">
    <rdf:RDF>
      <cc:Work
         rdf:about="">
        <dc:format>image/svg+xml</dc:format>
        <dc:type
           rdf:resource="http://purl.org/dc/dcmitype/StillImage" />
        <dc:title>ScummVM Icon</dc:title>
        <dc:date>28-Feb-2006</dc:date>
        <dc:creator>
          <cc:Agent>
            <dc:title>Gord Allott</dc:title>
          </cc:Agent>
        </dc:creator>
        <dc:rights>
          <cc:Agent>
            <dc:title />
          </cc:Agent>
        </dc:rights>
        <dc:publisher>
          <cc:Agent>
            <dc:title />
          </cc:Agent>
        </dc:publisher>
        <dc:relation />
        <dc:language />
        <dc:subject>
          <rdf:Bag>
            <rdf:li>ScummVM</rdf:li>
            <rdf:li>Scumm</rdf:li>
          </rdf:Bag>
        </dc:subject>
        <dc:description>Icon for ScummVM</dc:description>
        <dc:contributor>
          <cc:Agent>
            <dc:title />
          </cc:Agent>
        </dc:contributor>
        <cc:license
           rdf:resource="http://creativecommons.org/licenses/GPL/2.0/" />
      </cc:Work>
      <cc:License
         rdf:about="http://creativecommons.org/licenses/GPL/2.0/">
        <cc:permits
           rdf:resource="http://web.resource.org/cc/Reproduction" />
        <cc:permits
           rdf:resource="http://web.resource.org/cc/Distribution" />
        <cc:requires
           rdf:resource="http://web.resource.org/cc/Notice" />
        <cc:permits
           rdf:resource="http://web.resource.org/cc/DerivativeWorks" />
        <cc:requires
           rdf:resource="http://web.resource.org/cc/ShareAlike" />
        <cc:requires
           rdf:resource="http://web.resource.org/cc/SourceCode" />
      </cc:License>
    </rdf:RDF>
  </metadata>
  <g
     inkscape:groupmode="layer"
     id="layer2"
     inkscape:label="Image"
     style="display:inline">
    <g
       id="g1337">
      <path
         sodipodi:nodetypes="cssssccsssssccc"
         id="path5032"
         d="M 63.708693,18.5736 C 42.495052,18.5736 30.160143,27.381288 30.160143,48.292879 C 30.160143,53.579204 35.587753,61.164688 40.492333,65.314438 C 44.953992,69.08943 54.799433,74.615794 65.691673,78.954082 C 69.247563,80.370362 68.612533,86.363571 61.047143,86.769111 C 47.792603,87.479631 37.943053,74.911169 35.805603,74.24839 L 25.826113,94.248951 C 36.296707,106.043 52.003813,109.4264 67.853943,109.4264 C 89.067588,109.4264 102.17389,100.01742 102.17389,81.764152 C 102.17389,66.730706 96.909318,62.477293 90.733048,58.874889 C 81.434378,53.451305 71.359527,52.282045 66.614443,49.393437 C 62.955922,47.166286 62.348202,42.276774 67.867083,41.923632 C 74.083228,41.525875 82.640498,42.147337 90.465708,50.926986 L 101.97557,32.503152 C 95.239028,22.93282 77.653778,18.5736 63.708693,18.5736 z "
         style="opacity:1;fill:#000000;fill-opacity:1;stroke:#000000;stroke-width:24;stroke-linecap:round;stroke-linejoin:round;stroke-miterlimit:4;stroke-dasharray:none;stroke-opacity:1" />
      <path
         sodipodi:nodetypes="csssscss"
         id="path1327"
         d="M 122,34.5 C 121.91436,38.216172 109.70115,41.447721 109.64645,51.585787 C 109.61486,57.236296 118.5,62 119,79 C 119.5,96 105.89645,123.54289 73.896447,125.79289 C 41.896447,128.04289 15.278174,118.12132 11.949747,98.828427 C 8.5484964,79.113421 63.156854,25.931981 63.156854,25.931981 C 63.156854,25.931981 69.648626,-4.4019891 99,8 C 116.75,15.5 122.10862,29.786896 122,34.5 z "
         style="fill:url(#radialGradient2789);fill-opacity:1;fill-rule:evenodd;stroke:none;stroke-width:1px;stroke-linecap:butt;stroke-linejoin:miter;stroke-opacity:1" />
    </g>
    <path
       style="opacity:1;fill:url(#linearGradient1393);fill-opacity:1.0;stroke:none;stroke-width:0.44352874;stroke-linecap:round;stroke-linejoin:miter;stroke-miterlimit:4;stroke-dasharray:none;stroke-opacity:1"
       d="M 63.529669,17.678495 C 42.316029,17.678495 29.798183,30.462036 30.16014,48.292879 C 30.374328,58.806795 35.649518,61.253839 40.313309,65.67248 C 46.565179,71.595724 59.562506,74.656528 64.259502,78.058977 C 68.881722,81.407259 68.443726,86.509895 60.868119,86.41107 C 46.539453,86.226485 37.94305,74.911169 35.8056,74.24839 L 25.82611,94.248952 C 39.577433,104.96887 52.006948,109.74177 67.85394,109.4264 C 85.845212,109.06836 102.17389,100.01742 102.17389,81.764152 C 102.17389,66.730706 96.551278,61.761209 90.375008,58.158805 C 81.076338,52.735221 71.796334,50.67933 66.61444,48.677353 C 62.239836,46.987265 63.064284,41.56069 68.583164,41.207548 C 74.799314,40.809791 82.8905,41.147337 90.71571,49.926986 L 101.97557,32.503152 C 95.23903,22.93282 77.474759,17.678495 63.529669,17.678495 z "
       id="path1336"
       sodipodi:nodetypes="cssssccsssssccc" />
    <path
       style="opacity:0.2;fill:url(#radialGradient2503);fill-opacity:1.0;stroke:none;stroke-width:0.44352874;stroke-linecap:round;stroke-linejoin:miter;stroke-miterlimit:4;stroke-dasharray:none;stroke-opacity:1"
       d="M 89.375,58.21875 C 91.886345,61.889363 93.40625,65.96302 93.40625,70.3125 C 93.406249,85.950448 75.486238,98.625 53.40625,98.625 C 43.323666,98.625001 34.225011,95.892348 27.1875,91.53125 L 25.8125,94.25 C 31.6869,106.04405 51.993618,109.4375 67.84375,109.4375 C 89.057398,109.4375 102.1875,100.00326 102.1875,81.75 C 102.1875,66.716548 97.074041,61.76132 90.897771,58.158916 C 90.450431,57.897998 90.004274,57.744557 89.375,58.21875 z "
       id="path5036"
       sodipodi:nodetypes="cssccsssc" />
    <path
       style="opacity:0.2;fill:url(#radialGradient2513);fill-opacity:1.0;stroke:none;stroke-width:0.44352874;stroke-linecap:round;stroke-linejoin:miter;stroke-miterlimit:4;stroke-dasharray:none;stroke-opacity:1"
       d="M 63.897771,17.488374 C 42.68413,17.488373 30.156248,30.027985 30.15625,48.28125 C 30.156251,55.89485 34.697334,62.265334 40.246826,65.50238 C 40.913688,65.891364 40.645144,66.947952 40.998413,66.193054 C 37.839488,61.569772 36,55.863096 36,50.1875 C 36.000001,34.696696 49.592171,20.717019 67.397771,17.769624 C 66.239314,17.71304 65.016832,17.488374 63.897771,17.488374 z "
       id="path5066"
       sodipodi:nodetypes="csscscc" />
    <path
       style="opacity:1;fill:url(#radialGradient2887);fill-opacity:1;stroke:none;stroke-width:0.44352874;stroke-linecap:round;stroke-linejoin:miter;stroke-miterlimit:4;stroke-dasharray:none;stroke-opacity:1"
       d="M 78.96875,19.9375 C 73.811897,21.434107 68.240049,23.684943 65.25,27.25 C 61.891635,31.254204 67.381738,37.131364 73.5,41.9375 C 77.693881,42.058641 89.461632,51.986568 94.28125,55.34375 L 107.8125,29.25 C 102.79704,26.137091 85.558195,21.149582 78.96875,19.9375 z "
       id="path2854"
       sodipodi:nodetypes="cscccc" />
    <path
       style="opacity:1;fill:url(#linearGradient2921);fill-opacity:1.0;stroke:none;stroke-width:0.44352874;stroke-linecap:round;stroke-linejoin:miter;stroke-miterlimit:4;stroke-dasharray:none;stroke-opacity:1"
       d="M 82.3125,20.71875 L 74.875,41.59375 C 78.527638,42.864507 87.252163,45.560175 90.897771,49.650437 L 101.96875,32.5 C 99.270372,28.666524 89.060987,21.684761 82.3125,20.71875 z "
       id="path1395"
       sodipodi:nodetypes="ccccc" />
    <path
       style="fill:url(#radialGradient2575);fill-opacity:1;fill-rule:evenodd;stroke:none;stroke-width:1px;stroke-linecap:butt;stroke-linejoin:miter;stroke-opacity:1"
       d="M 49.093022,57.563555 C 50.688757,58.11827 49.651004,59.596559 49.651004,60.25 C 49.651004,61.10399 48.136618,58.087849 48.032362,57.740332 C 47.80725,56.989959 48.820692,57.608944 49.093022,57.563555 z "
       id="path2523" />
    <path
       style="fill:url(#radialGradient2551);fill-opacity:1;fill-rule:evenodd;stroke:none;stroke-width:1px;stroke-linecap:butt;stroke-linejoin:miter;stroke-opacity:1"
       d="M 43.75,40.71305 C 43.513609,39.732683 45.245527,42.20957 45.490115,43.187924 C 45.795325,44.408763 43.356826,45.288557 42.838465,45.5 C 41.699405,45.964631 41.103746,43.767826 40.717145,43.187924 C 40.094565,42.254054 42.769637,41.61171 43.015242,41.5 C 43.341919,41.351416 43.505081,40.975367 43.75,40.71305 z "
       id="path2527" />
    <path
       style="fill:url(#radialGradient2567);fill-opacity:1.0;fill-rule:evenodd;stroke:none;stroke-width:1px;stroke-linecap:butt;stroke-linejoin:miter;stroke-opacity:1"
       d="M 60.664737,54.189448 C 59.386163,55.747611 64.478686,60.146869 61.64329,58.871429 C 59.219792,57.781272 65.332399,59.733293 66.125,59.496429 C 67.305156,59.143746 66.509482,51.268575 66.375,50.814448 C 66.007523,49.573529 62.710909,54.890757 63.039737,53.827011 C 63.760268,51.496117 62.164737,51.151969 60.664737,54.189448 z "
       id="path2529"
       sodipodi:nodetypes="cssssc" />
    <path
       style="fill:url(#radialGradient2539);fill-opacity:1.0;fill-rule:evenodd;stroke:none;stroke-width:1px;stroke-linecap:butt;stroke-linejoin:miter;stroke-opacity:1"
       d="M 50.558135,59.410642 C 49.671372,59.23329 52.334144,60.868412 52,61.708739 C 51.472525,63.035268 51.36347,62.926484 49.851028,63.299729 C 48.451694,63.645061 48.007279,62.614527 47.376154,62.062293 C 46.082026,60.92993 48.513876,59.839235 48.967145,59.587419 C 49.528167,59.27574 49.88687,59.485227 50.558135,59.410642 z "
       id="path2531" />
    <path
       style="fill:url(#radialGradient2593);fill-opacity:1;fill-rule:evenodd;stroke:none;stroke-width:1px;stroke-linecap:butt;stroke-linejoin:miter;stroke-opacity:1"
       d="M 67.189526,40.883883 C 66.363107,39.540716 65.417481,39.149119 64.007546,38.727768 C 62.426141,38.255174 60.114196,38.799331 58.704245,39.081322 C 57.511354,39.3199 56.802889,40.695918 56.229371,41.556195 C 55.853734,42.119652 56.052595,43.484186 56.052595,44.207846 C 56.052595,45.160384 56.82185,46.418479 57.113255,47.389826 C 57.345597,48.1643 59.125588,48.653297 59.941682,48.883883 C 60.97626,49.176202 62.398119,48.883883 63.477216,48.883883 C 64.304391,48.883883 63.360802,45.747096 63.300439,45.445283 C 62.990088,43.893526 63.266214,43.90563 64.007546,42.793632 C 64.469091,42.101315 66.407847,41.551849 67.189526,40.883883 z "
       id="path2585" />
    <path
       style="fill:url(#radialGradient2643);fill-opacity:1.0;fill-rule:evenodd;stroke:none;stroke-width:1px;stroke-linecap:butt;stroke-linejoin:miter;stroke-opacity:1"
       d="M 76,72 C 75.070479,71.3212 76.558302,74.390064 77.428193,75.143768 C 78.79244,76.325801 78.034946,76.824463 80,77.441865 C 81.436743,77.893277 80.003923,74.095433 80,74.083108 C 79.570838,72.734872 78.915432,72.602597 77.781746,72 C 77.509996,71.855555 76.228824,72 76,72 z "
       id="path2597" />
    <path
       style="fill:url(#radialGradient2659);fill-opacity:1;fill-rule:evenodd;stroke:none;stroke-width:1px;stroke-linecap:butt;stroke-linejoin:miter;stroke-opacity:1"
       d="M 76.362329,75.295418 C 75.969629,75.086684 74.401433,78.780394 73.710678,79.538059 C 72.295335,81.090502 74.259045,82.190876 75,82.896816 C 76.324258,84.158495 77.458727,80.633022 77.599766,80.245166 C 77.875493,79.486915 76.442246,77.525235 76.185552,77.063185 C 76.082373,76.877463 75.94985,76.709632 75.831999,76.532855"
       id="path2599" />
    <path
       style="fill:url(#radialGradient2635);fill-opacity:1.0;fill-rule:evenodd;stroke:url(#radialGradient2832);stroke-width:1;stroke-linecap:butt;stroke-linejoin:miter;stroke-opacity:1;stroke-miterlimit:4;stroke-dasharray:4,2;stroke-dashoffset:0"
       d="M 68.917785,62.769399 C 68.347187,61.742323 72.494522,58.051934 73.371212,57.5 C 74.970171,56.493351 79.399658,60.344543 79.001416,62.415846 C 78.567852,64.670865 75.707428,67.588943 74.651542,67.588943 C 72.419077,67.588943 69.5701,64.75001 68.917785,62.769399 z "
       id="path2601"
       sodipodi:nodetypes="csssc" />
    <path
       style="fill:url(#radialGradient2683);fill-opacity:1.0;fill-rule:evenodd;stroke:none;stroke-width:1px;stroke-linecap:butt;stroke-linejoin:miter;stroke-opacity:1"
       d="M 44,87.518137 C 42.912558,87.518137 45.92097,88.802883 46.315494,89.816234 C 46.636267,90.640153 48.811113,90.575324 49.497475,90.700117 C 50.223901,90.832195 50.793837,89.99301 51.442018,89.639457 C 51.688069,89.505248 49.145124,88.473212 48.967145,88.40202 C 47.810747,87.939461 46.60656,87.719845 45.431611,87.164583 C 44.926604,86.925926 44.406859,87.417658 44,87.518137 z "
       id="path2603" />
    <path
       style="fill:url(#radialGradient2667);fill-opacity:1.0;fill-rule:evenodd;stroke:none;stroke-width:1px;stroke-linecap:butt;stroke-linejoin:miter;stroke-opacity:1"
       d="M 56,89.285904 C 55.212217,88.913611 53.40177,88.93235 52,88.93235 C 50.388303,88.93235 50.594045,89.850756 50.027805,90.700117 C 49.481187,91.520044 53.002289,92.633458 53.033009,92.644661 C 53.987053,92.992577 55.00735,92.736711 56,92.644661 C 56.028723,92.641997 56,89.466298 56,89.285904 z "
       id="path2605" />
    <path
       style="fill:url(#radialGradient2675);fill-opacity:1.0;fill-rule:evenodd;stroke:none;stroke-width:1px;stroke-linecap:butt;stroke-linejoin:miter;stroke-opacity:1"
       d="M 61.341513,91.407224 C 62.680769,91.283033 63.58877,89.849164 64.877047,89.46268 C 66.275434,89.043164 66.173698,90.447949 66.644814,91.053671 C 67.583822,92.260967 64.993001,92.862921 64.523494,93.174991 C 63.470425,93.87494 62.20263,92.74162 61.51829,92.467884 C 61.185496,92.334767 61.400439,91.760777 61.341513,91.407224 z "
       id="path2607" />
    <path
       style="fill:url(#radialGradient2625);fill-opacity:1;fill-rule:evenodd;stroke:none;stroke-width:1px;stroke-linecap:butt;stroke-linejoin:miter;stroke-opacity:1"
       d="M 38.75,44.11228 C 38.043476,43.82967 39.220338,46.483348 39.474504,47.103505 C 39.960946,48.290407 42.255047,48.11228 43.363591,48.11228 C 44.733316,48.11228 44.506848,47.100161 44.777805,46.042845 C 45.140011,44.629457 43.492304,44.497965 42.75,44.11228 C 41.990296,43.717555 40.932788,44.523 40.181611,44.11228 C 40.022433,44.025247 38.782072,44.11228 38.75,44.11228 z "
       id="path2609" />
    <path
       style="fill:url(#radialGradient2701);fill-opacity:1.0;fill-rule:evenodd;stroke:none;stroke-width:1px;stroke-linecap:butt;stroke-linejoin:miter;stroke-opacity:1"
       d="M 90.75,78 C 88.833333,78.25 86.916667,78.5 85,78.75 C 83.81687,78.904321 87.333333,78.25 88.5,78 C 90.40922,77.590881 84.513753,79.866238 84,81.75 C 83.51818,83.516673 84,86.167799 84,88 C 84,89.719944 82.506003,90.743997 81.25,92 C 79.910403,93.339597 79.834708,93.550973 79.25,95.5 C 78.595941,97.680198 80.788902,97.894451 82,98.5 C 83.072951,99.036475 84.971675,98.75 86.25,98.75 C 88.774665,98.75 88.878954,98.810523 91,97.75 C 92.013313,97.243344 92.608482,93.576675 93,92.5 C 93.63621,90.750423 93.591847,88.581528 93.75,87 C 93.937777,85.122234 93.59305,83.215249 93.25,81.5 C 92.842314,79.46157 92.202014,79.452014 90.75,78 z "
       id="path2693" />
    <path
       style="fill:url(#radialGradient2731);fill-opacity:1.0;fill-rule:evenodd;stroke:none;stroke-width:1px;stroke-linecap:butt;stroke-linejoin:miter;stroke-opacity:1"
       d="M 30.75,94.25 C 30.364618,92.323088 33.845329,93 34.75,93 C 36.505503,93 35.692813,95.785935 35.5,96.75 C 35.048644,99.006778 32.122363,96.998945 31.5,96.75 C 29.839183,96.085673 31.047442,95.241474 30.75,94.25 z "
       id="path2705" />
    <path
       style="fill:url(#radialGradient2723);fill-opacity:1.0;fill-rule:evenodd;stroke:none;stroke-width:1px;stroke-linecap:butt;stroke-linejoin:miter;stroke-opacity:1"
       d="M 34.75,96 C 34.095684,95.738273 38.735321,95 39.5,95 C 40.28722,95 41.210569,98.276422 41.5,99 C 41.830031,99.825077 45.514175,98.797165 45.75,98.75 C 47.945433,98.310913 47.771304,100.99217 48,102.25 C 48.317502,103.99626 50.648212,102.22322 51.5,101.75 C 52.878577,100.98412 53.747371,100.60105 55.25,100 C 56.402701,99.53892 58.155931,101.82106 58.75,102.5 C 59.379852,103.21983 62.484854,104.82324 63.5,105.5 C 64.64774,106.26516 65.99423,106.6792 67.25,107.25 C 68.844947,107.97498 63.717961,107.84359 62,107.5 C 60.251628,107.15033 58.964359,106.96755 57.25,106.5 C 56.44202,106.27964 57.083333,104.83333 57,104 C 56.915438,103.15438 55.333333,104.33333 54.5,104.5 C 53.746624,104.65068 53.518295,106 52.75,106 C 50.447624,106 51.037977,106.31448 49.25,104.75 C 47.942008,103.60551 46.906464,103.04316 46,102.25 C 44.858159,101.25089 47.914093,100 44,100 C 42.761161,100 42.260574,101.77212 41.5,102.75 C 40.669101,103.8183 38.437394,99.58731 38.25,99.25 C 36.992714,96.986885 37.320591,97.028236 34.75,96 z "
       id="path2707" />
    <path
       style="fill:url(#radialGradient2749);fill-opacity:1.0;fill-rule:evenodd;stroke:url(#radialGradient2741);stroke-width:1px;stroke-linecap:butt;stroke-linejoin:miter;stroke-opacity:1"
       d="M 76,94.75 C 74.875896,93.670596 72.453677,94.072393 70.5,94.25 C 68.391932,94.441643 68.061685,94.828737 66.5,96 C 65.023275,97.107544 66.014132,98.380441 66.5,100 C 66.946164,101.48721 69.346152,101.90385 70.5,102.25 C 72.173996,102.7522 73.736294,102.75 75.5,102.75 C 78.719435,102.75 76.83345,103.47927 78,104.5 C 79.742294,106.02451 78.552893,106.32884 81.25,105.25 C 83.86509,104.20396 81.457779,102.51945 81.25,102 C 81.216941,101.91735 78.255583,99.537531 78,99.25 C 77.374163,98.545933 77.75,95.937134 77.75,95 C 77.75,94.231705 76.583333,94 76,93.5"
       id="path2733" />
    <path
       style="fill:url(#radialGradient2761);fill-opacity:1.0;fill-rule:evenodd;stroke:url(#radialGradient2820);stroke-width:1;stroke-linecap:butt;stroke-linejoin:miter;stroke-opacity:1;stroke-miterlimit:4;stroke-dasharray:2,1,0.5,1;stroke-dashoffset:0"
       d="M 37.75,49 C 39.345692,49.810043 40.720822,49.211671 42.5,48.5 C 44.068338,47.872665 45.013349,46.973632 46.75,46.5 C 50.104372,45.585171 49.470754,48.617923 50,49.5 C 50.489867,50.316445 46.462253,51.893874 46.25,52 C 44.67443,52.787785 45.438126,53.690627 45.75,55.25 C 46.311444,58.057221 45.928003,57.079594 45,58.75 C 44.352416,59.915651 41.148095,58.444428 40.5,58.25 C 38.782342,57.734702 37.664232,56.373174 36.5,55.5 C 35.415622,54.686716 35.696133,52.230663 35.5,51.25 C 35.227172,49.88586 37.268593,49.481407 37.75,49 z "
       id="path2753" />
    <path
       style="fill:url(#radialGradient2772);fill-opacity:1.0;fill-rule:evenodd;stroke:none;stroke-width:1px;stroke-linecap:butt;stroke-linejoin:miter;stroke-opacity:1"
       d="M 54.75,72 C 57.134792,72.27068 56.685096,71.666827 57.75,69.75 C 58.658268,68.115118 59.251279,67.436541 60.5,66.5 C 61.77168,65.54624 63.603529,66.891411 64.5,67.25 C 67.845973,68.588389 66.83903,69.315049 68,71.25 C 68.031655,71.302758 67.05681,74.9319 67,75.5 C 66.911395,76.386047 68.756045,78.36088 69.25,79.25 C 70.490629,81.483132 66.518597,80.75 66,80.75 C 65.17719,80.75 65.296284,77.212839 65.25,76.75 C 65.013346,74.383456 64.255832,74.877916 62.5,74 C 61.591156,73.545578 59.209344,73.845934 58.25,73.75 C 57.151339,73.640134 55.353712,72.335395 54.75,72 z "
       id="path2764" />
    <path
       style="fill:url(#radialGradient2784);fill-opacity:1.0;fill-rule:evenodd;stroke:url(#radialGradient2812);stroke-width:1;stroke-linecap:butt;stroke-linejoin:miter;stroke-opacity:1;stroke-miterlimit:4;stroke-dasharray:4,8;stroke-dashoffset:0"
       d="M 46,35.5 C 47.089914,35.610541 49.368336,34.40648 51,33.5 C 52.685722,32.563488 53.385732,31.710701 55,30.5 C 56.264327,29.551755 56,27.52804 56,26 C 56,24.90462 51.152287,23.630457 50.5,23.5 C 49.02089,23.204178 47.169165,24.798501 46,25.5 C 44.664091,26.301545 45.654151,28.54151 45.75,29.5 C 46.061628,32.616276 48.602217,30.329557 49,30.25 C 49.931695,30.063661 50.5,29.083333 51.25,28.5 C 52.31066,27.675042 50.324968,31.193774 49.25,32 C 48.381498,32.651377 45.63118,33.297528 44.5,33.75 C 43.189535,34.274186 44.5,35.966005 44.5,36"
       id="path2776" />
    <path
       style="fill:url(#radialGradient2802);fill-opacity:1.0;fill-rule:evenodd;stroke:url(#radialGradient2794);stroke-width:1;stroke-linecap:butt;stroke-linejoin:round;stroke-opacity:1;stroke-miterlimit:4;stroke-dasharray:2,6;stroke-dashoffset:0"
       d="M 65,26.5 C 63.479861,27.108056 68.144554,25.571089 69.75,25.25 C 71.530533,24.893893 73.734115,24.413423 75.25,24 C 76.56438,23.641533 77.51052,25.890779 78.25,27 C 79.81523,29.347845 75.393125,28.626648 74,28.5 C 72.474814,28.361347 71.461942,28 69.75,28 C 67.032056,28 67.824493,28.525394 66.25,29.75 C 64.601021,31.032539 64.950271,30.940054 62.75,30.5 C 60.741323,30.098265 62.748507,27.378733 63,26.75 C 63.262611,26.093473 63.699025,25.701463 64,25.25"
       id="path2786" />
    <path
       style="fill:url(#linearGradient2845);fill-opacity:1.0;fill-rule:evenodd;stroke:none;stroke-width:1px;stroke-linecap:butt;stroke-linejoin:miter;stroke-opacity:1"
       d="M 25.9375,94.1875 C 24.406178,96.561732 30.740423,84.412015 35.5,74.625 C 36.248761,73.085339 38.504242,77.315328 45.875,82 C 47.059165,82.752626 32.096521,95.298275 31,98 C 30.194371,99.984995 22.701656,91.181023 25.9375,94.1875 z "
       id="path2834"
       sodipodi:nodetypes="csssc" />
  </g>
</svg>
